<svg version="1.1" xmlns="http://www.w3.org/2000/svg" viewBox="0 0 154 154" width="154" height="154">
  <!-- svg-source:excalidraw -->
  
  <defs>
    <style class="style-fonts">
      @font-face {
        font-family: "Virgil";
        src: url("https://excalidraw.com/Virgil.woff2");
      }
      @font-face {
        font-family: "Cascadia";
        src: url("https://excalidraw.com/Cascadia.woff2");
      }
    </style>
    
  </defs>
  <g stroke-linecap="round" transform="translate(10 10) rotate(0 67 67)"><path d="M-0.89 -0.46 L135.49 0.78 L133.73 133.95 L-0.2 133.96" stroke="none" stroke-width="0" fill="#ffffff"></path><path d="M0.53 1.92 C49.22 0.18, 100.3 -0.77, 134.84 0.42 M0.78 0.07 C28.01 -0.14, 57.17 -0.24, 133.93 -0.78 M134.71 1.63 C133.97 45.2, 133.77 90.32, 133.29 135.6 M133.4 0.3 C133.16 43.94, 133.33 89.7, 134.9 134.47 M133.5 132.22 C90.83 134.32, 46.56 132.94, -1.96 132.2 M134.14 134.05 C94.05 135.6, 56.18 135.22, -0.15 134.13 M-0.07 135.9 C1.34 87.5, -0.57 42.51, -0.68 -0.46 M0.2 134.28 C0.11 105.22, 0.91 77.2, 0 0.22" stroke="#1e1e1e" stroke-width="4" fill="none"></path></g></svg>