<svg version="1.1" xmlns="http://www.w3.org/2000/svg" viewBox="0 0 154 154" width="154" height="154">
  <!-- svg-source:excalidraw -->
  
  <defs>
    <style class="style-fonts">
      @font-face {
        font-family: "Virgil";
        src: url("https://excalidraw.com/Virgil.woff2");
      }
      @font-face {
        font-family: "Cascadia";
        src: url("https://excalidraw.com/Cascadia.woff2");
      }
    </style>
    
  </defs>
  <g stroke-linecap="round" transform="translate(10 10) rotate(0 67 67)"><path d="M1.1 -0.07 L135.9 1.92 L133.44 134.02 L0.39 133.32" stroke="none" stroke-width="0" fill="#9775fa"></path><path d="M0.35 1.49 C53.24 0.49, 106.85 1.9, 133.41 0.51 M-0.6 -0.83 C45.79 -0.57, 90.76 0.28, 134.79 0.08 M132.44 0.05 C133.07 38.01, 135.19 78.23, 132.22 133.47 M133.75 -0.43 C135.7 36.71, 134.97 73.71, 134.31 134.2 M133.7 134.87 C97.84 136.74, 61.99 136.7, 0.7 133.08 M133.78 133.03 C100.27 134.28, 67.55 134.87, 0.22 134.57 M0.03 134.48 C-0.71 94.49, -1.63 54.98, -0.15 -0.86 M-0.72 134.83 C0.45 86.59, -0.33 38.4, 0.43 0.44" stroke="#1e1e1e" stroke-width="4" fill="none"></path></g></svg>