<svg version="1.1" xmlns="http://www.w3.org/2000/svg" viewBox="0 0 154 154" width="154" height="154">
  <!-- svg-source:excalidraw -->
  
  <defs>
    <style class="style-fonts">
      @font-face {
        font-family: "Virgil";
        src: url("https://excalidraw.com/Virgil.woff2");
      }
      @font-face {
        font-family: "Cascadia";
        src: url("https://excalidraw.com/Cascadia.woff2");
      }
    </style>
    
  </defs>
  <g stroke-linecap="round" transform="translate(10 10) rotate(0 67 67)"><path d="M-1.78 -0.53 L133.56 1.56 L134.14 133.5 L-0.86 135.3" stroke="none" stroke-width="0" fill="#ffd43b"></path><path d="M1.71 0.35 C29.51 -2.68, 58.2 -1.6, 135.21 1.16 M-0.42 0.88 C45.3 0.19, 90.35 -1.23, 134.27 -0.58 M134.85 1.86 C131.55 52.4, 134.23 106.35, 133.57 135.82 M133.95 0.55 C134.14 32.37, 133.16 64.16, 133.25 134.06 M134.29 134.12 C97.55 135.15, 62.32 133.56, -1.66 136 M134.11 133.07 C84.16 135.99, 34.29 134.86, 0.82 134.33 M0.89 134.98 C-1.54 96.11, -0.43 61.71, -1.82 1.87 M0.26 134.96 C-0.89 83.24, -0.75 31.97, 0.42 0.21" stroke="#1e1e1e" stroke-width="4" fill="none"></path></g></svg>