<svg version="1.1" xmlns="http://www.w3.org/2000/svg" viewBox="0 0 154 154" width="154" height="154">
  <!-- svg-source:excalidraw -->
  
  <defs>
    <style class="style-fonts">
      @font-face {
        font-family: "Virgil";
        src: url("https://excalidraw.com/Virgil.woff2");
      }
      @font-face {
        font-family: "Cascadia";
        src: url("https://excalidraw.com/Cascadia.woff2");
      }
    </style>
    
  </defs>
  <g stroke-linecap="round" transform="translate(10 10) rotate(0 67 67)"><path d="M0 0 L134 0 L134 134 L0 134" stroke="none" stroke-width="0" fill="#9775fa"></path><path d="M0 0 C26.84 0, 53.67 0, 134 0 M0 0 C31.49 0, 62.98 0, 134 0 M134 0 C134 34.05, 134 68.1, 134 134 M134 0 C134 35.96, 134 71.92, 134 134 M134 134 C91.34 134, 48.67 134, 0 134 M134 134 C104.23 134, 74.47 134, 0 134 M0 134 C0 88.61, 0 43.23, 0 0 M0 134 C0 84.11, 0 34.22, 0 0" stroke="#1e1e1e" stroke-width="4" fill="none"></path></g></svg>