<svg version="1.1" xmlns="http://www.w3.org/2000/svg" viewBox="0 0 154 154" width="154" height="154">
  <!-- svg-source:excalidraw -->
  
  <defs>
    <style class="style-fonts">
      @font-face {
        font-family: "Virgil";
        src: url("https://excalidraw.com/Virgil.woff2");
      }
      @font-face {
        font-family: "Cascadia";
        src: url("https://excalidraw.com/Cascadia.woff2");
      }
    </style>
    
  </defs>
  <g stroke-linecap="round" transform="translate(10 10) rotate(0 67 67)"><path d="M-0.51 1.64 L133.29 1.6 L134.7 133.08 L-0.97 132.8" stroke="none" stroke-width="0" fill="#f783ac"></path><path d="M-1.16 1.99 C42.78 -1.59, 89.99 1.5, 132.76 -1.13 M0.91 -0.62 C49.65 -0.15, 99.57 0.84, 134.36 0.52 M134.12 -0.6 C135.52 33.35, 134.92 64.02, 133.71 134.21 M135 0.73 C134.03 45.48, 133.18 88.18, 134.17 134.75 M134.65 133.41 C90.01 135.94, 45.89 136.08, -1.19 132.34 M134.94 134.79 C94.48 132.68, 55.05 133.74, -0.78 134.03 M0.42 132.22 C0.07 101.95, 2.16 70.92, -0.5 -0.86 M-0.78 134.31 C0.92 84.73, 1.07 36.96, -0.15 0.43" stroke="#1e1e1e" stroke-width="4" fill="none"></path></g></svg>