<svg version="1.1" xmlns="http://www.w3.org/2000/svg" viewBox="0 0 154 154" width="154" height="154">
  <!-- svg-source:excalidraw -->
  
  <defs>
    <style class="style-fonts">
      @font-face {
        font-family: "Virgil";
        src: url("https://excalidraw.com/Virgil.woff2");
      }
      @font-face {
        font-family: "Cascadia";
        src: url("https://excalidraw.com/Cascadia.woff2");
      }
    </style>
    
  </defs>
  <g stroke-linecap="round" transform="translate(10 10) rotate(0 67 67)"><path d="M0 0 L134 0 L134 134 L0 134" stroke="none" stroke-width="0" fill="#3bc9db"></path><path d="M0 0 C51.13 0, 102.26 0, 134 0 M0 0 C52.57 0, 105.13 0, 134 0 M134 0 C134 46.24, 134 92.47, 134 134 M134 0 C134 38.54, 134 77.09, 134 134 M134 134 C100.49 134, 66.97 134, 0 134 M134 134 C85.06 134, 36.11 134, 0 134 M0 134 C0 96.6, 0 59.19, 0 0 M0 134 C0 92.94, 0 51.89, 0 0" stroke="#1e1e1e" stroke-width="4" fill="none"></path></g></svg>