<svg version="1.1" xmlns="http://www.w3.org/2000/svg" viewBox="0 0 154 154" width="154" height="154">
  <!-- svg-source:excalidraw -->
  
  <defs>
    <style class="style-fonts">
      @font-face {
        font-family: "Virgil";
        src: url("https://excalidraw.com/Virgil.woff2");
      }
      @font-face {
        font-family: "Cascadia";
        src: url("https://excalidraw.com/Cascadia.woff2");
      }
    </style>
    
  </defs>
  <g stroke-linecap="round" transform="translate(10 10) rotate(0 67 67)"><path d="M-0.59 0.51 L134.84 0.89 L134.98 132.81 L-1.66 133.91" stroke="none" stroke-width="0" fill="#69db7c"></path><path d="M-1.5 0.19 C34.65 1.78, 66.62 -0.32, 133.13 -0.8 M-0.24 0.85 C52.3 0.41, 104.58 0.37, 134.92 -0.24 M135.71 0.35 C134.81 26.96, 135.2 56.34, 135.21 135.16 M133.58 0.88 C133.36 45.72, 133.4 89.32, 134.27 133.42 M134.85 135.86 C79.23 132.04, 28.38 132.46, -0.43 135.82 M133.95 134.55 C102.52 133.94, 69.7 133.89, -0.75 134.06 M0.29 134.12 C-0.88 98.04, 0.05 60.29, -1.66 2 M0.11 133.07 C-1.11 84.73, -0.96 33.6, 0.82 0.33" stroke="#1e1e1e" stroke-width="4" fill="none"></path></g></svg>