<svg version="1.1" xmlns="http://www.w3.org/2000/svg" viewBox="0 0 154 154" width="154" height="154">
  <!-- svg-source:excalidraw -->
  
  <defs>
    <style class="style-fonts">
      @font-face {
        font-family: "Virgil";
        src: url("https://excalidraw.com/Virgil.woff2");
      }
      @font-face {
        font-family: "Cascadia";
        src: url("https://excalidraw.com/Cascadia.woff2");
      }
    </style>
    
  </defs>
  <g stroke-linecap="round" transform="translate(10 10) rotate(0 67 67)"><path d="M-0.2 0.9 L135.37 0.76 L135.48 134.94 L0.02 133.33" stroke="none" stroke-width="0" fill="#ffffff"></path><path d="M-0.9 -0.43 C42.03 -0.86, 88.03 0.01, 133.64 1.76 M0.33 -0.7 C37.91 0.25, 76.8 -0.27, 134.84 0.8 M135.19 -1.76 C135.78 46.19, 135.15 93.24, 133.75 132.74 M133.78 -0.94 C133.58 44.27, 133.93 89.15, 134.51 133.63 M133.52 134.7 C106 134.17, 78.67 131.58, -1.34 133.11 M133.16 133.69 C101.03 133.59, 69.15 133.45, 0.41 133.33 M1.52 135.01 C1.58 86.81, 1.02 36.2, 0.13 -0.24 M-0.83 133.85 C-0.46 101.99, 0.01 69.64, 0.53 0.93" stroke="#1e1e1e" stroke-width="4" fill="none"></path></g></svg>