<svg version="1.1" xmlns="http://www.w3.org/2000/svg" viewBox="0 0 154 154" width="154" height="154">
  <!-- svg-source:excalidraw -->
  
  <defs>
    <style class="style-fonts">
      @font-face {
        font-family: "Virgil";
        src: url("https://excalidraw.com/Virgil.woff2");
      }
      @font-face {
        font-family: "Cascadia";
        src: url("https://excalidraw.com/Cascadia.woff2");
      }
    </style>
    
  </defs>
  <g stroke-linecap="round" transform="translate(10 10) rotate(0 67 67)"><path d="M0 0 L134 0 L134 134 L0 134" stroke="none" stroke-width="0" fill="#69db7c"></path><path d="M0 0 C40.59 0, 81.18 0, 134 0 M0 0 C50.73 0, 101.45 0, 134 0 M134 0 C134 30.8, 134 61.6, 134 134 M134 0 C134 31.6, 134 63.2, 134 134 M134 134 C87.41 134, 40.83 134, 0 134 M134 134 C95.72 134, 57.45 134, 0 134 M0 134 C0 84.58, 0 35.16, 0 0 M0 134 C0 87.99, 0 41.98, 0 0" stroke="#1e1e1e" stroke-width="4" fill="none"></path></g></svg>