<svg version="1.1" xmlns="http://www.w3.org/2000/svg" viewBox="0 0 154 154" width="154" height="154">
  <!-- svg-source:excalidraw -->
  
  <defs>
    <style class="style-fonts">
      @font-face {
        font-family: "Virgil";
        src: url("https://excalidraw.com/Virgil.woff2");
      }
      @font-face {
        font-family: "Cascadia";
        src: url("https://excalidraw.com/Cascadia.woff2");
      }
    </style>
    
  </defs>
  <g stroke-linecap="round" transform="translate(10 10) rotate(0 67 67)"><path d="M0 0 L134 0 L134 134 L0 134" stroke="none" stroke-width="0" fill="#ffd43b"></path><path d="M0 0 C43.05 0, 86.11 0, 134 0 M0 0 C38.08 0, 76.17 0, 134 0 M134 0 C134 50.13, 134 100.26, 134 134 M134 0 C134 28.45, 134 56.9, 134 134 M134 134 C89.45 134, 44.9 134, 0 134 M134 134 C83.56 134, 33.13 134, 0 134 M0 134 C0 106.31, 0 78.62, 0 0 M0 134 C0 88.33, 0 42.65, 0 0" stroke="#1e1e1e" stroke-width="4" fill="none"></path></g></svg>