<svg version="1.1" xmlns="http://www.w3.org/2000/svg" viewBox="0 0 154 154" width="154" height="154">
  <!-- svg-source:excalidraw -->
  
  <defs>
    <style class="style-fonts">
      @font-face {
        font-family: "Virgil";
        src: url("https://excalidraw.com/Virgil.woff2");
      }
      @font-face {
        font-family: "Cascadia";
        src: url("https://excalidraw.com/Cascadia.woff2");
      }
    </style>
    
  </defs>
  <g stroke-linecap="round" transform="translate(10 10) rotate(0 67 67)"><path d="M0 0 L134 0 L134 134 L0 134" stroke="none" stroke-width="0" fill="#f783ac"></path><path d="M0 0 C36 0, 71.99 0, 134 0 M0 0 C31.72 0, 63.45 0, 134 0 M134 0 C134 45.13, 134 90.26, 134 134 M134 0 C134 41.48, 134 82.97, 134 134 M134 134 C100.2 134, 66.39 134, 0 134 M134 134 C93.69 134, 53.38 134, 0 134 M0 134 C0 98.18, 0 62.37, 0 0 M0 134 C0 104.07, 0 74.15, 0 0" stroke="#1e1e1e" stroke-width="4" fill="none"></path></g></svg>