<svg version="1.1" xmlns="http://www.w3.org/2000/svg" viewBox="0 0 154 154" width="154" height="154">
  <!-- svg-source:excalidraw -->
  
  <defs>
    <style class="style-fonts">
      @font-face {
        font-family: "Virgil";
        src: url("https://excalidraw.com/Virgil.woff2");
      }
      @font-face {
        font-family: "Cascadia";
        src: url("https://excalidraw.com/Cascadia.woff2");
      }
    </style>
    
  </defs>
  <g stroke-linecap="round" transform="translate(10 10) rotate(0 67 67)"><path d="M0 0 L134 0 L134 134 L0 134" stroke="none" stroke-width="0" fill="#ffffff"></path><path d="M0 0 C44.35 0, 88.7 0, 134 0 M0 0 C29.04 0, 58.09 0, 134 0 M134 0 C134 38.49, 134 76.99, 134 134 M134 0 C134 46.71, 134 93.43, 134 134 M134 134 C98.56 134, 63.13 134, 0 134 M134 134 C94.85 134, 55.7 134, 0 134 M0 134 C0 106.3, 0 78.6, 0 0 M0 134 C0 86.51, 0 39.01, 0 0" stroke="#1e1e1e" stroke-width="4" fill="none"></path></g></svg>