<svg version="1.1" xmlns="http://www.w3.org/2000/svg" viewBox="0 0 154 154" width="154" height="154">
  <!-- svg-source:excalidraw -->
  
  <defs>
    <style class="style-fonts">
      @font-face {
        font-family: "Virgil";
        src: url("https://excalidraw.com/Virgil.woff2");
      }
      @font-face {
        font-family: "Cascadia";
        src: url("https://excalidraw.com/Cascadia.woff2");
      }
    </style>
    
  </defs>
  <g stroke-linecap="round" transform="translate(10 10) rotate(0 67 67)"><path d="M-1.78 0.03 L134.48 -1.05 L133.1 132.04 L-1.8 133.85" stroke="none" stroke-width="0" fill="#3bc9db"></path><path d="M-1.23 0.94 C46.08 -0.58, 94.58 0.19, 135.4 0.29 M0.32 -0.69 C40.2 0.86, 82.8 0.82, 134.93 0.11 M134.64 -0.75 C135.87 28.4, 133.64 56.01, 134.84 134.89 M133.96 0.09 C132.29 47.73, 133.99 93.67, 133.9 134.26 M132.72 133.1 C81.78 134.45, 26.11 133.5, -0.44 135.56 M134.65 133.47 C92.8 132.64, 52.05 133.62, -0.34 134.35 M-0.51 135.64 C-0.5 84.45, 0.91 30.77, -0.97 -1.2 M-0.06 133.88 C1.2 90.29, 0.52 46.22, -0.12 -0.25" stroke="#1e1e1e" stroke-width="4" fill="none"></path></g></svg>