<svg version="1.1" xmlns="http://www.w3.org/2000/svg" viewBox="0 0 81 81" width="81" height="81">
  <!-- svg-source:excalidraw -->
  
  <defs>
    <style class="style-fonts">
      @font-face {
        font-family: "Virgil";
        src: url("https://excalidraw.com/Virgil.woff2");
      }
      @font-face {
        font-family: "Cascadia";
        src: url("https://excalidraw.com/Cascadia.woff2");
      }
    </style>
    
  </defs>
  <g stroke-linecap="round" transform="translate(10 10) rotate(0 30.5 30.5)"><path d="M61 30.5 C61 32.27, 60.84 34.06, 60.54 35.8 C60.23 37.53, 59.76 39.27, 59.16 40.93 C58.56 42.59, 57.8 44.22, 56.91 45.75 C56.03 47.28, 55 48.75, 53.86 50.11 C52.73 51.46, 51.46 52.73, 50.11 53.86 C48.75 55, 47.28 56.03, 45.75 56.91 C44.22 57.8, 42.59 58.56, 40.93 59.16 C39.27 59.76, 37.53 60.23, 35.8 60.54 C34.06 60.84, 32.27 61, 30.5 61 C28.73 61, 26.94 60.84, 25.2 60.54 C23.47 60.23, 21.73 59.76, 20.07 59.16 C18.41 58.56, 16.78 57.8, 15.25 56.91 C13.72 56.03, 12.25 55, 10.89 53.86 C9.54 52.73, 8.27 51.46, 7.14 50.11 C6 48.75, 4.97 47.28, 4.09 45.75 C3.2 44.22, 2.44 42.59, 1.84 40.93 C1.24 39.27, 0.77 37.53, 0.46 35.8 C0.16 34.06, 0 32.27, 0 30.5 C0 28.73, 0.16 26.94, 0.46 25.2 C0.77 23.47, 1.24 21.73, 1.84 20.07 C2.44 18.41, 3.2 16.78, 4.09 15.25 C4.97 13.72, 6 12.25, 7.14 10.89 C8.27 9.54, 9.54 8.27, 10.89 7.14 C12.25 6, 13.72 4.97, 15.25 4.09 C16.78 3.2, 18.41 2.44, 20.07 1.84 C21.73 1.24, 23.47 0.77, 25.2 0.46 C26.94 0.16, 28.73 0, 30.5 0 C32.27 0, 34.06 0.16, 35.8 0.46 C37.53 0.77, 39.27 1.24, 40.93 1.84 C42.59 2.44, 44.22 3.2, 45.75 4.09 C47.28 4.97, 48.75 6, 50.11 7.14 C51.46 8.27, 52.73 9.54, 53.86 10.89 C55 12.25, 56.03 13.72, 56.91 15.25 C57.8 16.78, 58.56 18.41, 59.16 20.07 C59.76 21.73, 60.23 23.47, 60.54 25.2 C60.84 26.94, 60.92 29.62, 61 30.5 C61.08 31.38, 61.08 29.62, 61 30.5" stroke="none" stroke-width="0" fill="#868e96"></path><path d="M61 30.5 C61 32.27, 60.84 34.06, 60.54 35.8 C60.23 37.53, 59.76 39.27, 59.16 40.93 C58.56 42.59, 57.8 44.22, 56.91 45.75 C56.03 47.28, 55 48.75, 53.86 50.11 C52.73 51.46, 51.46 52.73, 50.11 53.86 C48.75 55, 47.28 56.03, 45.75 56.91 C44.22 57.8, 42.59 58.56, 40.93 59.16 C39.27 59.76, 37.53 60.23, 35.8 60.54 C34.06 60.84, 32.27 61, 30.5 61 C28.73 61, 26.94 60.84, 25.2 60.54 C23.47 60.23, 21.73 59.76, 20.07 59.16 C18.41 58.56, 16.78 57.8, 15.25 56.91 C13.72 56.03, 12.25 55, 10.89 53.86 C9.54 52.73, 8.27 51.46, 7.14 50.11 C6 48.75, 4.97 47.28, 4.09 45.75 C3.2 44.22, 2.44 42.59, 1.84 40.93 C1.24 39.27, 0.77 37.53, 0.46 35.8 C0.16 34.06, 0 32.27, 0 30.5 C0 28.73, 0.16 26.94, 0.46 25.2 C0.77 23.47, 1.24 21.73, 1.84 20.07 C2.44 18.41, 3.2 16.78, 4.09 15.25 C4.97 13.72, 6 12.25, 7.14 10.89 C8.27 9.54, 9.54 8.27, 10.89 7.14 C12.25 6, 13.72 4.97, 15.25 4.09 C16.78 3.2, 18.41 2.44, 20.07 1.84 C21.73 1.24, 23.47 0.77, 25.2 0.46 C26.94 0.16, 28.73 0, 30.5 0 C32.27 0, 34.06 0.16, 35.8 0.46 C37.53 0.77, 39.27 1.24, 40.93 1.84 C42.59 2.44, 44.22 3.2, 45.75 4.09 C47.28 4.97, 48.75 6, 50.11 7.14 C51.46 8.27, 52.73 9.54, 53.86 10.89 C55 12.25, 56.03 13.72, 56.91 15.25 C57.8 16.78, 58.56 18.41, 59.16 20.07 C59.76 21.73, 60.23 23.47, 60.54 25.2 C60.84 26.94, 60.92 29.62, 61 30.5 C61.08 31.38, 61.08 29.62, 61 30.5" stroke="#1e1e1e" stroke-width="2" fill="none"></path></g><g stroke-linecap="round" transform="translate(15.192203442373966 15.192203442373966) rotate(0 25.307796557626034 25.307796557626034)"><path d="M50.62 25.31 C50.62 26.77, 50.49 28.26, 50.23 29.7 C49.98 31.15, 49.59 32.59, 49.09 33.96 C48.59 35.34, 47.96 36.69, 47.22 37.96 C46.49 39.23, 45.64 40.45, 44.69 41.58 C43.75 42.7, 42.7 43.75, 41.58 44.69 C40.45 45.64, 39.23 46.49, 37.96 47.22 C36.69 47.96, 35.34 48.59, 33.96 49.09 C32.59 49.59, 31.15 49.98, 29.7 50.23 C28.26 50.49, 26.77 50.62, 25.31 50.62 C23.84 50.62, 22.36 50.49, 20.91 50.23 C19.47 49.98, 18.03 49.59, 16.65 49.09 C15.28 48.59, 13.92 47.96, 12.65 47.22 C11.39 46.49, 10.16 45.64, 9.04 44.69 C7.92 43.75, 6.86 42.7, 5.92 41.58 C4.98 40.45, 4.12 39.23, 3.39 37.96 C2.66 36.69, 2.03 35.34, 1.53 33.96 C1.03 32.59, 0.64 31.15, 0.38 29.7 C0.13 28.26, 0 26.77, 0 25.31 C0 23.84, 0.13 22.36, 0.38 20.91 C0.64 19.47, 1.03 18.03, 1.53 16.65 C2.03 15.28, 2.66 13.92, 3.39 12.65 C4.12 11.39, 4.98 10.16, 5.92 9.04 C6.86 7.92, 7.92 6.86, 9.04 5.92 C10.16 4.98, 11.39 4.12, 12.65 3.39 C13.92 2.66, 15.28 2.03, 16.65 1.53 C18.03 1.03, 19.47 0.64, 20.91 0.38 C22.36 0.13, 23.84 0, 25.31 0 C26.77 0, 28.26 0.13, 29.7 0.38 C31.15 0.64, 32.59 1.03, 33.96 1.53 C35.34 2.03, 36.69 2.66, 37.96 3.39 C39.23 4.12, 40.45 4.98, 41.58 5.92 C42.7 6.86, 43.75 7.92, 44.69 9.04 C45.64 10.16, 46.49 11.39, 47.22 12.65 C47.96 13.92, 48.59 15.28, 49.09 16.65 C49.59 18.03, 49.98 19.47, 50.23 20.91 C50.49 22.36, 50.55 24.58, 50.62 25.31 C50.68 26.04, 50.68 24.58, 50.62 25.31" stroke="none" stroke-width="0" fill="#ffffff"></path><path d="M50.62 25.31 C50.62 26.77, 50.49 28.26, 50.23 29.7 C49.98 31.15, 49.59 32.59, 49.09 33.96 C48.59 35.34, 47.96 36.69, 47.22 37.96 C46.49 39.23, 45.64 40.45, 44.69 41.58 C43.75 42.7, 42.7 43.75, 41.58 44.69 C40.45 45.64, 39.23 46.49, 37.96 47.22 C36.69 47.96, 35.34 48.59, 33.96 49.09 C32.59 49.59, 31.15 49.98, 29.7 50.23 C28.26 50.49, 26.77 50.62, 25.31 50.62 C23.84 50.62, 22.36 50.49, 20.91 50.23 C19.47 49.98, 18.03 49.59, 16.65 49.09 C15.28 48.59, 13.92 47.96, 12.65 47.22 C11.39 46.49, 10.16 45.64, 9.04 44.69 C7.92 43.75, 6.86 42.7, 5.92 41.58 C4.98 40.45, 4.12 39.23, 3.39 37.96 C2.66 36.69, 2.03 35.34, 1.53 33.96 C1.03 32.59, 0.64 31.15, 0.38 29.7 C0.13 28.26, 0 26.77, 0 25.31 C0 23.84, 0.13 22.36, 0.38 20.91 C0.64 19.47, 1.03 18.03, 1.53 16.65 C2.03 15.28, 2.66 13.92, 3.39 12.65 C4.12 11.39, 4.98 10.16, 5.92 9.04 C6.86 7.92, 7.92 6.86, 9.04 5.92 C10.16 4.98, 11.39 4.12, 12.65 3.39 C13.92 2.66, 15.28 2.03, 16.65 1.53 C18.03 1.03, 19.47 0.64, 20.91 0.38 C22.36 0.13, 23.84 0, 25.31 0 C26.77 0, 28.26 0.13, 29.7 0.38 C31.15 0.64, 32.59 1.03, 33.96 1.53 C35.34 2.03, 36.69 2.66, 37.96 3.39 C39.23 4.12, 40.45 4.98, 41.58 5.92 C42.7 6.86, 43.75 7.92, 44.69 9.04 C45.64 10.16, 46.49 11.39, 47.22 12.65 C47.96 13.92, 48.59 15.28, 49.09 16.65 C49.59 18.03, 49.98 19.47, 50.23 20.91 C50.49 22.36, 50.55 24.58, 50.62 25.31 C50.68 26.04, 50.68 24.58, 50.62 25.31" stroke="#1e1e1e" stroke-width="2" fill="none"></path></g></svg>