<svg version="1.1" xmlns="http://www.w3.org/2000/svg" viewBox="0 0 81 81" width="81" height="81">
  <!-- svg-source:excalidraw -->
  
  <defs>
    <style class="style-fonts">
      @font-face {
        font-family: "Virgil";
        src: url("https://excalidraw.com/Virgil.woff2");
      }
      @font-face {
        font-family: "Cascadia";
        src: url("https://excalidraw.com/Cascadia.woff2");
      }
    </style>
    
  </defs>
  <g stroke-linecap="round" transform="translate(10 10) rotate(0 30.5 30.5)"><path d="M36.4 0.17 C42.57 0.7, 48.5 5.21, 52.77 10.35 C57.03 15.49, 61.75 24.35, 61.99 31.03 C62.24 37.72, 58.67 45.42, 54.24 50.46 C49.82 55.5, 41.92 60.07, 35.44 61.28 C28.97 62.48, 20.88 60.96, 15.4 57.68 C9.91 54.4, 4.93 47.75, 2.53 41.59 C0.14 35.44, -0.97 26.84, 1.04 20.76 C3.04 14.69, 8.13 8.26, 14.55 5.13 C20.97 2.01, 34.82 2.44, 39.56 2 C44.3 1.56, 43.15 2.23, 43 2.5 M45.69 5.09 C51.4 7.72, 55.48 12.71, 57.94 18.47 C60.41 24.23, 62.47 33.08, 60.5 39.65 C58.53 46.21, 52.02 54.41, 46.12 57.87 C40.21 61.33, 31.58 61.62, 25.06 60.42 C18.54 59.21, 11.04 55.4, 7 50.64 C2.97 45.88, 0.77 38.51, 0.84 31.84 C0.91 25.16, 3.36 15.98, 7.41 10.59 C11.46 5.2, 18.84 0.71, 25.13 -0.52 C31.41 -1.74, 41.76 2.28, 45.14 3.24 C48.52 4.21, 45.65 4.75, 45.43 5.28" stroke="none" stroke-width="0" fill="#ffffff"></path><path d="M29.03 -0.64 C35.03 -1.15, 42.94 2.44, 48.03 6.4 C53.11 10.36, 57.83 16.86, 59.53 23.13 C61.23 29.4, 61.14 38.06, 58.22 44.04 C55.3 50.01, 48.19 56.22, 41.99 58.96 C35.8 61.7, 27.18 62.5, 21.05 60.47 C14.91 58.45, 8.54 52.4, 5.19 46.84 C1.83 41.27, 0.04 33.53, 0.92 27.07 C1.8 20.6, 5.07 12.38, 10.47 8.04 C15.86 3.7, 28.7 1.98, 33.28 1.01 C37.87 0.05, 37.79 1.84, 37.98 2.22 M23.11 1.71 C29.19 -0.23, 39.41 0.88, 45.1 3.82 C50.79 6.76, 54.58 13.49, 57.25 19.36 C59.91 25.22, 62.46 33.04, 61.08 38.99 C59.69 44.94, 54.44 51.63, 48.95 55.05 C43.46 58.47, 35.06 60.08, 28.13 59.53 C21.2 58.98, 11.86 56.18, 7.37 51.75 C2.88 47.33, 1.4 39.72, 1.19 32.99 C0.99 26.26, 2.56 16.84, 6.13 11.39 C9.69 5.93, 19.46 1.99, 22.57 0.28 C25.68 -1.43, 24.55 0.61, 24.76 1.15" stroke="#1e1e1e" stroke-width="4" fill="none"></path></g></svg>