<svg version="1.1" xmlns="http://www.w3.org/2000/svg" viewBox="0 0 81 81" width="81" height="81">
  <!-- svg-source:excalidraw -->
  
  <defs>
    <style class="style-fonts">
      @font-face {
        font-family: "Virgil";
        src: url("https://excalidraw.com/Virgil.woff2");
      }
      @font-face {
        font-family: "Cascadia";
        src: url("https://excalidraw.com/Cascadia.woff2");
      }
    </style>
    
  </defs>
  <g stroke-linecap="round" transform="translate(10 10) rotate(0 30.5 30.5)"><path d="M27.91 0.47 C34.13 -0.21, 43.06 1.72, 48.47 5.55 C53.87 9.38, 58.61 16.96, 60.33 23.44 C62.05 29.91, 61.83 38.69, 58.77 44.4 C55.71 50.1, 48.05 55.28, 41.99 57.68 C35.92 60.08, 28.71 60.68, 22.39 58.79 C16.07 56.9, 7.79 51.64, 4.05 46.34 C0.3 41.05, -0.9 33.31, -0.08 27.02 C0.74 20.74, 3.72 13.09, 8.95 8.64 C14.18 4.19, 27.18 1.56, 31.29 0.31 C35.4 -0.95, 33.76 0.77, 33.6 1.11 M35.78 -0.66 C41.79 0.17, 49.88 7.57, 53.92 12.66 C57.96 17.75, 60.12 23.29, 60 29.88 C59.87 36.46, 57.15 47.06, 53.18 52.16 C49.2 57.26, 42.34 59.92, 36.13 60.46 C29.93 61, 21.77 58.87, 15.94 55.4 C10.1 51.92, 3.31 45.59, 1.1 39.62 C-1.11 33.64, 0.45 25.65, 2.7 19.54 C4.96 13.43, 8.87 6.19, 14.63 2.96 C20.39 -0.28, 33.57 0.25, 37.25 0.11 C40.93 -0.02, 36.68 1.49, 36.71 2.15" stroke="none" stroke-width="0" fill="#e03131"></path><path d="M22.82 0.57 C28.85 -1.38, 37.97 0.5, 43.86 3.18 C49.74 5.85, 55.43 10.95, 58.15 16.62 C60.86 22.28, 61.68 30.83, 60.13 37.16 C58.57 43.49, 54.17 50.54, 48.83 54.61 C43.49 58.68, 34.77 61.85, 28.1 61.58 C21.43 61.3, 13.46 57.57, 8.8 52.96 C4.14 48.35, 0.89 40.46, 0.16 33.89 C-0.57 27.33, 0.46 18.97, 4.44 13.56 C8.42 8.15, 20.66 3.59, 24.05 1.45 C27.45 -0.7, 24.64 0.36, 24.83 0.68 M39.01 0.31 C45.21 1.32, 51.18 6.57, 54.82 11.76 C58.47 16.95, 61.31 24.72, 60.89 31.47 C60.47 38.23, 56.88 47.16, 52.32 52.27 C47.76 57.39, 40.08 61.35, 33.52 62.17 C26.96 63, 18.53 61.13, 12.96 57.23 C7.4 53.32, 1.67 45.31, 0.11 38.74 C-1.44 32.18, 0.69 23.64, 3.62 17.85 C6.54 12.06, 12.12 6.97, 17.66 4.01 C23.19 1.05, 33.62 0.54, 36.83 0.08 C40.03 -0.37, 36.95 0.86, 36.89 1.27" stroke="#1e1e1e" stroke-width="4" fill="none"></path></g></svg>