<svg version="1.1" xmlns="http://www.w3.org/2000/svg" viewBox="0 0 81 81" width="81" height="81">
  <!-- svg-source:excalidraw -->
  
  <defs>
    <style class="style-fonts">
      @font-face {
        font-family: "Virgil";
        src: url("https://excalidraw.com/Virgil.woff2");
      }
      @font-face {
        font-family: "Cascadia";
        src: url("https://excalidraw.com/Cascadia.woff2");
      }
    </style>
    
  </defs>
  <g stroke-linecap="round" transform="translate(10 10) rotate(0 30.5 30.5)"><path d="M24.69 1.03 C30.52 -0.88, 38 -0.23, 43.75 2.55 C49.5 5.33, 56.7 11.7, 59.18 17.7 C61.66 23.69, 60.72 32.11, 58.65 38.51 C56.58 44.91, 52.2 52.36, 46.78 56.12 C41.36 59.88, 32.56 61.81, 26.15 61.05 C19.73 60.29, 12.64 56.34, 8.3 51.56 C3.95 46.78, 0.57 39.08, 0.09 32.38 C-0.4 25.68, 0.71 16.71, 5.39 11.37 C10.07 6.04, 23.63 2.26, 28.2 0.37 C32.76 -1.51, 32.95 -0.35, 32.78 0.06 M41.23 3.4 C47.54 5.45, 54.89 10.13, 58.33 15.43 C61.78 20.72, 63.39 28.8, 61.89 35.17 C60.38 41.54, 54.52 49.31, 49.3 53.66 C44.09 58.01, 37.3 61.42, 30.61 61.28 C23.92 61.15, 14.11 57.27, 9.17 52.87 C4.23 48.46, 1.77 41.02, 0.99 34.84 C0.21 28.66, 1.01 21.24, 4.5 15.79 C7.98 10.34, 15.95 4.63, 21.88 2.14 C27.81 -0.35, 36.75 0.69, 40.08 0.85 C43.4 1.01, 41.64 2.49, 41.83 3.1" stroke="none" stroke-width="0" fill="#ffffff"></path><path d="M37.02 -0.3 C43.26 0.63, 51.22 5.62, 55.21 11.06 C59.21 16.49, 61.39 25.54, 60.99 32.31 C60.58 39.08, 57.18 46.87, 52.8 51.68 C48.41 56.5, 41.26 60.37, 34.69 61.2 C28.11 62.03, 18.81 60.11, 13.34 56.67 C7.86 53.23, 3.72 46.88, 1.82 40.53 C-0.08 34.18, -0.63 24.82, 1.91 18.59 C4.46 12.37, 10.36 5.99, 17.08 3.16 C23.79 0.34, 37.43 1.23, 42.21 1.66 C47 2.09, 46.13 5.22, 45.8 5.74 M23.21 1.52 C29.12 0.09, 38.07 1.54, 43.85 4.58 C49.63 7.62, 55.43 14.03, 57.9 19.75 C60.36 25.47, 60.22 32.94, 58.62 38.92 C57.03 44.89, 53.49 51.8, 48.33 55.59 C43.17 59.39, 34.46 62.48, 27.65 61.66 C20.83 60.84, 12.14 55.59, 7.42 50.67 C2.71 45.75, -0.32 38.72, -0.66 32.12 C-0.99 25.51, 1.43 16.4, 5.42 11.05 C9.4 5.7, 20.27 1.76, 23.26 0.03 C26.26 -1.7, 23.49 0.23, 23.39 0.67" stroke="#1e1e1e" stroke-width="4" fill="none"></path></g></svg>