<svg version="1.1" xmlns="http://www.w3.org/2000/svg" viewBox="0 0 81 81" width="81" height="81">
  <!-- svg-source:excalidraw -->
  
  <defs>
    <style class="style-fonts">
      @font-face {
        font-family: "Virgil";
        src: url("https://excalidraw.com/Virgil.woff2");
      }
      @font-face {
        font-family: "Cascadia";
        src: url("https://excalidraw.com/Cascadia.woff2");
      }
    </style>
    
  </defs>
  <g stroke-linecap="round" transform="translate(10 10) rotate(0 30.5 30.5)"><path d="M24.85 1 C30.58 -0.68, 38.54 0.65, 44.09 3.82 C49.65 7, 55.77 14.14, 58.19 20.05 C60.61 25.96, 60.46 33.08, 58.62 39.28 C56.77 45.49, 52.6 53.8, 47.11 57.28 C41.61 60.76, 32.08 61.26, 25.66 60.14 C19.24 59.03, 12.88 55.18, 8.57 50.57 C4.26 45.97, 0.26 39, -0.19 32.5 C-0.65 26, 1.19 16.99, 5.83 11.58 C10.46 6.17, 23.17 1.81, 27.62 0.05 C32.07 -1.71, 32.34 0.59, 32.54 1.01 M37.18 1.51 C43.67 2.61, 52.1 7.47, 56.08 12.58 C60.05 17.69, 61.59 25.59, 61.04 32.16 C60.49 38.73, 57.46 47.42, 52.77 51.99 C48.08 56.56, 39.18 58.72, 32.91 59.56 C26.64 60.4, 20.19 60.2, 15.15 57.03 C10.12 53.86, 4.76 47.22, 2.68 40.54 C0.61 33.86, 0.28 22.97, 2.69 16.93 C5.11 10.9, 11.26 7.09, 17.16 4.32 C23.06 1.54, 34.52 0.68, 38.11 0.28 C41.7 -0.12, 38.99 1.28, 38.72 1.93" stroke="none" stroke-width="0" fill="#e03131"></path><path d="M42.34 1.61 C48.38 3.73, 54.73 11, 57.76 16.72 C60.79 22.44, 61.84 29.53, 60.52 35.91 C59.19 42.3, 54.93 50.78, 49.81 55.05 C44.69 59.33, 36.25 61.74, 29.81 61.55 C23.38 61.36, 16.23 58.19, 11.19 53.93 C6.15 49.67, 0.58 42.51, -0.41 35.97 C-1.4 29.44, 1.58 20.53, 5.25 14.72 C8.93 8.91, 14.49 2.85, 21.63 1.11 C28.77 -0.63, 43.12 2.81, 48.09 4.3 C53.06 5.78, 51.69 9.4, 51.43 10.02 M32.36 1.5 C38.71 1.7, 46.91 4.13, 51.6 8.7 C56.29 13.27, 59.94 22.31, 60.51 28.92 C61.08 35.52, 58.88 43.08, 55.03 48.32 C51.19 53.56, 43.41 58.75, 37.44 60.35 C31.46 61.94, 25.15 60.74, 19.17 57.87 C13.2 55, 4.39 48.75, 1.61 43.12 C-1.17 37.49, 0.56 30.18, 2.48 24.08 C4.4 17.99, 8.19 10.34, 13.1 6.54 C18.01 2.74, 28.68 2.12, 31.95 1.3 C35.22 0.48, 32.44 1.22, 32.71 1.62" stroke="#1e1e1e" stroke-width="4" fill="none"></path></g></svg>