<svg version="1.1" xmlns="http://www.w3.org/2000/svg" viewBox="0 0 401.56537755390457 481.9426458722945" width="401.56537755390457" height="481.9426458722945">
  <!-- svg-source:excalidraw -->
  
  <defs>
    <style class="style-fonts">
      @font-face {
        font-family: "Virgil";
        src: url("https://excalidraw.com/Virgil.woff2");
      }
      @font-face {
        font-family: "Cascadia";
        src: url("https://excalidraw.com/Cascadia.woff2");
      }
    </style>
    
  </defs>
  <g stroke-linecap="round" transform="translate(10 10) rotate(0 190.78268877695228 230.97132293614726)"><path d="M0 0 L381.57 0 L381.57 461.94 L0 461.94" stroke="none" stroke-width="0" fill="#868e96"></path><path d="M0 0 C78.86 0, 157.71 0, 381.57 0 M0 0 C100.88 0, 201.77 0, 381.57 0 M381.57 0 C381.57 168.9, 381.57 337.8, 381.57 461.94 M381.57 0 C381.57 131.06, 381.57 262.12, 381.57 461.94 M381.57 461.94 C262.11 461.94, 142.66 461.94, 0 461.94 M381.57 461.94 C275.3 461.94, 169.04 461.94, 0 461.94 M0 461.94 C0 337.05, 0 212.16, 0 0 M0 461.94 C0 318.17, 0 174.39, 0 0" stroke="#343a40" stroke-width="2" fill="none"></path></g><g stroke-linecap="round" transform="translate(20.514413771318686 19.6916752138942) rotate(0 180.26827500563348 221.279647722253)"><path d="M0 0 L360.54 0 L360.54 442.56 L0 442.56" stroke="none" stroke-width="0" fill="#ced4da"></path><path d="M0 0 C74.65 0, 149.29 0, 360.54 0 M0 0 C141.88 0, 283.75 0, 360.54 0 M360.54 0 C360.54 152.41, 360.54 304.83, 360.54 442.56 M360.54 0 C360.54 156.89, 360.54 313.78, 360.54 442.56 M360.54 442.56 C220.93 442.56, 81.33 442.56, 0 442.56 M360.54 442.56 C267.88 442.56, 175.23 442.56, 0 442.56 M0 442.56 C0 281.02, 0 119.47, 0 0 M0 442.56 C0 279.06, 0 115.55, 0 0" stroke="#343a40" stroke-width="2" fill="none"></path></g><g stroke-linecap="round" transform="translate(363.684643177707 36.39361680406927) rotate(0 2.7435318446106294 2.7435318446106294)"><path d="M5.49 2.74 C5.49 2.9, 5.47 3.06, 5.45 3.22 C5.42 3.38, 5.38 3.53, 5.32 3.68 C5.27 3.83, 5.2 3.98, 5.12 4.12 C5.04 4.25, 4.95 4.39, 4.85 4.51 C4.74 4.63, 4.63 4.74, 4.51 4.85 C4.39 4.95, 4.25 5.04, 4.12 5.12 C3.98 5.2, 3.83 5.27, 3.68 5.32 C3.53 5.38, 3.38 5.42, 3.22 5.45 C3.06 5.47, 2.9 5.49, 2.74 5.49 C2.58 5.49, 2.42 5.47, 2.27 5.45 C2.11 5.42, 1.95 5.38, 1.81 5.32 C1.66 5.27, 1.51 5.2, 1.37 5.12 C1.23 5.04, 1.1 4.95, 0.98 4.85 C0.86 4.74, 0.74 4.63, 0.64 4.51 C0.54 4.39, 0.45 4.25, 0.37 4.12 C0.29 3.98, 0.22 3.83, 0.17 3.68 C0.11 3.53, 0.07 3.38, 0.04 3.22 C0.01 3.06, 0 2.9, 0 2.74 C0 2.58, 0.01 2.42, 0.04 2.27 C0.07 2.11, 0.11 1.95, 0.17 1.81 C0.22 1.66, 0.29 1.51, 0.37 1.37 C0.45 1.23, 0.54 1.1, 0.64 0.98 C0.74 0.86, 0.86 0.74, 0.98 0.64 C1.1 0.54, 1.23 0.45, 1.37 0.37 C1.51 0.29, 1.66 0.22, 1.81 0.17 C1.95 0.11, 2.11 0.07, 2.27 0.04 C2.42 0.01, 2.58 0, 2.74 0 C2.9 0, 3.06 0.01, 3.22 0.04 C3.38 0.07, 3.53 0.11, 3.68 0.17 C3.83 0.22, 3.98 0.29, 4.12 0.37 C4.25 0.45, 4.39 0.54, 4.51 0.64 C4.63 0.74, 4.74 0.86, 4.85 0.98 C4.95 1.1, 5.04 1.23, 5.12 1.37 C5.2 1.51, 5.27 1.66, 5.32 1.81 C5.38 1.95, 5.42 2.11, 5.45 2.27 C5.47 2.42, 5.48 2.66, 5.49 2.74 C5.49 2.82, 5.49 2.66, 5.49 2.74" stroke="none" stroke-width="0" fill="#868e96"></path><path d="M5.49 2.74 C5.49 2.9, 5.47 3.06, 5.45 3.22 C5.42 3.38, 5.38 3.53, 5.32 3.68 C5.27 3.83, 5.2 3.98, 5.12 4.12 C5.04 4.25, 4.95 4.39, 4.85 4.51 C4.74 4.63, 4.63 4.74, 4.51 4.85 C4.39 4.95, 4.25 5.04, 4.12 5.12 C3.98 5.2, 3.83 5.27, 3.68 5.32 C3.53 5.38, 3.38 5.42, 3.22 5.45 C3.06 5.47, 2.9 5.49, 2.74 5.49 C2.58 5.49, 2.42 5.47, 2.27 5.45 C2.11 5.42, 1.95 5.38, 1.81 5.32 C1.66 5.27, 1.51 5.2, 1.37 5.12 C1.23 5.04, 1.1 4.95, 0.98 4.85 C0.86 4.74, 0.74 4.63, 0.64 4.51 C0.54 4.39, 0.45 4.25, 0.37 4.12 C0.29 3.98, 0.22 3.83, 0.17 3.68 C0.11 3.53, 0.07 3.38, 0.04 3.22 C0.01 3.06, 0 2.9, 0 2.74 C0 2.58, 0.01 2.42, 0.04 2.27 C0.07 2.11, 0.11 1.95, 0.17 1.81 C0.22 1.66, 0.29 1.51, 0.37 1.37 C0.45 1.23, 0.54 1.1, 0.64 0.98 C0.74 0.86, 0.86 0.74, 0.98 0.64 C1.1 0.54, 1.23 0.45, 1.37 0.37 C1.51 0.29, 1.66 0.22, 1.81 0.17 C1.95 0.11, 2.11 0.07, 2.27 0.04 C2.42 0.01, 2.58 0, 2.74 0 C2.9 0, 3.06 0.01, 3.22 0.04 C3.38 0.07, 3.53 0.11, 3.68 0.17 C3.83 0.22, 3.98 0.29, 4.12 0.37 C4.25 0.45, 4.39 0.54, 4.51 0.64 C4.63 0.74, 4.74 0.86, 4.85 0.98 C4.95 1.1, 5.04 1.23, 5.12 1.37 C5.2 1.51, 5.27 1.66, 5.32 1.81 C5.38 1.95, 5.42 2.11, 5.45 2.27 C5.47 2.42, 5.48 2.66, 5.49 2.74 C5.49 2.82, 5.49 2.66, 5.49 2.74" stroke="#343a40" stroke-width="1" fill="none"></path></g><g stroke-linecap="round" transform="translate(363.684643177707 60.13881377906546) rotate(0 2.7435318446106294 2.7435318446106294)"><path d="M5.49 2.74 C5.49 2.9, 5.47 3.06, 5.45 3.22 C5.42 3.38, 5.38 3.53, 5.32 3.68 C5.27 3.83, 5.2 3.98, 5.12 4.12 C5.04 4.25, 4.95 4.39, 4.85 4.51 C4.74 4.63, 4.63 4.74, 4.51 4.85 C4.39 4.95, 4.25 5.04, 4.12 5.12 C3.98 5.2, 3.83 5.27, 3.68 5.32 C3.53 5.38, 3.38 5.42, 3.22 5.45 C3.06 5.47, 2.9 5.49, 2.74 5.49 C2.58 5.49, 2.42 5.47, 2.27 5.45 C2.11 5.42, 1.95 5.38, 1.81 5.32 C1.66 5.27, 1.51 5.2, 1.37 5.12 C1.23 5.04, 1.1 4.95, 0.98 4.85 C0.86 4.74, 0.74 4.63, 0.64 4.51 C0.54 4.39, 0.45 4.25, 0.37 4.12 C0.29 3.98, 0.22 3.83, 0.17 3.68 C0.11 3.53, 0.07 3.38, 0.04 3.22 C0.01 3.06, 0 2.9, 0 2.74 C0 2.58, 0.01 2.42, 0.04 2.27 C0.07 2.11, 0.11 1.95, 0.17 1.81 C0.22 1.66, 0.29 1.51, 0.37 1.37 C0.45 1.23, 0.54 1.1, 0.64 0.98 C0.74 0.86, 0.86 0.74, 0.98 0.64 C1.1 0.54, 1.23 0.45, 1.37 0.37 C1.51 0.29, 1.66 0.22, 1.81 0.17 C1.95 0.11, 2.11 0.07, 2.27 0.04 C2.42 0.01, 2.58 0, 2.74 0 C2.9 0, 3.06 0.01, 3.22 0.04 C3.38 0.07, 3.53 0.11, 3.68 0.17 C3.83 0.22, 3.98 0.29, 4.12 0.37 C4.25 0.45, 4.39 0.54, 4.51 0.64 C4.63 0.74, 4.74 0.86, 4.85 0.98 C4.95 1.1, 5.04 1.23, 5.12 1.37 C5.2 1.51, 5.27 1.66, 5.32 1.81 C5.38 1.95, 5.42 2.11, 5.45 2.27 C5.47 2.42, 5.48 2.66, 5.49 2.74 C5.49 2.82, 5.49 2.66, 5.49 2.74" stroke="none" stroke-width="0" fill="#868e96"></path><path d="M5.49 2.74 C5.49 2.9, 5.47 3.06, 5.45 3.22 C5.42 3.38, 5.38 3.53, 5.32 3.68 C5.27 3.83, 5.2 3.98, 5.12 4.12 C5.04 4.25, 4.95 4.39, 4.85 4.51 C4.74 4.63, 4.63 4.74, 4.51 4.85 C4.39 4.95, 4.25 5.04, 4.12 5.12 C3.98 5.2, 3.83 5.27, 3.68 5.32 C3.53 5.38, 3.38 5.42, 3.22 5.45 C3.06 5.47, 2.9 5.49, 2.74 5.49 C2.58 5.49, 2.42 5.47, 2.27 5.45 C2.11 5.42, 1.95 5.38, 1.81 5.32 C1.66 5.27, 1.51 5.2, 1.37 5.12 C1.23 5.04, 1.1 4.95, 0.98 4.85 C0.86 4.74, 0.74 4.63, 0.64 4.51 C0.54 4.39, 0.45 4.25, 0.37 4.12 C0.29 3.98, 0.22 3.83, 0.17 3.68 C0.11 3.53, 0.07 3.38, 0.04 3.22 C0.01 3.06, 0 2.9, 0 2.74 C0 2.58, 0.01 2.42, 0.04 2.27 C0.07 2.11, 0.11 1.95, 0.17 1.81 C0.22 1.66, 0.29 1.51, 0.37 1.37 C0.45 1.23, 0.54 1.1, 0.64 0.98 C0.74 0.86, 0.86 0.74, 0.98 0.64 C1.1 0.54, 1.23 0.45, 1.37 0.37 C1.51 0.29, 1.66 0.22, 1.81 0.17 C1.95 0.11, 2.11 0.07, 2.27 0.04 C2.42 0.01, 2.58 0, 2.74 0 C2.9 0, 3.06 0.01, 3.22 0.04 C3.38 0.07, 3.53 0.11, 3.68 0.17 C3.83 0.22, 3.98 0.29, 4.12 0.37 C4.25 0.45, 4.39 0.54, 4.51 0.64 C4.63 0.74, 4.74 0.86, 4.85 0.98 C4.95 1.1, 5.04 1.23, 5.12 1.37 C5.2 1.51, 5.27 1.66, 5.32 1.81 C5.38 1.95, 5.42 2.11, 5.45 2.27 C5.47 2.42, 5.48 2.66, 5.49 2.74 C5.49 2.82, 5.49 2.66, 5.49 2.74" stroke="#343a40" stroke-width="1" fill="none"></path></g><g stroke-linecap="round" transform="translate(363.684643177707 83.88401075406165) rotate(0 2.7435318446106294 2.7435318446106294)"><path d="M5.49 2.74 C5.49 2.9, 5.47 3.06, 5.45 3.22 C5.42 3.38, 5.38 3.53, 5.32 3.68 C5.27 3.83, 5.2 3.98, 5.12 4.12 C5.04 4.25, 4.95 4.39, 4.85 4.51 C4.74 4.63, 4.63 4.74, 4.51 4.85 C4.39 4.95, 4.25 5.04, 4.12 5.12 C3.98 5.2, 3.83 5.27, 3.68 5.32 C3.53 5.38, 3.38 5.42, 3.22 5.45 C3.06 5.47, 2.9 5.49, 2.74 5.49 C2.58 5.49, 2.42 5.47, 2.27 5.45 C2.11 5.42, 1.95 5.38, 1.81 5.32 C1.66 5.27, 1.51 5.2, 1.37 5.12 C1.23 5.04, 1.1 4.95, 0.98 4.85 C0.86 4.74, 0.74 4.63, 0.64 4.51 C0.54 4.39, 0.45 4.25, 0.37 4.12 C0.29 3.98, 0.22 3.83, 0.17 3.68 C0.11 3.53, 0.07 3.38, 0.04 3.22 C0.01 3.06, 0 2.9, 0 2.74 C0 2.58, 0.01 2.42, 0.04 2.27 C0.07 2.11, 0.11 1.95, 0.17 1.81 C0.22 1.66, 0.29 1.51, 0.37 1.37 C0.45 1.23, 0.54 1.1, 0.64 0.98 C0.74 0.86, 0.86 0.74, 0.98 0.64 C1.1 0.54, 1.23 0.45, 1.37 0.37 C1.51 0.29, 1.66 0.22, 1.81 0.17 C1.95 0.11, 2.11 0.07, 2.27 0.04 C2.42 0.01, 2.58 0, 2.74 0 C2.9 0, 3.06 0.01, 3.22 0.04 C3.38 0.07, 3.53 0.11, 3.68 0.17 C3.83 0.22, 3.98 0.29, 4.12 0.37 C4.25 0.45, 4.39 0.54, 4.51 0.64 C4.63 0.74, 4.74 0.86, 4.85 0.98 C4.95 1.1, 5.04 1.23, 5.12 1.37 C5.2 1.51, 5.27 1.66, 5.32 1.81 C5.38 1.95, 5.42 2.11, 5.45 2.27 C5.47 2.42, 5.48 2.66, 5.49 2.74 C5.49 2.82, 5.49 2.66, 5.49 2.74" stroke="none" stroke-width="0" fill="#868e96"></path><path d="M5.49 2.74 C5.49 2.9, 5.47 3.06, 5.45 3.22 C5.42 3.38, 5.38 3.53, 5.32 3.68 C5.27 3.83, 5.2 3.98, 5.12 4.12 C5.04 4.25, 4.95 4.39, 4.85 4.51 C4.74 4.63, 4.63 4.74, 4.51 4.85 C4.39 4.95, 4.25 5.04, 4.12 5.12 C3.98 5.2, 3.83 5.27, 3.68 5.32 C3.53 5.38, 3.38 5.42, 3.22 5.45 C3.06 5.47, 2.9 5.49, 2.74 5.49 C2.58 5.49, 2.42 5.47, 2.27 5.45 C2.11 5.42, 1.95 5.38, 1.81 5.32 C1.66 5.27, 1.51 5.2, 1.37 5.12 C1.23 5.04, 1.1 4.95, 0.98 4.85 C0.86 4.74, 0.74 4.63, 0.64 4.51 C0.54 4.39, 0.45 4.25, 0.37 4.12 C0.29 3.98, 0.22 3.83, 0.17 3.68 C0.11 3.53, 0.07 3.38, 0.04 3.22 C0.01 3.06, 0 2.9, 0 2.74 C0 2.58, 0.01 2.42, 0.04 2.27 C0.07 2.11, 0.11 1.95, 0.17 1.81 C0.22 1.66, 0.29 1.51, 0.37 1.37 C0.45 1.23, 0.54 1.1, 0.64 0.98 C0.74 0.86, 0.86 0.74, 0.98 0.64 C1.1 0.54, 1.23 0.45, 1.37 0.37 C1.51 0.29, 1.66 0.22, 1.81 0.17 C1.95 0.11, 2.11 0.07, 2.27 0.04 C2.42 0.01, 2.58 0, 2.74 0 C2.9 0, 3.06 0.01, 3.22 0.04 C3.38 0.07, 3.53 0.11, 3.68 0.17 C3.83 0.22, 3.98 0.29, 4.12 0.37 C4.25 0.45, 4.39 0.54, 4.51 0.64 C4.63 0.74, 4.74 0.86, 4.85 0.98 C4.95 1.1, 5.04 1.23, 5.12 1.37 C5.2 1.51, 5.27 1.66, 5.32 1.81 C5.38 1.95, 5.42 2.11, 5.45 2.27 C5.47 2.42, 5.48 2.66, 5.49 2.74 C5.49 2.82, 5.49 2.66, 5.49 2.74" stroke="#343a40" stroke-width="1" fill="none"></path></g><g stroke-linecap="round" transform="translate(363.684643177707 107.62920772905784) rotate(0 2.7435318446106294 2.7435318446106294)"><path d="M5.49 2.74 C5.49 2.9, 5.47 3.06, 5.45 3.22 C5.42 3.38, 5.38 3.53, 5.32 3.68 C5.27 3.83, 5.2 3.98, 5.12 4.12 C5.04 4.25, 4.95 4.39, 4.85 4.51 C4.74 4.63, 4.63 4.74, 4.51 4.85 C4.39 4.95, 4.25 5.04, 4.12 5.12 C3.98 5.2, 3.83 5.27, 3.68 5.32 C3.53 5.38, 3.38 5.42, 3.22 5.45 C3.06 5.47, 2.9 5.49, 2.74 5.49 C2.58 5.49, 2.42 5.47, 2.27 5.45 C2.11 5.42, 1.95 5.38, 1.81 5.32 C1.66 5.27, 1.51 5.2, 1.37 5.12 C1.23 5.04, 1.1 4.95, 0.98 4.85 C0.86 4.74, 0.74 4.63, 0.64 4.51 C0.54 4.39, 0.45 4.25, 0.37 4.12 C0.29 3.98, 0.22 3.83, 0.17 3.68 C0.11 3.53, 0.07 3.38, 0.04 3.22 C0.01 3.06, 0 2.9, 0 2.74 C0 2.58, 0.01 2.42, 0.04 2.27 C0.07 2.11, 0.11 1.95, 0.17 1.81 C0.22 1.66, 0.29 1.51, 0.37 1.37 C0.45 1.23, 0.54 1.1, 0.64 0.98 C0.74 0.86, 0.86 0.74, 0.98 0.64 C1.1 0.54, 1.23 0.45, 1.37 0.37 C1.51 0.29, 1.66 0.22, 1.81 0.17 C1.95 0.11, 2.11 0.07, 2.27 0.04 C2.42 0.01, 2.58 0, 2.74 0 C2.9 0, 3.06 0.01, 3.22 0.04 C3.38 0.07, 3.53 0.11, 3.68 0.17 C3.83 0.22, 3.98 0.29, 4.12 0.37 C4.25 0.45, 4.39 0.54, 4.51 0.64 C4.63 0.74, 4.74 0.86, 4.85 0.98 C4.95 1.1, 5.04 1.23, 5.12 1.37 C5.2 1.51, 5.27 1.66, 5.32 1.81 C5.38 1.95, 5.42 2.11, 5.45 2.27 C5.47 2.42, 5.48 2.66, 5.49 2.74 C5.49 2.82, 5.49 2.66, 5.49 2.74" stroke="none" stroke-width="0" fill="#868e96"></path><path d="M5.49 2.74 C5.49 2.9, 5.47 3.06, 5.45 3.22 C5.42 3.38, 5.38 3.53, 5.32 3.68 C5.27 3.83, 5.2 3.98, 5.12 4.12 C5.04 4.25, 4.95 4.39, 4.85 4.51 C4.74 4.63, 4.63 4.74, 4.51 4.85 C4.39 4.95, 4.25 5.04, 4.12 5.12 C3.98 5.2, 3.83 5.27, 3.68 5.32 C3.53 5.38, 3.38 5.42, 3.22 5.45 C3.06 5.47, 2.9 5.49, 2.74 5.49 C2.58 5.49, 2.42 5.47, 2.27 5.45 C2.11 5.42, 1.95 5.38, 1.81 5.32 C1.66 5.27, 1.51 5.2, 1.37 5.12 C1.23 5.04, 1.1 4.95, 0.98 4.85 C0.86 4.74, 0.74 4.63, 0.64 4.51 C0.54 4.39, 0.45 4.25, 0.37 4.12 C0.29 3.98, 0.22 3.83, 0.17 3.68 C0.11 3.53, 0.07 3.38, 0.04 3.22 C0.01 3.06, 0 2.9, 0 2.74 C0 2.58, 0.01 2.42, 0.04 2.27 C0.07 2.11, 0.11 1.95, 0.17 1.81 C0.22 1.66, 0.29 1.51, 0.37 1.37 C0.45 1.23, 0.54 1.1, 0.64 0.98 C0.74 0.86, 0.86 0.74, 0.98 0.64 C1.1 0.54, 1.23 0.45, 1.37 0.37 C1.51 0.29, 1.66 0.22, 1.81 0.17 C1.95 0.11, 2.11 0.07, 2.27 0.04 C2.42 0.01, 2.58 0, 2.74 0 C2.9 0, 3.06 0.01, 3.22 0.04 C3.38 0.07, 3.53 0.11, 3.68 0.17 C3.83 0.22, 3.98 0.29, 4.12 0.37 C4.25 0.45, 4.39 0.54, 4.51 0.64 C4.63 0.74, 4.74 0.86, 4.85 0.98 C4.95 1.1, 5.04 1.23, 5.12 1.37 C5.2 1.51, 5.27 1.66, 5.32 1.81 C5.38 1.95, 5.42 2.11, 5.45 2.27 C5.47 2.42, 5.48 2.66, 5.49 2.74 C5.49 2.82, 5.49 2.66, 5.49 2.74" stroke="#343a40" stroke-width="1" fill="none"></path></g><g stroke-linecap="round" transform="translate(363.684643177707 131.37440470405403) rotate(0 2.7435318446106294 2.7435318446106294)"><path d="M5.49 2.74 C5.49 2.9, 5.47 3.06, 5.45 3.22 C5.42 3.38, 5.38 3.53, 5.32 3.68 C5.27 3.83, 5.2 3.98, 5.12 4.12 C5.04 4.25, 4.95 4.39, 4.85 4.51 C4.74 4.63, 4.63 4.74, 4.51 4.85 C4.39 4.95, 4.25 5.04, 4.12 5.12 C3.98 5.2, 3.83 5.27, 3.68 5.32 C3.53 5.38, 3.38 5.42, 3.22 5.45 C3.06 5.47, 2.9 5.49, 2.74 5.49 C2.58 5.49, 2.42 5.47, 2.27 5.45 C2.11 5.42, 1.95 5.38, 1.81 5.32 C1.66 5.27, 1.51 5.2, 1.37 5.12 C1.23 5.04, 1.1 4.95, 0.98 4.85 C0.86 4.74, 0.74 4.63, 0.64 4.51 C0.54 4.39, 0.45 4.25, 0.37 4.12 C0.29 3.98, 0.22 3.83, 0.17 3.68 C0.11 3.53, 0.07 3.38, 0.04 3.22 C0.01 3.06, 0 2.9, 0 2.74 C0 2.58, 0.01 2.42, 0.04 2.27 C0.07 2.11, 0.11 1.95, 0.17 1.81 C0.22 1.66, 0.29 1.51, 0.37 1.37 C0.45 1.23, 0.54 1.1, 0.64 0.98 C0.74 0.86, 0.86 0.74, 0.98 0.64 C1.1 0.54, 1.23 0.45, 1.37 0.37 C1.51 0.29, 1.66 0.22, 1.81 0.17 C1.95 0.11, 2.11 0.07, 2.27 0.04 C2.42 0.01, 2.58 0, 2.74 0 C2.9 0, 3.06 0.01, 3.22 0.04 C3.38 0.07, 3.53 0.11, 3.68 0.17 C3.83 0.22, 3.98 0.29, 4.12 0.37 C4.25 0.45, 4.39 0.54, 4.51 0.64 C4.63 0.74, 4.74 0.86, 4.85 0.98 C4.95 1.1, 5.04 1.23, 5.12 1.37 C5.2 1.51, 5.27 1.66, 5.32 1.81 C5.38 1.95, 5.42 2.11, 5.45 2.27 C5.47 2.42, 5.48 2.66, 5.49 2.74 C5.49 2.82, 5.49 2.66, 5.49 2.74" stroke="none" stroke-width="0" fill="#868e96"></path><path d="M5.49 2.74 C5.49 2.9, 5.47 3.06, 5.45 3.22 C5.42 3.38, 5.38 3.53, 5.32 3.68 C5.27 3.83, 5.2 3.98, 5.12 4.12 C5.04 4.25, 4.95 4.39, 4.85 4.51 C4.74 4.63, 4.63 4.74, 4.51 4.85 C4.39 4.95, 4.25 5.04, 4.12 5.12 C3.98 5.2, 3.83 5.27, 3.68 5.32 C3.53 5.38, 3.38 5.42, 3.22 5.45 C3.06 5.47, 2.9 5.49, 2.74 5.49 C2.58 5.49, 2.42 5.47, 2.27 5.45 C2.11 5.42, 1.95 5.38, 1.81 5.32 C1.66 5.27, 1.51 5.2, 1.37 5.12 C1.23 5.04, 1.1 4.95, 0.98 4.85 C0.86 4.74, 0.74 4.63, 0.64 4.51 C0.54 4.39, 0.45 4.25, 0.37 4.12 C0.29 3.98, 0.22 3.83, 0.17 3.68 C0.11 3.53, 0.07 3.38, 0.04 3.22 C0.01 3.06, 0 2.9, 0 2.74 C0 2.58, 0.01 2.42, 0.04 2.27 C0.07 2.11, 0.11 1.95, 0.17 1.81 C0.22 1.66, 0.29 1.51, 0.37 1.37 C0.45 1.23, 0.54 1.1, 0.64 0.98 C0.74 0.86, 0.86 0.74, 0.98 0.64 C1.1 0.54, 1.23 0.45, 1.37 0.37 C1.51 0.29, 1.66 0.22, 1.81 0.17 C1.95 0.11, 2.11 0.07, 2.27 0.04 C2.42 0.01, 2.58 0, 2.74 0 C2.9 0, 3.06 0.01, 3.22 0.04 C3.38 0.07, 3.53 0.11, 3.68 0.17 C3.83 0.22, 3.98 0.29, 4.12 0.37 C4.25 0.45, 4.39 0.54, 4.51 0.64 C4.63 0.74, 4.74 0.86, 4.85 0.98 C4.95 1.1, 5.04 1.23, 5.12 1.37 C5.2 1.51, 5.27 1.66, 5.32 1.81 C5.38 1.95, 5.42 2.11, 5.45 2.27 C5.47 2.42, 5.48 2.66, 5.49 2.74 C5.49 2.82, 5.49 2.66, 5.49 2.74" stroke="#343a40" stroke-width="1" fill="none"></path></g><g stroke-linecap="round" transform="translate(363.684643177707 155.11960167905022) rotate(0 2.7435318446106294 2.7435318446106294)"><path d="M5.49 2.74 C5.49 2.9, 5.47 3.06, 5.45 3.22 C5.42 3.38, 5.38 3.53, 5.32 3.68 C5.27 3.83, 5.2 3.98, 5.12 4.12 C5.04 4.25, 4.95 4.39, 4.85 4.51 C4.74 4.63, 4.63 4.74, 4.51 4.85 C4.39 4.95, 4.25 5.04, 4.12 5.12 C3.98 5.2, 3.83 5.27, 3.68 5.32 C3.53 5.38, 3.38 5.42, 3.22 5.45 C3.06 5.47, 2.9 5.49, 2.74 5.49 C2.58 5.49, 2.42 5.47, 2.27 5.45 C2.11 5.42, 1.95 5.38, 1.81 5.32 C1.66 5.27, 1.51 5.2, 1.37 5.12 C1.23 5.04, 1.1 4.95, 0.98 4.85 C0.86 4.74, 0.74 4.63, 0.64 4.51 C0.54 4.39, 0.45 4.25, 0.37 4.12 C0.29 3.98, 0.22 3.83, 0.17 3.68 C0.11 3.53, 0.07 3.38, 0.04 3.22 C0.01 3.06, 0 2.9, 0 2.74 C0 2.58, 0.01 2.42, 0.04 2.27 C0.07 2.11, 0.11 1.95, 0.17 1.81 C0.22 1.66, 0.29 1.51, 0.37 1.37 C0.45 1.23, 0.54 1.1, 0.64 0.98 C0.74 0.86, 0.86 0.74, 0.98 0.64 C1.1 0.54, 1.23 0.45, 1.37 0.37 C1.51 0.29, 1.66 0.22, 1.81 0.17 C1.95 0.11, 2.11 0.07, 2.27 0.04 C2.42 0.01, 2.58 0, 2.74 0 C2.9 0, 3.06 0.01, 3.22 0.04 C3.38 0.07, 3.53 0.11, 3.68 0.17 C3.83 0.22, 3.98 0.29, 4.12 0.37 C4.25 0.45, 4.39 0.54, 4.51 0.64 C4.63 0.74, 4.74 0.86, 4.85 0.98 C4.95 1.1, 5.04 1.23, 5.12 1.37 C5.2 1.51, 5.27 1.66, 5.32 1.81 C5.38 1.95, 5.42 2.11, 5.45 2.27 C5.47 2.42, 5.48 2.66, 5.49 2.74 C5.49 2.82, 5.49 2.66, 5.49 2.74" stroke="none" stroke-width="0" fill="#868e96"></path><path d="M5.49 2.74 C5.49 2.9, 5.47 3.06, 5.45 3.22 C5.42 3.38, 5.38 3.53, 5.32 3.68 C5.27 3.83, 5.2 3.98, 5.12 4.12 C5.04 4.25, 4.95 4.39, 4.85 4.51 C4.74 4.63, 4.63 4.74, 4.51 4.85 C4.39 4.95, 4.25 5.04, 4.12 5.12 C3.98 5.2, 3.83 5.27, 3.68 5.32 C3.53 5.38, 3.38 5.42, 3.22 5.45 C3.06 5.47, 2.9 5.49, 2.74 5.49 C2.58 5.49, 2.42 5.47, 2.27 5.45 C2.11 5.42, 1.95 5.38, 1.81 5.32 C1.66 5.27, 1.51 5.2, 1.37 5.12 C1.23 5.04, 1.1 4.95, 0.98 4.85 C0.86 4.74, 0.74 4.63, 0.64 4.51 C0.54 4.39, 0.45 4.25, 0.37 4.12 C0.29 3.98, 0.22 3.83, 0.17 3.68 C0.11 3.53, 0.07 3.38, 0.04 3.22 C0.01 3.06, 0 2.9, 0 2.74 C0 2.58, 0.01 2.42, 0.04 2.27 C0.07 2.11, 0.11 1.95, 0.17 1.81 C0.22 1.66, 0.29 1.51, 0.37 1.37 C0.45 1.23, 0.54 1.1, 0.64 0.98 C0.74 0.86, 0.86 0.74, 0.98 0.64 C1.1 0.54, 1.23 0.45, 1.37 0.37 C1.51 0.29, 1.66 0.22, 1.81 0.17 C1.95 0.11, 2.11 0.07, 2.27 0.04 C2.42 0.01, 2.58 0, 2.74 0 C2.9 0, 3.06 0.01, 3.22 0.04 C3.38 0.07, 3.53 0.11, 3.68 0.17 C3.83 0.22, 3.98 0.29, 4.12 0.37 C4.25 0.45, 4.39 0.54, 4.51 0.64 C4.63 0.74, 4.74 0.86, 4.85 0.98 C4.95 1.1, 5.04 1.23, 5.12 1.37 C5.2 1.51, 5.27 1.66, 5.32 1.81 C5.38 1.95, 5.42 2.11, 5.45 2.27 C5.47 2.42, 5.48 2.66, 5.49 2.74 C5.49 2.82, 5.49 2.66, 5.49 2.74" stroke="#343a40" stroke-width="1" fill="none"></path></g><g stroke-linecap="round" transform="translate(363.684643177707 178.86479865404647) rotate(0 2.7435318446106294 2.7435318446106294)"><path d="M5.49 2.74 C5.49 2.9, 5.47 3.06, 5.45 3.22 C5.42 3.38, 5.38 3.53, 5.32 3.68 C5.27 3.83, 5.2 3.98, 5.12 4.12 C5.04 4.25, 4.95 4.39, 4.85 4.51 C4.74 4.63, 4.63 4.74, 4.51 4.85 C4.39 4.95, 4.25 5.04, 4.12 5.12 C3.98 5.2, 3.83 5.27, 3.68 5.32 C3.53 5.38, 3.38 5.42, 3.22 5.45 C3.06 5.47, 2.9 5.49, 2.74 5.49 C2.58 5.49, 2.42 5.47, 2.27 5.45 C2.11 5.42, 1.95 5.38, 1.81 5.32 C1.66 5.27, 1.51 5.2, 1.37 5.12 C1.23 5.04, 1.1 4.95, 0.98 4.85 C0.86 4.74, 0.74 4.63, 0.64 4.51 C0.54 4.39, 0.45 4.25, 0.37 4.12 C0.29 3.98, 0.22 3.83, 0.17 3.68 C0.11 3.53, 0.07 3.38, 0.04 3.22 C0.01 3.06, 0 2.9, 0 2.74 C0 2.58, 0.01 2.42, 0.04 2.27 C0.07 2.11, 0.11 1.95, 0.17 1.81 C0.22 1.66, 0.29 1.51, 0.37 1.37 C0.45 1.23, 0.54 1.1, 0.64 0.98 C0.74 0.86, 0.86 0.74, 0.98 0.64 C1.1 0.54, 1.23 0.45, 1.37 0.37 C1.51 0.29, 1.66 0.22, 1.81 0.17 C1.95 0.11, 2.11 0.07, 2.27 0.04 C2.42 0.01, 2.58 0, 2.74 0 C2.9 0, 3.06 0.01, 3.22 0.04 C3.38 0.07, 3.53 0.11, 3.68 0.17 C3.83 0.22, 3.98 0.29, 4.12 0.37 C4.25 0.45, 4.39 0.54, 4.51 0.64 C4.63 0.74, 4.74 0.86, 4.85 0.98 C4.95 1.1, 5.04 1.23, 5.12 1.37 C5.2 1.51, 5.27 1.66, 5.32 1.81 C5.38 1.95, 5.42 2.11, 5.45 2.27 C5.47 2.42, 5.48 2.66, 5.49 2.74 C5.49 2.82, 5.49 2.66, 5.49 2.74" stroke="none" stroke-width="0" fill="#868e96"></path><path d="M5.49 2.74 C5.49 2.9, 5.47 3.06, 5.45 3.22 C5.42 3.38, 5.38 3.53, 5.32 3.68 C5.27 3.83, 5.2 3.98, 5.12 4.12 C5.04 4.25, 4.95 4.39, 4.85 4.51 C4.74 4.63, 4.63 4.74, 4.51 4.85 C4.39 4.95, 4.25 5.04, 4.12 5.12 C3.98 5.2, 3.83 5.27, 3.68 5.32 C3.53 5.38, 3.38 5.42, 3.22 5.45 C3.06 5.47, 2.9 5.49, 2.74 5.49 C2.58 5.49, 2.42 5.47, 2.27 5.45 C2.11 5.42, 1.95 5.38, 1.81 5.32 C1.66 5.27, 1.51 5.2, 1.37 5.12 C1.23 5.04, 1.1 4.95, 0.98 4.85 C0.86 4.74, 0.74 4.63, 0.64 4.51 C0.54 4.39, 0.45 4.25, 0.37 4.12 C0.29 3.98, 0.22 3.83, 0.17 3.68 C0.11 3.53, 0.07 3.38, 0.04 3.22 C0.01 3.06, 0 2.9, 0 2.74 C0 2.58, 0.01 2.42, 0.04 2.27 C0.07 2.11, 0.11 1.95, 0.17 1.81 C0.22 1.66, 0.29 1.51, 0.37 1.37 C0.45 1.23, 0.54 1.1, 0.64 0.98 C0.74 0.86, 0.86 0.74, 0.98 0.64 C1.1 0.54, 1.23 0.45, 1.37 0.37 C1.51 0.29, 1.66 0.22, 1.81 0.17 C1.95 0.11, 2.11 0.07, 2.27 0.04 C2.42 0.01, 2.58 0, 2.74 0 C2.9 0, 3.06 0.01, 3.22 0.04 C3.38 0.07, 3.53 0.11, 3.68 0.17 C3.83 0.22, 3.98 0.29, 4.12 0.37 C4.25 0.45, 4.39 0.54, 4.51 0.64 C4.63 0.74, 4.74 0.86, 4.85 0.98 C4.95 1.1, 5.04 1.23, 5.12 1.37 C5.2 1.51, 5.27 1.66, 5.32 1.81 C5.38 1.95, 5.42 2.11, 5.45 2.27 C5.47 2.42, 5.48 2.66, 5.49 2.74 C5.49 2.82, 5.49 2.66, 5.49 2.74" stroke="#343a40" stroke-width="1" fill="none"></path></g><g stroke-linecap="round" transform="translate(363.684643177707 202.6099956290426) rotate(0 2.7435318446106294 2.7435318446106294)"><path d="M5.49 2.74 C5.49 2.9, 5.47 3.06, 5.45 3.22 C5.42 3.38, 5.38 3.53, 5.32 3.68 C5.27 3.83, 5.2 3.98, 5.12 4.12 C5.04 4.25, 4.95 4.39, 4.85 4.51 C4.74 4.63, 4.63 4.74, 4.51 4.85 C4.39 4.95, 4.25 5.04, 4.12 5.12 C3.98 5.2, 3.83 5.27, 3.68 5.32 C3.53 5.38, 3.38 5.42, 3.22 5.45 C3.06 5.47, 2.9 5.49, 2.74 5.49 C2.58 5.49, 2.42 5.47, 2.27 5.45 C2.11 5.42, 1.95 5.38, 1.81 5.32 C1.66 5.27, 1.51 5.2, 1.37 5.12 C1.23 5.04, 1.1 4.95, 0.98 4.85 C0.86 4.74, 0.74 4.63, 0.64 4.51 C0.54 4.39, 0.45 4.25, 0.37 4.12 C0.29 3.98, 0.22 3.83, 0.17 3.68 C0.11 3.53, 0.07 3.38, 0.04 3.22 C0.01 3.06, 0 2.9, 0 2.74 C0 2.58, 0.01 2.42, 0.04 2.27 C0.07 2.11, 0.11 1.95, 0.17 1.81 C0.22 1.66, 0.29 1.51, 0.37 1.37 C0.45 1.23, 0.54 1.1, 0.64 0.98 C0.74 0.86, 0.86 0.74, 0.98 0.64 C1.1 0.54, 1.23 0.45, 1.37 0.37 C1.51 0.29, 1.66 0.22, 1.81 0.17 C1.95 0.11, 2.11 0.07, 2.27 0.04 C2.42 0.01, 2.58 0, 2.74 0 C2.9 0, 3.06 0.01, 3.22 0.04 C3.38 0.07, 3.53 0.11, 3.68 0.17 C3.83 0.22, 3.98 0.29, 4.12 0.37 C4.25 0.45, 4.39 0.54, 4.51 0.64 C4.63 0.74, 4.74 0.86, 4.85 0.98 C4.95 1.1, 5.04 1.23, 5.12 1.37 C5.2 1.51, 5.27 1.66, 5.32 1.81 C5.38 1.95, 5.42 2.11, 5.45 2.27 C5.47 2.42, 5.48 2.66, 5.49 2.74 C5.49 2.82, 5.49 2.66, 5.49 2.74" stroke="none" stroke-width="0" fill="#868e96"></path><path d="M5.49 2.74 C5.49 2.9, 5.47 3.06, 5.45 3.22 C5.42 3.38, 5.38 3.53, 5.32 3.68 C5.27 3.83, 5.2 3.98, 5.12 4.12 C5.04 4.25, 4.95 4.39, 4.85 4.51 C4.74 4.63, 4.63 4.74, 4.51 4.85 C4.39 4.95, 4.25 5.04, 4.12 5.12 C3.98 5.2, 3.83 5.27, 3.68 5.32 C3.53 5.38, 3.38 5.42, 3.22 5.45 C3.06 5.47, 2.9 5.49, 2.74 5.49 C2.58 5.49, 2.42 5.47, 2.27 5.45 C2.11 5.42, 1.95 5.38, 1.81 5.32 C1.66 5.27, 1.51 5.2, 1.37 5.12 C1.23 5.04, 1.1 4.95, 0.98 4.85 C0.86 4.74, 0.74 4.63, 0.64 4.51 C0.54 4.39, 0.45 4.25, 0.37 4.12 C0.29 3.98, 0.22 3.83, 0.17 3.68 C0.11 3.53, 0.07 3.38, 0.04 3.22 C0.01 3.06, 0 2.9, 0 2.74 C0 2.58, 0.01 2.42, 0.04 2.27 C0.07 2.11, 0.11 1.95, 0.17 1.81 C0.22 1.66, 0.29 1.51, 0.37 1.37 C0.45 1.23, 0.54 1.1, 0.64 0.98 C0.74 0.86, 0.86 0.74, 0.98 0.64 C1.1 0.54, 1.23 0.45, 1.37 0.37 C1.51 0.29, 1.66 0.22, 1.81 0.17 C1.95 0.11, 2.11 0.07, 2.27 0.04 C2.42 0.01, 2.58 0, 2.74 0 C2.9 0, 3.06 0.01, 3.22 0.04 C3.38 0.07, 3.53 0.11, 3.68 0.17 C3.83 0.22, 3.98 0.29, 4.12 0.37 C4.25 0.45, 4.39 0.54, 4.51 0.64 C4.63 0.74, 4.74 0.86, 4.85 0.98 C4.95 1.1, 5.04 1.23, 5.12 1.37 C5.2 1.51, 5.27 1.66, 5.32 1.81 C5.38 1.95, 5.42 2.11, 5.45 2.27 C5.47 2.42, 5.48 2.66, 5.49 2.74 C5.49 2.82, 5.49 2.66, 5.49 2.74" stroke="#343a40" stroke-width="1" fill="none"></path></g><g stroke-linecap="round" transform="translate(363.684643177707 226.35519260403873) rotate(0 2.7435318446106294 2.7435318446106294)"><path d="M5.49 2.74 C5.49 2.9, 5.47 3.06, 5.45 3.22 C5.42 3.38, 5.38 3.53, 5.32 3.68 C5.27 3.83, 5.2 3.98, 5.12 4.12 C5.04 4.25, 4.95 4.39, 4.85 4.51 C4.74 4.63, 4.63 4.74, 4.51 4.85 C4.39 4.95, 4.25 5.04, 4.12 5.12 C3.98 5.2, 3.83 5.27, 3.68 5.32 C3.53 5.38, 3.38 5.42, 3.22 5.45 C3.06 5.47, 2.9 5.49, 2.74 5.49 C2.58 5.49, 2.42 5.47, 2.27 5.45 C2.11 5.42, 1.95 5.38, 1.81 5.32 C1.66 5.27, 1.51 5.2, 1.37 5.12 C1.23 5.04, 1.1 4.95, 0.98 4.85 C0.86 4.74, 0.74 4.63, 0.64 4.51 C0.54 4.39, 0.45 4.25, 0.37 4.12 C0.29 3.98, 0.22 3.83, 0.17 3.68 C0.11 3.53, 0.07 3.38, 0.04 3.22 C0.01 3.06, 0 2.9, 0 2.74 C0 2.58, 0.01 2.42, 0.04 2.27 C0.07 2.11, 0.11 1.95, 0.17 1.81 C0.22 1.66, 0.29 1.51, 0.37 1.37 C0.45 1.23, 0.54 1.1, 0.64 0.98 C0.74 0.86, 0.86 0.74, 0.98 0.64 C1.1 0.54, 1.23 0.45, 1.37 0.37 C1.51 0.29, 1.66 0.22, 1.81 0.17 C1.95 0.11, 2.11 0.07, 2.27 0.04 C2.42 0.01, 2.58 0, 2.74 0 C2.9 0, 3.06 0.01, 3.22 0.04 C3.38 0.07, 3.53 0.11, 3.68 0.17 C3.83 0.22, 3.98 0.29, 4.12 0.37 C4.25 0.45, 4.39 0.54, 4.51 0.64 C4.63 0.74, 4.74 0.86, 4.85 0.98 C4.95 1.1, 5.04 1.23, 5.12 1.37 C5.2 1.51, 5.27 1.66, 5.32 1.81 C5.38 1.95, 5.42 2.11, 5.45 2.27 C5.47 2.42, 5.48 2.66, 5.49 2.74 C5.49 2.82, 5.49 2.66, 5.49 2.74" stroke="none" stroke-width="0" fill="#868e96"></path><path d="M5.49 2.74 C5.49 2.9, 5.47 3.06, 5.45 3.22 C5.42 3.38, 5.38 3.53, 5.32 3.68 C5.27 3.83, 5.2 3.98, 5.12 4.12 C5.04 4.25, 4.95 4.39, 4.85 4.51 C4.74 4.63, 4.63 4.74, 4.51 4.85 C4.39 4.95, 4.25 5.04, 4.12 5.12 C3.98 5.2, 3.83 5.27, 3.68 5.32 C3.53 5.38, 3.38 5.42, 3.22 5.45 C3.06 5.47, 2.9 5.49, 2.74 5.49 C2.58 5.49, 2.42 5.47, 2.27 5.45 C2.11 5.42, 1.95 5.38, 1.81 5.32 C1.66 5.27, 1.51 5.2, 1.37 5.12 C1.23 5.04, 1.1 4.95, 0.98 4.85 C0.86 4.74, 0.74 4.63, 0.64 4.51 C0.54 4.39, 0.45 4.25, 0.37 4.12 C0.29 3.98, 0.22 3.83, 0.17 3.68 C0.11 3.53, 0.07 3.38, 0.04 3.22 C0.01 3.06, 0 2.9, 0 2.74 C0 2.58, 0.01 2.42, 0.04 2.27 C0.07 2.11, 0.11 1.95, 0.17 1.81 C0.22 1.66, 0.29 1.51, 0.37 1.37 C0.45 1.23, 0.54 1.1, 0.64 0.98 C0.74 0.86, 0.86 0.74, 0.98 0.64 C1.1 0.54, 1.23 0.45, 1.37 0.37 C1.51 0.29, 1.66 0.22, 1.81 0.17 C1.95 0.11, 2.11 0.07, 2.27 0.04 C2.42 0.01, 2.58 0, 2.74 0 C2.9 0, 3.06 0.01, 3.22 0.04 C3.38 0.07, 3.53 0.11, 3.68 0.17 C3.83 0.22, 3.98 0.29, 4.12 0.37 C4.25 0.45, 4.39 0.54, 4.51 0.64 C4.63 0.74, 4.74 0.86, 4.85 0.98 C4.95 1.1, 5.04 1.23, 5.12 1.37 C5.2 1.51, 5.27 1.66, 5.32 1.81 C5.38 1.95, 5.42 2.11, 5.45 2.27 C5.47 2.42, 5.48 2.66, 5.49 2.74 C5.49 2.82, 5.49 2.66, 5.49 2.74" stroke="#343a40" stroke-width="1" fill="none"></path></g><g stroke-linecap="round" transform="translate(363.684643177707 250.10038957903487) rotate(0 2.7435318446106294 2.7435318446106294)"><path d="M5.49 2.74 C5.49 2.9, 5.47 3.06, 5.45 3.22 C5.42 3.38, 5.38 3.53, 5.32 3.68 C5.27 3.83, 5.2 3.98, 5.12 4.12 C5.04 4.25, 4.95 4.39, 4.85 4.51 C4.74 4.63, 4.63 4.74, 4.51 4.85 C4.39 4.95, 4.25 5.04, 4.12 5.12 C3.98 5.2, 3.83 5.27, 3.68 5.32 C3.53 5.38, 3.38 5.42, 3.22 5.45 C3.06 5.47, 2.9 5.49, 2.74 5.49 C2.58 5.49, 2.42 5.47, 2.27 5.45 C2.11 5.42, 1.95 5.38, 1.81 5.32 C1.66 5.27, 1.51 5.2, 1.37 5.12 C1.23 5.04, 1.1 4.95, 0.98 4.85 C0.86 4.74, 0.74 4.63, 0.64 4.51 C0.54 4.39, 0.45 4.25, 0.37 4.12 C0.29 3.98, 0.22 3.83, 0.17 3.68 C0.11 3.53, 0.07 3.38, 0.04 3.22 C0.01 3.06, 0 2.9, 0 2.74 C0 2.58, 0.01 2.42, 0.04 2.27 C0.07 2.11, 0.11 1.95, 0.17 1.81 C0.22 1.66, 0.29 1.51, 0.37 1.37 C0.45 1.23, 0.54 1.1, 0.64 0.98 C0.74 0.86, 0.86 0.74, 0.98 0.64 C1.1 0.54, 1.23 0.45, 1.37 0.37 C1.51 0.29, 1.66 0.22, 1.81 0.17 C1.95 0.11, 2.11 0.07, 2.27 0.04 C2.42 0.01, 2.58 0, 2.74 0 C2.9 0, 3.06 0.01, 3.22 0.04 C3.38 0.07, 3.53 0.11, 3.68 0.17 C3.83 0.22, 3.98 0.29, 4.12 0.37 C4.25 0.45, 4.39 0.54, 4.51 0.64 C4.63 0.74, 4.74 0.86, 4.85 0.98 C4.95 1.1, 5.04 1.23, 5.12 1.37 C5.2 1.51, 5.27 1.66, 5.32 1.81 C5.38 1.95, 5.42 2.11, 5.45 2.27 C5.47 2.42, 5.48 2.66, 5.49 2.74 C5.49 2.82, 5.49 2.66, 5.49 2.74" stroke="none" stroke-width="0" fill="#868e96"></path><path d="M5.49 2.74 C5.49 2.9, 5.47 3.06, 5.45 3.22 C5.42 3.38, 5.38 3.53, 5.32 3.68 C5.27 3.83, 5.2 3.98, 5.12 4.12 C5.04 4.25, 4.95 4.39, 4.85 4.51 C4.74 4.63, 4.63 4.74, 4.51 4.85 C4.39 4.95, 4.25 5.04, 4.12 5.12 C3.98 5.2, 3.83 5.27, 3.68 5.32 C3.53 5.38, 3.38 5.42, 3.22 5.45 C3.06 5.47, 2.9 5.49, 2.74 5.49 C2.58 5.49, 2.42 5.47, 2.27 5.45 C2.11 5.42, 1.95 5.38, 1.81 5.32 C1.66 5.27, 1.51 5.2, 1.37 5.12 C1.23 5.04, 1.1 4.95, 0.98 4.85 C0.86 4.74, 0.74 4.63, 0.64 4.51 C0.54 4.39, 0.45 4.25, 0.37 4.12 C0.29 3.98, 0.22 3.83, 0.17 3.68 C0.11 3.53, 0.07 3.38, 0.04 3.22 C0.01 3.06, 0 2.9, 0 2.74 C0 2.58, 0.01 2.42, 0.04 2.27 C0.07 2.11, 0.11 1.95, 0.17 1.81 C0.22 1.66, 0.29 1.51, 0.37 1.37 C0.45 1.23, 0.54 1.1, 0.64 0.98 C0.74 0.86, 0.86 0.74, 0.98 0.64 C1.1 0.54, 1.23 0.45, 1.37 0.37 C1.51 0.29, 1.66 0.22, 1.81 0.17 C1.95 0.11, 2.11 0.07, 2.27 0.04 C2.42 0.01, 2.58 0, 2.74 0 C2.9 0, 3.06 0.01, 3.22 0.04 C3.38 0.07, 3.53 0.11, 3.68 0.17 C3.83 0.22, 3.98 0.29, 4.12 0.37 C4.25 0.45, 4.39 0.54, 4.51 0.64 C4.63 0.74, 4.74 0.86, 4.85 0.98 C4.95 1.1, 5.04 1.23, 5.12 1.37 C5.2 1.51, 5.27 1.66, 5.32 1.81 C5.38 1.95, 5.42 2.11, 5.45 2.27 C5.47 2.42, 5.48 2.66, 5.49 2.74 C5.49 2.82, 5.49 2.66, 5.49 2.74" stroke="#343a40" stroke-width="1" fill="none"></path></g><g stroke-linecap="round" transform="translate(363.684643177707 273.845586554031) rotate(0 2.7435318446106294 2.7435318446106294)"><path d="M5.49 2.74 C5.49 2.9, 5.47 3.06, 5.45 3.22 C5.42 3.38, 5.38 3.53, 5.32 3.68 C5.27 3.83, 5.2 3.98, 5.12 4.12 C5.04 4.25, 4.95 4.39, 4.85 4.51 C4.74 4.63, 4.63 4.74, 4.51 4.85 C4.39 4.95, 4.25 5.04, 4.12 5.12 C3.98 5.2, 3.83 5.27, 3.68 5.32 C3.53 5.38, 3.38 5.42, 3.22 5.45 C3.06 5.47, 2.9 5.49, 2.74 5.49 C2.58 5.49, 2.42 5.47, 2.27 5.45 C2.11 5.42, 1.95 5.38, 1.81 5.32 C1.66 5.27, 1.51 5.2, 1.37 5.12 C1.23 5.04, 1.1 4.95, 0.98 4.85 C0.86 4.74, 0.74 4.63, 0.64 4.51 C0.54 4.39, 0.45 4.25, 0.37 4.12 C0.29 3.98, 0.22 3.83, 0.17 3.68 C0.11 3.53, 0.07 3.38, 0.04 3.22 C0.01 3.06, 0 2.9, 0 2.74 C0 2.58, 0.01 2.42, 0.04 2.27 C0.07 2.11, 0.11 1.95, 0.17 1.81 C0.22 1.66, 0.29 1.51, 0.37 1.37 C0.45 1.23, 0.54 1.1, 0.64 0.98 C0.74 0.86, 0.86 0.74, 0.98 0.64 C1.1 0.54, 1.23 0.45, 1.37 0.37 C1.51 0.29, 1.66 0.22, 1.81 0.17 C1.95 0.11, 2.11 0.07, 2.27 0.04 C2.42 0.01, 2.58 0, 2.74 0 C2.9 0, 3.06 0.01, 3.22 0.04 C3.38 0.07, 3.53 0.11, 3.68 0.17 C3.83 0.22, 3.98 0.29, 4.12 0.37 C4.25 0.45, 4.39 0.54, 4.51 0.64 C4.63 0.74, 4.74 0.86, 4.85 0.98 C4.95 1.1, 5.04 1.23, 5.12 1.37 C5.2 1.51, 5.27 1.66, 5.32 1.81 C5.38 1.95, 5.42 2.11, 5.45 2.27 C5.47 2.42, 5.48 2.66, 5.49 2.74 C5.49 2.82, 5.49 2.66, 5.49 2.74" stroke="none" stroke-width="0" fill="#868e96"></path><path d="M5.49 2.74 C5.49 2.9, 5.47 3.06, 5.45 3.22 C5.42 3.38, 5.38 3.53, 5.32 3.68 C5.27 3.83, 5.2 3.98, 5.12 4.12 C5.04 4.25, 4.95 4.39, 4.85 4.51 C4.74 4.63, 4.63 4.74, 4.51 4.85 C4.39 4.95, 4.25 5.04, 4.12 5.12 C3.98 5.2, 3.83 5.27, 3.68 5.32 C3.53 5.38, 3.38 5.42, 3.22 5.45 C3.06 5.47, 2.9 5.49, 2.74 5.49 C2.58 5.49, 2.42 5.47, 2.27 5.45 C2.11 5.42, 1.95 5.38, 1.81 5.32 C1.66 5.27, 1.51 5.2, 1.37 5.12 C1.23 5.04, 1.1 4.95, 0.98 4.85 C0.86 4.74, 0.74 4.63, 0.64 4.51 C0.54 4.39, 0.45 4.25, 0.37 4.12 C0.29 3.98, 0.22 3.83, 0.17 3.68 C0.11 3.53, 0.07 3.38, 0.04 3.22 C0.01 3.06, 0 2.9, 0 2.74 C0 2.58, 0.01 2.42, 0.04 2.27 C0.07 2.11, 0.11 1.95, 0.17 1.81 C0.22 1.66, 0.29 1.51, 0.37 1.37 C0.45 1.23, 0.54 1.1, 0.64 0.98 C0.74 0.86, 0.86 0.74, 0.98 0.64 C1.1 0.54, 1.23 0.45, 1.37 0.37 C1.51 0.29, 1.66 0.22, 1.81 0.17 C1.95 0.11, 2.11 0.07, 2.27 0.04 C2.42 0.01, 2.58 0, 2.74 0 C2.9 0, 3.06 0.01, 3.22 0.04 C3.38 0.07, 3.53 0.11, 3.68 0.17 C3.83 0.22, 3.98 0.29, 4.12 0.37 C4.25 0.45, 4.39 0.54, 4.51 0.64 C4.63 0.74, 4.74 0.86, 4.85 0.98 C4.95 1.1, 5.04 1.23, 5.12 1.37 C5.2 1.51, 5.27 1.66, 5.32 1.81 C5.38 1.95, 5.42 2.11, 5.45 2.27 C5.47 2.42, 5.48 2.66, 5.49 2.74 C5.49 2.82, 5.49 2.66, 5.49 2.74" stroke="#343a40" stroke-width="1" fill="none"></path></g><g stroke-linecap="round" transform="translate(363.684643177707 297.59078352902714) rotate(0 2.7435318446106294 2.7435318446106294)"><path d="M5.49 2.74 C5.49 2.9, 5.47 3.06, 5.45 3.22 C5.42 3.38, 5.38 3.53, 5.32 3.68 C5.27 3.83, 5.2 3.98, 5.12 4.12 C5.04 4.25, 4.95 4.39, 4.85 4.51 C4.74 4.63, 4.63 4.74, 4.51 4.85 C4.39 4.95, 4.25 5.04, 4.12 5.12 C3.98 5.2, 3.83 5.27, 3.68 5.32 C3.53 5.38, 3.38 5.42, 3.22 5.45 C3.06 5.47, 2.9 5.49, 2.74 5.49 C2.58 5.49, 2.42 5.47, 2.27 5.45 C2.11 5.42, 1.95 5.38, 1.81 5.32 C1.66 5.27, 1.51 5.2, 1.37 5.12 C1.23 5.04, 1.1 4.95, 0.98 4.85 C0.86 4.74, 0.74 4.63, 0.64 4.51 C0.54 4.39, 0.45 4.25, 0.37 4.12 C0.29 3.98, 0.22 3.83, 0.17 3.68 C0.11 3.53, 0.07 3.38, 0.04 3.22 C0.01 3.06, 0 2.9, 0 2.74 C0 2.58, 0.01 2.42, 0.04 2.27 C0.07 2.11, 0.11 1.95, 0.17 1.81 C0.22 1.66, 0.29 1.51, 0.37 1.37 C0.45 1.23, 0.54 1.1, 0.64 0.98 C0.74 0.86, 0.86 0.74, 0.98 0.64 C1.1 0.54, 1.23 0.45, 1.37 0.37 C1.51 0.29, 1.66 0.22, 1.81 0.17 C1.95 0.11, 2.11 0.07, 2.27 0.04 C2.42 0.01, 2.58 0, 2.74 0 C2.9 0, 3.06 0.01, 3.22 0.04 C3.38 0.07, 3.53 0.11, 3.68 0.17 C3.83 0.22, 3.98 0.29, 4.12 0.37 C4.25 0.45, 4.39 0.54, 4.51 0.64 C4.63 0.74, 4.74 0.86, 4.85 0.98 C4.95 1.1, 5.04 1.23, 5.12 1.37 C5.2 1.51, 5.27 1.66, 5.32 1.81 C5.38 1.95, 5.42 2.11, 5.45 2.27 C5.47 2.42, 5.48 2.66, 5.49 2.74 C5.49 2.82, 5.49 2.66, 5.49 2.74" stroke="none" stroke-width="0" fill="#868e96"></path><path d="M5.49 2.74 C5.49 2.9, 5.47 3.06, 5.45 3.22 C5.42 3.38, 5.38 3.53, 5.32 3.68 C5.27 3.83, 5.2 3.98, 5.12 4.12 C5.04 4.25, 4.95 4.39, 4.85 4.51 C4.74 4.63, 4.63 4.74, 4.51 4.85 C4.39 4.95, 4.25 5.04, 4.12 5.12 C3.98 5.2, 3.83 5.27, 3.68 5.32 C3.53 5.38, 3.38 5.42, 3.22 5.45 C3.06 5.47, 2.9 5.49, 2.74 5.49 C2.58 5.49, 2.42 5.47, 2.27 5.45 C2.11 5.42, 1.95 5.38, 1.81 5.32 C1.66 5.27, 1.51 5.2, 1.37 5.12 C1.23 5.04, 1.1 4.95, 0.98 4.85 C0.86 4.74, 0.74 4.63, 0.64 4.51 C0.54 4.39, 0.45 4.25, 0.37 4.12 C0.29 3.98, 0.22 3.83, 0.17 3.68 C0.11 3.53, 0.07 3.38, 0.04 3.22 C0.01 3.06, 0 2.9, 0 2.74 C0 2.58, 0.01 2.42, 0.04 2.27 C0.07 2.11, 0.11 1.95, 0.17 1.81 C0.22 1.66, 0.29 1.51, 0.37 1.37 C0.45 1.23, 0.54 1.1, 0.64 0.98 C0.74 0.86, 0.86 0.74, 0.98 0.64 C1.1 0.54, 1.23 0.45, 1.37 0.37 C1.51 0.29, 1.66 0.22, 1.81 0.17 C1.95 0.11, 2.11 0.07, 2.27 0.04 C2.42 0.01, 2.58 0, 2.74 0 C2.9 0, 3.06 0.01, 3.22 0.04 C3.38 0.07, 3.53 0.11, 3.68 0.17 C3.83 0.22, 3.98 0.29, 4.12 0.37 C4.25 0.45, 4.39 0.54, 4.51 0.64 C4.63 0.74, 4.74 0.86, 4.85 0.98 C4.95 1.1, 5.04 1.23, 5.12 1.37 C5.2 1.51, 5.27 1.66, 5.32 1.81 C5.38 1.95, 5.42 2.11, 5.45 2.27 C5.47 2.42, 5.48 2.66, 5.49 2.74 C5.49 2.82, 5.49 2.66, 5.49 2.74" stroke="#343a40" stroke-width="1" fill="none"></path></g><g stroke-linecap="round" transform="translate(363.684643177707 321.33598050402327) rotate(0 2.7435318446106294 2.7435318446106294)"><path d="M5.49 2.74 C5.49 2.9, 5.47 3.06, 5.45 3.22 C5.42 3.38, 5.38 3.53, 5.32 3.68 C5.27 3.83, 5.2 3.98, 5.12 4.12 C5.04 4.25, 4.95 4.39, 4.85 4.51 C4.74 4.63, 4.63 4.74, 4.51 4.85 C4.39 4.95, 4.25 5.04, 4.12 5.12 C3.98 5.2, 3.83 5.27, 3.68 5.32 C3.53 5.38, 3.38 5.42, 3.22 5.45 C3.06 5.47, 2.9 5.49, 2.74 5.49 C2.58 5.49, 2.42 5.47, 2.27 5.45 C2.11 5.42, 1.95 5.38, 1.81 5.32 C1.66 5.27, 1.51 5.2, 1.37 5.12 C1.23 5.04, 1.1 4.95, 0.98 4.85 C0.86 4.74, 0.74 4.63, 0.64 4.51 C0.54 4.39, 0.45 4.25, 0.37 4.12 C0.29 3.98, 0.22 3.83, 0.17 3.68 C0.11 3.53, 0.07 3.38, 0.04 3.22 C0.01 3.06, 0 2.9, 0 2.74 C0 2.58, 0.01 2.42, 0.04 2.27 C0.07 2.11, 0.11 1.95, 0.17 1.81 C0.22 1.66, 0.29 1.51, 0.37 1.37 C0.45 1.23, 0.54 1.1, 0.64 0.98 C0.74 0.86, 0.86 0.74, 0.98 0.64 C1.1 0.54, 1.23 0.45, 1.37 0.37 C1.51 0.29, 1.66 0.22, 1.81 0.17 C1.95 0.11, 2.11 0.07, 2.27 0.04 C2.42 0.01, 2.58 0, 2.74 0 C2.9 0, 3.06 0.01, 3.22 0.04 C3.38 0.07, 3.53 0.11, 3.68 0.17 C3.83 0.22, 3.98 0.29, 4.12 0.37 C4.25 0.45, 4.39 0.54, 4.51 0.64 C4.63 0.74, 4.74 0.86, 4.85 0.98 C4.95 1.1, 5.04 1.23, 5.12 1.37 C5.2 1.51, 5.27 1.66, 5.32 1.81 C5.38 1.95, 5.42 2.11, 5.45 2.27 C5.47 2.42, 5.48 2.66, 5.49 2.74 C5.49 2.82, 5.49 2.66, 5.49 2.74" stroke="none" stroke-width="0" fill="#868e96"></path><path d="M5.49 2.74 C5.49 2.9, 5.47 3.06, 5.45 3.22 C5.42 3.38, 5.38 3.53, 5.32 3.68 C5.27 3.83, 5.2 3.98, 5.12 4.12 C5.04 4.25, 4.95 4.39, 4.85 4.51 C4.74 4.63, 4.63 4.74, 4.51 4.85 C4.39 4.95, 4.25 5.04, 4.12 5.12 C3.98 5.2, 3.83 5.27, 3.68 5.32 C3.53 5.38, 3.38 5.42, 3.22 5.45 C3.06 5.47, 2.9 5.49, 2.74 5.49 C2.58 5.49, 2.42 5.47, 2.27 5.45 C2.11 5.42, 1.95 5.38, 1.81 5.32 C1.66 5.27, 1.51 5.2, 1.37 5.12 C1.23 5.04, 1.1 4.95, 0.98 4.85 C0.86 4.74, 0.74 4.63, 0.64 4.51 C0.54 4.39, 0.45 4.25, 0.37 4.12 C0.29 3.98, 0.22 3.83, 0.17 3.68 C0.11 3.53, 0.07 3.38, 0.04 3.22 C0.01 3.06, 0 2.9, 0 2.74 C0 2.58, 0.01 2.42, 0.04 2.27 C0.07 2.11, 0.11 1.95, 0.17 1.81 C0.22 1.66, 0.29 1.51, 0.37 1.37 C0.45 1.23, 0.54 1.1, 0.64 0.98 C0.74 0.86, 0.86 0.74, 0.98 0.64 C1.1 0.54, 1.23 0.45, 1.37 0.37 C1.51 0.29, 1.66 0.22, 1.81 0.17 C1.95 0.11, 2.11 0.07, 2.27 0.04 C2.42 0.01, 2.58 0, 2.74 0 C2.9 0, 3.06 0.01, 3.22 0.04 C3.38 0.07, 3.53 0.11, 3.68 0.17 C3.83 0.22, 3.98 0.29, 4.12 0.37 C4.25 0.45, 4.39 0.54, 4.51 0.64 C4.63 0.74, 4.74 0.86, 4.85 0.98 C4.95 1.1, 5.04 1.23, 5.12 1.37 C5.2 1.51, 5.27 1.66, 5.32 1.81 C5.38 1.95, 5.42 2.11, 5.45 2.27 C5.47 2.42, 5.48 2.66, 5.49 2.74 C5.49 2.82, 5.49 2.66, 5.49 2.74" stroke="#343a40" stroke-width="1" fill="none"></path></g><g stroke-linecap="round" transform="translate(363.684643177707 345.0811774790194) rotate(0 2.7435318446106294 2.7435318446106294)"><path d="M5.49 2.74 C5.49 2.9, 5.47 3.06, 5.45 3.22 C5.42 3.38, 5.38 3.53, 5.32 3.68 C5.27 3.83, 5.2 3.98, 5.12 4.12 C5.04 4.25, 4.95 4.39, 4.85 4.51 C4.74 4.63, 4.63 4.74, 4.51 4.85 C4.39 4.95, 4.25 5.04, 4.12 5.12 C3.98 5.2, 3.83 5.27, 3.68 5.32 C3.53 5.38, 3.38 5.42, 3.22 5.45 C3.06 5.47, 2.9 5.49, 2.74 5.49 C2.58 5.49, 2.42 5.47, 2.27 5.45 C2.11 5.42, 1.95 5.38, 1.81 5.32 C1.66 5.27, 1.51 5.2, 1.37 5.12 C1.23 5.04, 1.1 4.95, 0.98 4.85 C0.86 4.74, 0.74 4.63, 0.64 4.51 C0.54 4.39, 0.45 4.25, 0.37 4.12 C0.29 3.98, 0.22 3.83, 0.17 3.68 C0.11 3.53, 0.07 3.38, 0.04 3.22 C0.01 3.06, 0 2.9, 0 2.74 C0 2.58, 0.01 2.42, 0.04 2.27 C0.07 2.11, 0.11 1.95, 0.17 1.81 C0.22 1.66, 0.29 1.51, 0.37 1.37 C0.45 1.23, 0.54 1.1, 0.64 0.98 C0.74 0.86, 0.86 0.74, 0.98 0.64 C1.1 0.54, 1.23 0.45, 1.37 0.37 C1.51 0.29, 1.66 0.22, 1.81 0.17 C1.95 0.11, 2.11 0.07, 2.27 0.04 C2.42 0.01, 2.58 0, 2.74 0 C2.9 0, 3.06 0.01, 3.22 0.04 C3.38 0.07, 3.53 0.11, 3.68 0.17 C3.83 0.22, 3.98 0.29, 4.12 0.37 C4.25 0.45, 4.39 0.54, 4.51 0.64 C4.63 0.74, 4.74 0.86, 4.85 0.98 C4.95 1.1, 5.04 1.23, 5.12 1.37 C5.2 1.51, 5.27 1.66, 5.32 1.81 C5.38 1.95, 5.42 2.11, 5.45 2.27 C5.47 2.42, 5.48 2.66, 5.49 2.74 C5.49 2.82, 5.49 2.66, 5.49 2.74" stroke="none" stroke-width="0" fill="#868e96"></path><path d="M5.49 2.74 C5.49 2.9, 5.47 3.06, 5.45 3.22 C5.42 3.38, 5.38 3.53, 5.32 3.68 C5.27 3.83, 5.2 3.98, 5.12 4.12 C5.04 4.25, 4.95 4.39, 4.85 4.51 C4.74 4.63, 4.63 4.74, 4.51 4.85 C4.39 4.95, 4.25 5.04, 4.12 5.12 C3.98 5.2, 3.83 5.27, 3.68 5.32 C3.53 5.38, 3.38 5.42, 3.22 5.45 C3.06 5.47, 2.9 5.49, 2.74 5.49 C2.58 5.49, 2.42 5.47, 2.27 5.45 C2.11 5.42, 1.95 5.38, 1.81 5.32 C1.66 5.27, 1.51 5.2, 1.37 5.12 C1.23 5.04, 1.1 4.95, 0.98 4.85 C0.86 4.74, 0.74 4.63, 0.64 4.51 C0.54 4.39, 0.45 4.25, 0.37 4.12 C0.29 3.98, 0.22 3.83, 0.17 3.68 C0.11 3.53, 0.07 3.38, 0.04 3.22 C0.01 3.06, 0 2.9, 0 2.74 C0 2.58, 0.01 2.42, 0.04 2.27 C0.07 2.11, 0.11 1.95, 0.17 1.81 C0.22 1.66, 0.29 1.51, 0.37 1.37 C0.45 1.23, 0.54 1.1, 0.64 0.98 C0.74 0.86, 0.86 0.74, 0.98 0.64 C1.1 0.54, 1.23 0.45, 1.37 0.37 C1.51 0.29, 1.66 0.22, 1.81 0.17 C1.95 0.11, 2.11 0.07, 2.27 0.04 C2.42 0.01, 2.58 0, 2.74 0 C2.9 0, 3.06 0.01, 3.22 0.04 C3.38 0.07, 3.53 0.11, 3.68 0.17 C3.83 0.22, 3.98 0.29, 4.12 0.37 C4.25 0.45, 4.39 0.54, 4.51 0.64 C4.63 0.74, 4.74 0.86, 4.85 0.98 C4.95 1.1, 5.04 1.23, 5.12 1.37 C5.2 1.51, 5.27 1.66, 5.32 1.81 C5.38 1.95, 5.42 2.11, 5.45 2.27 C5.47 2.42, 5.48 2.66, 5.49 2.74 C5.49 2.82, 5.49 2.66, 5.49 2.74" stroke="#343a40" stroke-width="1" fill="none"></path></g><g stroke-linecap="round" transform="translate(363.684643177707 368.82637445401554) rotate(0 2.7435318446106294 2.7435318446106294)"><path d="M5.49 2.74 C5.49 2.9, 5.47 3.06, 5.45 3.22 C5.42 3.38, 5.38 3.53, 5.32 3.68 C5.27 3.83, 5.2 3.98, 5.12 4.12 C5.04 4.25, 4.95 4.39, 4.85 4.51 C4.74 4.63, 4.63 4.74, 4.51 4.85 C4.39 4.95, 4.25 5.04, 4.12 5.12 C3.98 5.2, 3.83 5.27, 3.68 5.32 C3.53 5.38, 3.38 5.42, 3.22 5.45 C3.06 5.47, 2.9 5.49, 2.74 5.49 C2.58 5.49, 2.42 5.47, 2.27 5.45 C2.11 5.42, 1.95 5.38, 1.81 5.32 C1.66 5.27, 1.51 5.2, 1.37 5.12 C1.23 5.04, 1.1 4.95, 0.98 4.85 C0.86 4.74, 0.74 4.63, 0.64 4.51 C0.54 4.39, 0.45 4.25, 0.37 4.12 C0.29 3.98, 0.22 3.83, 0.17 3.68 C0.11 3.53, 0.07 3.38, 0.04 3.22 C0.01 3.06, 0 2.9, 0 2.74 C0 2.58, 0.01 2.42, 0.04 2.27 C0.07 2.11, 0.11 1.95, 0.17 1.81 C0.22 1.66, 0.29 1.51, 0.37 1.37 C0.45 1.23, 0.54 1.1, 0.64 0.98 C0.74 0.86, 0.86 0.74, 0.98 0.64 C1.1 0.54, 1.23 0.45, 1.37 0.37 C1.51 0.29, 1.66 0.22, 1.81 0.17 C1.95 0.11, 2.11 0.07, 2.27 0.04 C2.42 0.01, 2.58 0, 2.74 0 C2.9 0, 3.06 0.01, 3.22 0.04 C3.38 0.07, 3.53 0.11, 3.68 0.17 C3.83 0.22, 3.98 0.29, 4.12 0.37 C4.25 0.45, 4.39 0.54, 4.51 0.64 C4.63 0.74, 4.74 0.86, 4.85 0.98 C4.95 1.1, 5.04 1.23, 5.12 1.37 C5.2 1.51, 5.27 1.66, 5.32 1.81 C5.38 1.95, 5.42 2.11, 5.45 2.27 C5.47 2.42, 5.48 2.66, 5.49 2.74 C5.49 2.82, 5.49 2.66, 5.49 2.74" stroke="none" stroke-width="0" fill="#868e96"></path><path d="M5.49 2.74 C5.49 2.9, 5.47 3.06, 5.45 3.22 C5.42 3.38, 5.38 3.53, 5.32 3.68 C5.27 3.83, 5.2 3.98, 5.12 4.12 C5.04 4.25, 4.95 4.39, 4.85 4.51 C4.74 4.63, 4.63 4.74, 4.51 4.85 C4.39 4.95, 4.25 5.04, 4.12 5.12 C3.98 5.2, 3.83 5.27, 3.68 5.32 C3.53 5.38, 3.38 5.42, 3.22 5.45 C3.06 5.47, 2.9 5.49, 2.74 5.49 C2.58 5.49, 2.42 5.47, 2.27 5.45 C2.11 5.42, 1.95 5.38, 1.81 5.32 C1.66 5.27, 1.51 5.2, 1.37 5.12 C1.23 5.04, 1.1 4.95, 0.98 4.85 C0.86 4.74, 0.74 4.63, 0.64 4.51 C0.54 4.39, 0.45 4.25, 0.37 4.12 C0.29 3.98, 0.22 3.83, 0.17 3.68 C0.11 3.53, 0.07 3.38, 0.04 3.22 C0.01 3.06, 0 2.9, 0 2.74 C0 2.58, 0.01 2.42, 0.04 2.27 C0.07 2.11, 0.11 1.95, 0.17 1.81 C0.22 1.66, 0.29 1.51, 0.37 1.37 C0.45 1.23, 0.54 1.1, 0.64 0.98 C0.74 0.86, 0.86 0.74, 0.98 0.64 C1.1 0.54, 1.23 0.45, 1.37 0.37 C1.51 0.29, 1.66 0.22, 1.81 0.17 C1.95 0.11, 2.11 0.07, 2.27 0.04 C2.42 0.01, 2.58 0, 2.74 0 C2.9 0, 3.06 0.01, 3.22 0.04 C3.38 0.07, 3.53 0.11, 3.68 0.17 C3.83 0.22, 3.98 0.29, 4.12 0.37 C4.25 0.45, 4.39 0.54, 4.51 0.64 C4.63 0.74, 4.74 0.86, 4.85 0.98 C4.95 1.1, 5.04 1.23, 5.12 1.37 C5.2 1.51, 5.27 1.66, 5.32 1.81 C5.38 1.95, 5.42 2.11, 5.45 2.27 C5.47 2.42, 5.48 2.66, 5.49 2.74 C5.49 2.82, 5.49 2.66, 5.49 2.74" stroke="#343a40" stroke-width="1" fill="none"></path></g><g stroke-linecap="round" transform="translate(363.684643177707 392.57157142901167) rotate(0 2.7435318446106294 2.7435318446106294)"><path d="M5.49 2.74 C5.49 2.9, 5.47 3.06, 5.45 3.22 C5.42 3.38, 5.38 3.53, 5.32 3.68 C5.27 3.83, 5.2 3.98, 5.12 4.12 C5.04 4.25, 4.95 4.39, 4.85 4.51 C4.74 4.63, 4.63 4.74, 4.51 4.85 C4.39 4.95, 4.25 5.04, 4.12 5.12 C3.98 5.2, 3.83 5.27, 3.68 5.32 C3.53 5.38, 3.38 5.42, 3.22 5.45 C3.06 5.47, 2.9 5.49, 2.74 5.49 C2.58 5.49, 2.42 5.47, 2.27 5.45 C2.11 5.42, 1.95 5.38, 1.81 5.32 C1.66 5.27, 1.51 5.2, 1.37 5.12 C1.23 5.04, 1.1 4.95, 0.98 4.85 C0.86 4.74, 0.74 4.63, 0.64 4.51 C0.54 4.39, 0.45 4.25, 0.37 4.12 C0.29 3.98, 0.22 3.83, 0.17 3.68 C0.11 3.53, 0.07 3.38, 0.04 3.22 C0.01 3.06, 0 2.9, 0 2.74 C0 2.58, 0.01 2.42, 0.04 2.27 C0.07 2.11, 0.11 1.95, 0.17 1.81 C0.22 1.66, 0.29 1.51, 0.37 1.37 C0.45 1.23, 0.54 1.1, 0.64 0.98 C0.74 0.86, 0.86 0.74, 0.98 0.64 C1.1 0.54, 1.23 0.45, 1.37 0.37 C1.51 0.29, 1.66 0.22, 1.81 0.17 C1.95 0.11, 2.11 0.07, 2.27 0.04 C2.42 0.01, 2.58 0, 2.74 0 C2.9 0, 3.06 0.01, 3.22 0.04 C3.38 0.07, 3.53 0.11, 3.68 0.17 C3.83 0.22, 3.98 0.29, 4.12 0.37 C4.25 0.45, 4.39 0.54, 4.51 0.64 C4.63 0.74, 4.74 0.86, 4.85 0.98 C4.95 1.1, 5.04 1.23, 5.12 1.37 C5.2 1.51, 5.27 1.66, 5.32 1.81 C5.38 1.95, 5.42 2.11, 5.45 2.27 C5.47 2.42, 5.48 2.66, 5.49 2.74 C5.49 2.82, 5.49 2.66, 5.49 2.74" stroke="none" stroke-width="0" fill="#868e96"></path><path d="M5.49 2.74 C5.49 2.9, 5.47 3.06, 5.45 3.22 C5.42 3.38, 5.38 3.53, 5.32 3.68 C5.27 3.83, 5.2 3.98, 5.12 4.12 C5.04 4.25, 4.95 4.39, 4.85 4.51 C4.74 4.63, 4.63 4.74, 4.51 4.85 C4.39 4.95, 4.25 5.04, 4.12 5.12 C3.98 5.2, 3.83 5.27, 3.68 5.32 C3.53 5.38, 3.38 5.42, 3.22 5.45 C3.06 5.47, 2.9 5.49, 2.74 5.49 C2.58 5.49, 2.42 5.47, 2.27 5.45 C2.11 5.42, 1.95 5.38, 1.81 5.32 C1.66 5.27, 1.51 5.2, 1.37 5.12 C1.23 5.04, 1.1 4.95, 0.98 4.85 C0.86 4.74, 0.74 4.63, 0.64 4.51 C0.54 4.39, 0.45 4.25, 0.37 4.12 C0.29 3.98, 0.22 3.83, 0.17 3.68 C0.11 3.53, 0.07 3.38, 0.04 3.22 C0.01 3.06, 0 2.9, 0 2.74 C0 2.58, 0.01 2.42, 0.04 2.27 C0.07 2.11, 0.11 1.95, 0.17 1.81 C0.22 1.66, 0.29 1.51, 0.37 1.37 C0.45 1.23, 0.54 1.1, 0.64 0.98 C0.74 0.86, 0.86 0.74, 0.98 0.64 C1.1 0.54, 1.23 0.45, 1.37 0.37 C1.51 0.29, 1.66 0.22, 1.81 0.17 C1.95 0.11, 2.11 0.07, 2.27 0.04 C2.42 0.01, 2.58 0, 2.74 0 C2.9 0, 3.06 0.01, 3.22 0.04 C3.38 0.07, 3.53 0.11, 3.68 0.17 C3.83 0.22, 3.98 0.29, 4.12 0.37 C4.25 0.45, 4.39 0.54, 4.51 0.64 C4.63 0.74, 4.74 0.86, 4.85 0.98 C4.95 1.1, 5.04 1.23, 5.12 1.37 C5.2 1.51, 5.27 1.66, 5.32 1.81 C5.38 1.95, 5.42 2.11, 5.45 2.27 C5.47 2.42, 5.48 2.66, 5.49 2.74 C5.49 2.82, 5.49 2.66, 5.49 2.74" stroke="#343a40" stroke-width="1" fill="none"></path></g><g stroke-linecap="round" transform="translate(363.684643177707 416.3167684040078) rotate(0 2.7435318446106294 2.7435318446106294)"><path d="M5.49 2.74 C5.49 2.9, 5.47 3.06, 5.45 3.22 C5.42 3.38, 5.38 3.53, 5.32 3.68 C5.27 3.83, 5.2 3.98, 5.12 4.12 C5.04 4.25, 4.95 4.39, 4.85 4.51 C4.74 4.63, 4.63 4.74, 4.51 4.85 C4.39 4.95, 4.25 5.04, 4.12 5.12 C3.98 5.2, 3.83 5.27, 3.68 5.32 C3.53 5.38, 3.38 5.42, 3.22 5.45 C3.06 5.47, 2.9 5.49, 2.74 5.49 C2.58 5.49, 2.42 5.47, 2.27 5.45 C2.11 5.42, 1.95 5.38, 1.81 5.32 C1.66 5.27, 1.51 5.2, 1.37 5.12 C1.23 5.04, 1.1 4.95, 0.98 4.85 C0.86 4.74, 0.74 4.63, 0.64 4.51 C0.54 4.39, 0.45 4.25, 0.37 4.12 C0.29 3.98, 0.22 3.83, 0.17 3.68 C0.11 3.53, 0.07 3.38, 0.04 3.22 C0.01 3.06, 0 2.9, 0 2.74 C0 2.58, 0.01 2.42, 0.04 2.27 C0.07 2.11, 0.11 1.95, 0.17 1.81 C0.22 1.66, 0.29 1.51, 0.37 1.37 C0.45 1.23, 0.54 1.1, 0.64 0.98 C0.74 0.86, 0.86 0.74, 0.98 0.64 C1.1 0.54, 1.23 0.45, 1.37 0.37 C1.51 0.29, 1.66 0.22, 1.81 0.17 C1.95 0.11, 2.11 0.07, 2.27 0.04 C2.42 0.01, 2.58 0, 2.74 0 C2.9 0, 3.06 0.01, 3.22 0.04 C3.38 0.07, 3.53 0.11, 3.68 0.17 C3.83 0.22, 3.98 0.29, 4.12 0.37 C4.25 0.45, 4.39 0.54, 4.51 0.64 C4.63 0.74, 4.74 0.86, 4.85 0.98 C4.95 1.1, 5.04 1.23, 5.12 1.37 C5.2 1.51, 5.27 1.66, 5.32 1.81 C5.38 1.95, 5.42 2.11, 5.45 2.27 C5.47 2.42, 5.48 2.66, 5.49 2.74 C5.49 2.82, 5.49 2.66, 5.49 2.74" stroke="none" stroke-width="0" fill="#868e96"></path><path d="M5.49 2.74 C5.49 2.9, 5.47 3.06, 5.45 3.22 C5.42 3.38, 5.38 3.53, 5.32 3.68 C5.27 3.83, 5.2 3.98, 5.12 4.12 C5.04 4.25, 4.95 4.39, 4.85 4.51 C4.74 4.63, 4.63 4.74, 4.51 4.85 C4.39 4.95, 4.25 5.04, 4.12 5.12 C3.98 5.2, 3.83 5.27, 3.68 5.32 C3.53 5.38, 3.38 5.42, 3.22 5.45 C3.06 5.47, 2.9 5.49, 2.74 5.49 C2.58 5.49, 2.42 5.47, 2.27 5.45 C2.11 5.42, 1.95 5.38, 1.81 5.32 C1.66 5.27, 1.51 5.2, 1.37 5.12 C1.23 5.04, 1.1 4.95, 0.98 4.85 C0.86 4.74, 0.74 4.63, 0.64 4.51 C0.54 4.39, 0.45 4.25, 0.37 4.12 C0.29 3.98, 0.22 3.83, 0.17 3.68 C0.11 3.53, 0.07 3.38, 0.04 3.22 C0.01 3.06, 0 2.9, 0 2.74 C0 2.58, 0.01 2.42, 0.04 2.27 C0.07 2.11, 0.11 1.95, 0.17 1.81 C0.22 1.66, 0.29 1.51, 0.37 1.37 C0.45 1.23, 0.54 1.1, 0.64 0.98 C0.74 0.86, 0.86 0.74, 0.98 0.64 C1.1 0.54, 1.23 0.45, 1.37 0.37 C1.51 0.29, 1.66 0.22, 1.81 0.17 C1.95 0.11, 2.11 0.07, 2.27 0.04 C2.42 0.01, 2.58 0, 2.74 0 C2.9 0, 3.06 0.01, 3.22 0.04 C3.38 0.07, 3.53 0.11, 3.68 0.17 C3.83 0.22, 3.98 0.29, 4.12 0.37 C4.25 0.45, 4.39 0.54, 4.51 0.64 C4.63 0.74, 4.74 0.86, 4.85 0.98 C4.95 1.1, 5.04 1.23, 5.12 1.37 C5.2 1.51, 5.27 1.66, 5.32 1.81 C5.38 1.95, 5.42 2.11, 5.45 2.27 C5.47 2.42, 5.48 2.66, 5.49 2.74 C5.49 2.82, 5.49 2.66, 5.49 2.74" stroke="#343a40" stroke-width="1" fill="none"></path></g><g stroke-linecap="round" transform="translate(363.684643177707 440.06196537900394) rotate(0 2.7435318446106294 2.7435318446106294)"><path d="M5.49 2.74 C5.49 2.9, 5.47 3.06, 5.45 3.22 C5.42 3.38, 5.38 3.53, 5.32 3.68 C5.27 3.83, 5.2 3.98, 5.12 4.12 C5.04 4.25, 4.95 4.39, 4.85 4.51 C4.74 4.63, 4.63 4.74, 4.51 4.85 C4.39 4.95, 4.25 5.04, 4.12 5.12 C3.98 5.2, 3.83 5.27, 3.68 5.32 C3.53 5.38, 3.38 5.42, 3.22 5.45 C3.06 5.47, 2.9 5.49, 2.74 5.49 C2.58 5.49, 2.42 5.47, 2.27 5.45 C2.11 5.42, 1.95 5.38, 1.81 5.32 C1.66 5.27, 1.51 5.2, 1.37 5.12 C1.23 5.04, 1.1 4.95, 0.98 4.85 C0.86 4.74, 0.74 4.63, 0.64 4.51 C0.54 4.39, 0.45 4.25, 0.37 4.12 C0.29 3.98, 0.22 3.83, 0.17 3.68 C0.11 3.53, 0.07 3.38, 0.04 3.22 C0.01 3.06, 0 2.9, 0 2.74 C0 2.58, 0.01 2.42, 0.04 2.27 C0.07 2.11, 0.11 1.95, 0.17 1.81 C0.22 1.66, 0.29 1.51, 0.37 1.37 C0.45 1.23, 0.54 1.1, 0.64 0.98 C0.74 0.86, 0.86 0.74, 0.98 0.64 C1.1 0.54, 1.23 0.45, 1.37 0.37 C1.51 0.29, 1.66 0.22, 1.81 0.17 C1.95 0.11, 2.11 0.07, 2.27 0.04 C2.42 0.01, 2.58 0, 2.74 0 C2.9 0, 3.06 0.01, 3.22 0.04 C3.38 0.07, 3.53 0.11, 3.68 0.17 C3.83 0.22, 3.98 0.29, 4.12 0.37 C4.25 0.45, 4.39 0.54, 4.51 0.64 C4.63 0.74, 4.74 0.86, 4.85 0.98 C4.95 1.1, 5.04 1.23, 5.12 1.37 C5.2 1.51, 5.27 1.66, 5.32 1.81 C5.38 1.95, 5.42 2.11, 5.45 2.27 C5.47 2.42, 5.48 2.66, 5.49 2.74 C5.49 2.82, 5.49 2.66, 5.49 2.74" stroke="none" stroke-width="0" fill="#868e96"></path><path d="M5.49 2.74 C5.49 2.9, 5.47 3.06, 5.45 3.22 C5.42 3.38, 5.38 3.53, 5.32 3.68 C5.27 3.83, 5.2 3.98, 5.12 4.12 C5.04 4.25, 4.95 4.39, 4.85 4.51 C4.74 4.63, 4.63 4.74, 4.51 4.85 C4.39 4.95, 4.25 5.04, 4.12 5.12 C3.98 5.2, 3.83 5.27, 3.68 5.32 C3.53 5.38, 3.38 5.42, 3.22 5.45 C3.06 5.47, 2.9 5.49, 2.74 5.49 C2.58 5.49, 2.42 5.47, 2.27 5.45 C2.11 5.42, 1.95 5.38, 1.81 5.32 C1.66 5.27, 1.51 5.2, 1.37 5.12 C1.23 5.04, 1.1 4.95, 0.98 4.85 C0.86 4.74, 0.74 4.63, 0.64 4.51 C0.54 4.39, 0.45 4.25, 0.37 4.12 C0.29 3.98, 0.22 3.83, 0.17 3.68 C0.11 3.53, 0.07 3.38, 0.04 3.22 C0.01 3.06, 0 2.9, 0 2.74 C0 2.58, 0.01 2.42, 0.04 2.27 C0.07 2.11, 0.11 1.95, 0.17 1.81 C0.22 1.66, 0.29 1.51, 0.37 1.37 C0.45 1.23, 0.54 1.1, 0.64 0.98 C0.74 0.86, 0.86 0.74, 0.98 0.64 C1.1 0.54, 1.23 0.45, 1.37 0.37 C1.51 0.29, 1.66 0.22, 1.81 0.17 C1.95 0.11, 2.11 0.07, 2.27 0.04 C2.42 0.01, 2.58 0, 2.74 0 C2.9 0, 3.06 0.01, 3.22 0.04 C3.38 0.07, 3.53 0.11, 3.68 0.17 C3.83 0.22, 3.98 0.29, 4.12 0.37 C4.25 0.45, 4.39 0.54, 4.51 0.64 C4.63 0.74, 4.74 0.86, 4.85 0.98 C4.95 1.1, 5.04 1.23, 5.12 1.37 C5.2 1.51, 5.27 1.66, 5.32 1.81 C5.38 1.95, 5.42 2.11, 5.45 2.27 C5.47 2.42, 5.48 2.66, 5.49 2.74 C5.49 2.82, 5.49 2.66, 5.49 2.74" stroke="#343a40" stroke-width="1" fill="none"></path></g></svg>