<svg version="1.1" xmlns="http://www.w3.org/2000/svg" viewBox="0 0 309.00466101886195 309.0046610188619" width="309.00466101886195" height="309.0046610188619">
  <!-- svg-source:excalidraw -->
  
  <defs>
    <style class="style-fonts">
      @font-face {
        font-family: "Virgil";
        src: url("https://excalidraw.com/Virgil.woff2");
      }
      @font-face {
        font-family: "Cascadia";
        src: url("https://excalidraw.com/Cascadia.woff2");
      }
    </style>
    
  </defs>
  <g stroke-linecap="round" transform="translate(79.00233050943098 79.00233050943092) rotate(179.98425399949974 75.5 75.5)"><path d="M151 75.5 C151 78.32, 150.84 81.15, 150.53 83.95 C150.21 86.75, 149.73 89.55, 149.11 92.3 C148.48 95.05, 147.69 97.78, 146.76 100.44 C145.83 103.1, 144.75 105.72, 143.52 108.26 C142.3 110.8, 140.93 113.28, 139.43 115.67 C137.93 118.05, 136.29 120.37, 134.53 122.57 C132.77 124.78, 130.88 126.89, 128.89 128.89 C126.89 130.88, 124.78 132.77, 122.57 134.53 C120.37 136.29, 118.05 137.93, 115.67 139.43 C113.28 140.93, 110.8 142.3, 108.26 143.52 C105.72 144.75, 103.1 145.83, 100.44 146.76 C97.78 147.69, 95.05 148.48, 92.3 149.11 C89.55 149.73, 86.75 150.21, 83.95 150.53 C81.15 150.84, 78.32 151, 75.5 151 C72.68 151, 69.85 150.84, 67.05 150.53 C64.25 150.21, 61.45 149.73, 58.7 149.11 C55.95 148.48, 53.22 147.69, 50.56 146.76 C47.9 145.83, 45.28 144.75, 42.74 143.52 C40.2 142.3, 37.72 140.93, 35.33 139.43 C32.95 137.93, 30.63 136.29, 28.43 134.53 C26.22 132.77, 24.11 130.88, 22.11 128.89 C20.12 126.89, 18.23 124.78, 16.47 122.57 C14.71 120.37, 13.07 118.05, 11.57 115.67 C10.07 113.28, 8.7 110.8, 7.48 108.26 C6.25 105.72, 5.17 103.1, 4.24 100.44 C3.31 97.78, 2.52 95.05, 1.89 92.3 C1.27 89.55, 0.79 86.75, 0.47 83.95 C0.16 81.15, 0 78.32, 0 75.5 C0 72.68, 0.16 69.85, 0.47 67.05 C0.79 64.25, 1.27 61.45, 1.89 58.7 C2.52 55.95, 3.31 53.22, 4.24 50.56 C5.17 47.9, 6.25 45.28, 7.48 42.74 C8.7 40.2, 10.07 37.72, 11.57 35.33 C13.07 32.95, 14.71 30.63, 16.47 28.43 C18.23 26.22, 20.12 24.11, 22.11 22.11 C24.11 20.12, 26.22 18.23, 28.43 16.47 C30.63 14.71, 32.95 13.07, 35.33 11.57 C37.72 10.07, 40.2 8.7, 42.74 7.48 C45.28 6.25, 47.9 5.17, 50.56 4.24 C53.22 3.31, 55.95 2.52, 58.7 1.89 C61.45 1.27, 64.25 0.79, 67.05 0.47 C69.85 0.16, 72.68 0, 75.5 0 C78.32 0, 81.15 0.16, 83.95 0.47 C86.75 0.79, 89.55 1.27, 92.3 1.89 C95.05 2.52, 97.78 3.31, 100.44 4.24 C103.1 5.17, 105.72 6.25, 108.26 7.48 C110.8 8.7, 113.28 10.07, 115.67 11.57 C118.05 13.07, 120.37 14.71, 122.57 16.47 C124.78 18.23, 126.89 20.12, 128.89 22.11 C130.88 24.11, 132.77 26.22, 134.53 28.43 C136.29 30.63, 137.93 32.95, 139.43 35.33 C140.93 37.72, 142.3 40.2, 143.52 42.74 C144.75 45.28, 145.83 47.9, 146.76 50.56 C147.69 53.22, 148.48 55.95, 149.11 58.7 C149.73 61.45, 150.21 64.25, 150.53 67.05 C150.84 69.85, 150.92 74.09, 151 75.5 C151.08 76.91, 151.08 74.09, 151 75.5" stroke="none" stroke-width="0" fill="#ced4da"></path><path d="M151 75.5 C151 78.32, 150.84 81.15, 150.53 83.95 C150.21 86.75, 149.73 89.55, 149.11 92.3 C148.48 95.05, 147.69 97.78, 146.76 100.44 C145.83 103.1, 144.75 105.72, 143.52 108.26 C142.3 110.8, 140.93 113.28, 139.43 115.67 C137.93 118.05, 136.29 120.37, 134.53 122.57 C132.77 124.78, 130.88 126.89, 128.89 128.89 C126.89 130.88, 124.78 132.77, 122.57 134.53 C120.37 136.29, 118.05 137.93, 115.67 139.43 C113.28 140.93, 110.8 142.3, 108.26 143.52 C105.72 144.75, 103.1 145.83, 100.44 146.76 C97.78 147.69, 95.05 148.48, 92.3 149.11 C89.55 149.73, 86.75 150.21, 83.95 150.53 C81.15 150.84, 78.32 151, 75.5 151 C72.68 151, 69.85 150.84, 67.05 150.53 C64.25 150.21, 61.45 149.73, 58.7 149.11 C55.95 148.48, 53.22 147.69, 50.56 146.76 C47.9 145.83, 45.28 144.75, 42.74 143.52 C40.2 142.3, 37.72 140.93, 35.33 139.43 C32.95 137.93, 30.63 136.29, 28.43 134.53 C26.22 132.77, 24.11 130.88, 22.11 128.89 C20.12 126.89, 18.23 124.78, 16.47 122.57 C14.71 120.37, 13.07 118.05, 11.57 115.67 C10.07 113.28, 8.7 110.8, 7.48 108.26 C6.25 105.72, 5.17 103.1, 4.24 100.44 C3.31 97.78, 2.52 95.05, 1.89 92.3 C1.27 89.55, 0.79 86.75, 0.47 83.95 C0.16 81.15, 0 78.32, 0 75.5 C0 72.68, 0.16 69.85, 0.47 67.05 C0.79 64.25, 1.27 61.45, 1.89 58.7 C2.52 55.95, 3.31 53.22, 4.24 50.56 C5.17 47.9, 6.25 45.28, 7.48 42.74 C8.7 40.2, 10.07 37.72, 11.57 35.33 C13.07 32.95, 14.71 30.63, 16.47 28.43 C18.23 26.22, 20.12 24.11, 22.11 22.11 C24.11 20.12, 26.22 18.23, 28.43 16.47 C30.63 14.71, 32.95 13.07, 35.33 11.57 C37.72 10.07, 40.2 8.7, 42.74 7.48 C45.28 6.25, 47.9 5.17, 50.56 4.24 C53.22 3.31, 55.95 2.52, 58.7 1.89 C61.45 1.27, 64.25 0.79, 67.05 0.47 C69.85 0.16, 72.68 0, 75.5 0 C78.32 0, 81.15 0.16, 83.95 0.47 C86.75 0.79, 89.55 1.27, 92.3 1.89 C95.05 2.52, 97.78 3.31, 100.44 4.24 C103.1 5.17, 105.72 6.25, 108.26 7.48 C110.8 8.7, 113.28 10.07, 115.67 11.57 C118.05 13.07, 120.37 14.71, 122.57 16.47 C124.78 18.23, 126.89 20.12, 128.89 22.11 C130.88 24.11, 132.77 26.22, 134.53 28.43 C136.29 30.63, 137.93 32.95, 139.43 35.33 C140.93 37.72, 142.3 40.2, 143.52 42.74 C144.75 45.28, 145.83 47.9, 146.76 50.56 C147.69 53.22, 148.48 55.95, 149.11 58.7 C149.73 61.45, 150.21 64.25, 150.53 67.05 C150.84 69.85, 150.92 74.09, 151 75.5 C151.08 76.91, 151.08 74.09, 151 75.5" stroke="#1e1e1e" stroke-width="2" fill="none"></path></g><g stroke-linecap="round" transform="translate(146.00233050943098 10.00233050943092) rotate(179.98425399949974 8.5 144.5)"><path d="M4.25 0 L14.61 0.27 L15.94 1.06 L17 4.25 L17 284.75 L15.94 287.94 L12.75 289 L2.39 288.73 L1.06 287.94 L0 284.75 L0 4.25 L1.06 1.06 L4.25 0" stroke="none" stroke-width="0" fill="#868e96"></path><path d="M4.25 0 M4.25 0 C6.86 0, 9.47 0, 12.75 0 M4.25 0 C6.78 0, 9.31 0, 12.75 0 M12.75 0 C15.58 0, 17 1.42, 17 4.25 M12.75 0 C15.58 0, 17 1.42, 17 4.25 M17 4.25 C17 102.96, 17 201.66, 17 284.75 M17 4.25 C17 88.24, 17 172.24, 17 284.75 M17 284.75 C17 287.58, 15.58 289, 12.75 289 M17 284.75 C17 287.58, 15.58 289, 12.75 289 M12.75 289 C10.67 289, 8.58 289, 4.25 289 M12.75 289 C9.62 289, 6.49 289, 4.25 289 M4.25 289 C1.42 289, 0 287.58, 0 284.75 M4.25 289 C1.42 289, 0 287.58, 0 284.75 M0 284.75 C0 216.49, 0 148.23, 0 4.25 M0 284.75 C0 184.97, 0 85.19, 0 4.25 M0 4.25 C0 1.42, 1.42 0, 4.25 0 M0 4.25 C0 1.42, 1.42 0, 4.25 0" stroke="#1e1e1e" stroke-width="2" fill="none"></path></g><g stroke-linecap="round" transform="translate(146.00233050943098 10.00233050943092) rotate(269.98425399949963 8.5 144.5)"><path d="M4.25 0 L14.61 0.27 L15.94 1.06 L17 4.25 L17 284.75 L15.94 287.94 L12.75 289 L2.39 288.73 L1.06 287.94 L0 284.75 L0 4.25 L1.06 1.06 L4.25 0" stroke="none" stroke-width="0" fill="#868e96"></path><path d="M4.25 0 M4.25 0 C6.49 0, 8.72 0, 12.75 0 M4.25 0 C7.24 0, 10.23 0, 12.75 0 M12.75 0 C15.58 0, 17 1.42, 17 4.25 M12.75 0 C15.58 0, 17 1.42, 17 4.25 M17 4.25 C17 66.79, 17 129.32, 17 284.75 M17 4.25 C17 87.29, 17 170.32, 17 284.75 M17 284.75 C17 287.58, 15.58 289, 12.75 289 M17 284.75 C17 287.58, 15.58 289, 12.75 289 M12.75 289 C10.34 289, 7.92 289, 4.25 289 M12.75 289 C10.59 289, 8.44 289, 4.25 289 M4.25 289 C1.42 289, 0 287.58, 0 284.75 M4.25 289 C1.42 289, 0 287.58, 0 284.75 M0 284.75 C0 225.03, 0 165.31, 0 4.25 M0 284.75 C0 197.89, 0 111.03, 0 4.25 M0 4.25 C0 1.42, 1.42 0, 4.25 0 M0 4.25 C0 1.42, 1.42 0, 4.25 0" stroke="#1e1e1e" stroke-width="2" fill="none"></path></g><g stroke-linecap="round" transform="translate(146.00233050943098 10.00233050943092) rotate(224.98425399949977 8.5 144.5)"><path d="M4.25 0 L14.61 0.27 L15.94 1.06 L17 4.25 L17 284.75 L15.94 287.94 L12.75 289 L2.39 288.73 L1.06 287.94 L0 284.75 L0 4.25 L1.06 1.06 L4.25 0" stroke="none" stroke-width="0" fill="#868e96"></path><path d="M4.25 0 M4.25 0 C6.75 0, 9.24 0, 12.75 0 M4.25 0 C7.13 0, 10.01 0, 12.75 0 M12.75 0 C15.58 0, 17 1.42, 17 4.25 M12.75 0 C15.58 0, 17 1.42, 17 4.25 M17 4.25 C17 109.68, 17 215.12, 17 284.75 M17 4.25 C17 71.71, 17 139.17, 17 284.75 M17 284.75 C17 287.58, 15.58 289, 12.75 289 M17 284.75 C17 287.58, 15.58 289, 12.75 289 M12.75 289 C10.27 289, 7.79 289, 4.25 289 M12.75 289 C10.6 289, 8.44 289, 4.25 289 M4.25 289 C1.42 289, 0 287.58, 0 284.75 M4.25 289 C1.42 289, 0 287.58, 0 284.75 M0 284.75 C0 227.38, 0 170, 0 4.25 M0 284.75 C0 226.08, 0 167.41, 0 4.25 M0 4.25 C0 1.42, 1.42 0, 4.25 0 M0 4.25 C0 1.42, 1.42 0, 4.25 0" stroke="#1e1e1e" stroke-width="2" fill="none"></path></g><g stroke-linecap="round" transform="translate(146.00233050943098 10.00233050943092) rotate(314.9842539994997 8.5 144.5)"><path d="M4.25 0 L14.61 0.27 L15.94 1.06 L17 4.25 L17 284.75 L15.94 287.94 L12.75 289 L2.39 288.73 L1.06 287.94 L0 284.75 L0 4.25 L1.06 1.06 L4.25 0" stroke="none" stroke-width="0" fill="#868e96"></path><path d="M4.25 0 M4.25 0 C7.36 0, 10.48 0, 12.75 0 M4.25 0 C6.23 0, 8.21 0, 12.75 0 M12.75 0 C15.58 0, 17 1.42, 17 4.25 M12.75 0 C15.58 0, 17 1.42, 17 4.25 M17 4.25 C17 78.9, 17 153.55, 17 284.75 M17 4.25 C17 91.87, 17 179.49, 17 284.75 M17 284.75 C17 287.58, 15.58 289, 12.75 289 M17 284.75 C17 287.58, 15.58 289, 12.75 289 M12.75 289 C10.42 289, 8.1 289, 4.25 289 M12.75 289 C10.28 289, 7.81 289, 4.25 289 M4.25 289 C1.42 289, 0 287.58, 0 284.75 M4.25 289 C1.42 289, 0 287.58, 0 284.75 M0 284.75 C0 218.27, 0 151.79, 0 4.25 M0 284.75 C0 212.39, 0 140.03, 0 4.25 M0 4.25 C0 1.42, 1.42 0, 4.25 0 M0 4.25 C0 1.42, 1.42 0, 4.25 0" stroke="#1e1e1e" stroke-width="2" fill="none"></path></g><g stroke-linecap="round" transform="translate(98.00233050943098 98.00233050943092) rotate(179.98425399949974 56.5 56.5)"><path d="M113 56.5 C113 58.96, 112.84 61.44, 112.52 63.87 C112.2 66.31, 111.71 68.75, 111.07 71.12 C110.44 73.5, 109.64 75.85, 108.7 78.12 C107.76 80.39, 106.66 82.62, 105.43 84.75 C104.2 86.88, 102.82 88.94, 101.32 90.9 C99.83 92.85, 98.19 94.71, 96.45 96.45 C94.71 98.19, 92.85 99.83, 90.9 101.32 C88.94 102.82, 86.88 104.2, 84.75 105.43 C82.62 106.66, 80.39 107.76, 78.12 108.7 C75.85 109.64, 73.5 110.44, 71.12 111.07 C68.75 111.71, 66.31 112.2, 63.87 112.52 C61.44 112.84, 58.96 113, 56.5 113 C54.04 113, 51.56 112.84, 49.13 112.52 C46.69 112.2, 44.25 111.71, 41.88 111.07 C39.5 110.44, 37.15 109.64, 34.88 108.7 C32.61 107.76, 30.38 106.66, 28.25 105.43 C26.12 104.2, 24.06 102.82, 22.1 101.32 C20.15 99.83, 18.29 98.19, 16.55 96.45 C14.81 94.71, 13.17 92.85, 11.68 90.9 C10.18 88.94, 8.8 86.88, 7.57 84.75 C6.34 82.62, 5.24 80.39, 4.3 78.12 C3.36 75.85, 2.56 73.5, 1.93 71.12 C1.29 68.75, 0.8 66.31, 0.48 63.87 C0.16 61.44, 0 58.96, 0 56.5 C0 54.04, 0.16 51.56, 0.48 49.13 C0.8 46.69, 1.29 44.25, 1.93 41.88 C2.56 39.5, 3.36 37.15, 4.3 34.88 C5.24 32.61, 6.34 30.38, 7.57 28.25 C8.8 26.12, 10.18 24.06, 11.68 22.1 C13.17 20.15, 14.81 18.29, 16.55 16.55 C18.29 14.81, 20.15 13.17, 22.1 11.68 C24.06 10.18, 26.12 8.8, 28.25 7.57 C30.38 6.34, 32.61 5.24, 34.88 4.3 C37.15 3.36, 39.5 2.56, 41.88 1.93 C44.25 1.29, 46.69 0.8, 49.13 0.48 C51.56 0.16, 54.04 0, 56.5 0 C58.96 0, 61.44 0.16, 63.87 0.48 C66.31 0.8, 68.75 1.29, 71.12 1.93 C73.5 2.56, 75.85 3.36, 78.12 4.3 C80.39 5.24, 82.62 6.34, 84.75 7.57 C86.88 8.8, 88.94 10.18, 90.9 11.68 C92.85 13.17, 94.71 14.81, 96.45 16.55 C98.19 18.29, 99.83 20.15, 101.32 22.1 C102.82 24.06, 104.2 26.12, 105.43 28.25 C106.66 30.38, 107.76 32.61, 108.7 34.88 C109.64 37.15, 110.44 39.5, 111.07 41.88 C111.71 44.25, 112.2 46.69, 112.52 49.13 C112.84 51.56, 112.92 55.27, 113 56.5 C113.08 57.73, 113.08 55.27, 113 56.5" stroke="none" stroke-width="0" fill="#868e96"></path><path d="M113 56.5 C113 58.96, 112.84 61.44, 112.52 63.87 C112.2 66.31, 111.71 68.75, 111.07 71.12 C110.44 73.5, 109.64 75.85, 108.7 78.12 C107.76 80.39, 106.66 82.62, 105.43 84.75 C104.2 86.88, 102.82 88.94, 101.32 90.9 C99.83 92.85, 98.19 94.71, 96.45 96.45 C94.71 98.19, 92.85 99.83, 90.9 101.32 C88.94 102.82, 86.88 104.2, 84.75 105.43 C82.62 106.66, 80.39 107.76, 78.12 108.7 C75.85 109.64, 73.5 110.44, 71.12 111.07 C68.75 111.71, 66.31 112.2, 63.87 112.52 C61.44 112.84, 58.96 113, 56.5 113 C54.04 113, 51.56 112.84, 49.13 112.52 C46.69 112.2, 44.25 111.71, 41.88 111.07 C39.5 110.44, 37.15 109.64, 34.88 108.7 C32.61 107.76, 30.38 106.66, 28.25 105.43 C26.12 104.2, 24.06 102.82, 22.1 101.32 C20.15 99.83, 18.29 98.19, 16.55 96.45 C14.81 94.71, 13.17 92.85, 11.68 90.9 C10.18 88.94, 8.8 86.88, 7.57 84.75 C6.34 82.62, 5.24 80.39, 4.3 78.12 C3.36 75.85, 2.56 73.5, 1.93 71.12 C1.29 68.75, 0.8 66.31, 0.48 63.87 C0.16 61.44, 0 58.96, 0 56.5 C0 54.04, 0.16 51.56, 0.48 49.13 C0.8 46.69, 1.29 44.25, 1.93 41.88 C2.56 39.5, 3.36 37.15, 4.3 34.88 C5.24 32.61, 6.34 30.38, 7.57 28.25 C8.8 26.12, 10.18 24.06, 11.68 22.1 C13.17 20.15, 14.81 18.29, 16.55 16.55 C18.29 14.81, 20.15 13.17, 22.1 11.68 C24.06 10.18, 26.12 8.8, 28.25 7.57 C30.38 6.34, 32.61 5.24, 34.88 4.3 C37.15 3.36, 39.5 2.56, 41.88 1.93 C44.25 1.29, 46.69 0.8, 49.13 0.48 C51.56 0.16, 54.04 0, 56.5 0 C58.96 0, 61.44 0.16, 63.87 0.48 C66.31 0.8, 68.75 1.29, 71.12 1.93 C73.5 2.56, 75.85 3.36, 78.12 4.3 C80.39 5.24, 82.62 6.34, 84.75 7.57 C86.88 8.8, 88.94 10.18, 90.9 11.68 C92.85 13.17, 94.71 14.81, 96.45 16.55 C98.19 18.29, 99.83 20.15, 101.32 22.1 C102.82 24.06, 104.2 26.12, 105.43 28.25 C106.66 30.38, 107.76 32.61, 108.7 34.88 C109.64 37.15, 110.44 39.5, 111.07 41.88 C111.71 44.25, 112.2 46.69, 112.52 49.13 C112.84 51.56, 112.92 55.27, 113 56.5 C113.08 57.73, 113.08 55.27, 113 56.5" stroke="#1e1e1e" stroke-width="2" fill="none"></path></g><g stroke-linecap="round" transform="translate(133.50233050943098 133.50233050943092) rotate(179.98425399949974 21 21)"><path d="M42 21 C42 22.22, 41.89 23.45, 41.68 24.65 C41.47 25.84, 41.15 27.04, 40.73 28.18 C40.32 29.32, 39.79 30.45, 39.19 31.5 C38.58 32.55, 37.87 33.57, 37.09 34.5 C36.31 35.43, 35.43 36.31, 34.5 37.09 C33.57 37.87, 32.55 38.58, 31.5 39.19 C30.45 39.79, 29.32 40.32, 28.18 40.73 C27.04 41.15, 25.84 41.47, 24.65 41.68 C23.45 41.89, 22.22 42, 21 42 C19.78 42, 18.55 41.89, 17.35 41.68 C16.16 41.47, 14.96 41.15, 13.82 40.73 C12.68 40.32, 11.55 39.79, 10.5 39.19 C9.45 38.58, 8.43 37.87, 7.5 37.09 C6.57 36.31, 5.69 35.43, 4.91 34.5 C4.13 33.57, 3.42 32.55, 2.81 31.5 C2.21 30.45, 1.68 29.32, 1.27 28.18 C0.85 27.04, 0.53 25.84, 0.32 24.65 C0.11 23.45, 0 22.22, 0 21 C0 19.78, 0.11 18.55, 0.32 17.35 C0.53 16.16, 0.85 14.96, 1.27 13.82 C1.68 12.68, 2.21 11.55, 2.81 10.5 C3.42 9.45, 4.13 8.43, 4.91 7.5 C5.69 6.57, 6.57 5.69, 7.5 4.91 C8.43 4.13, 9.45 3.42, 10.5 2.81 C11.55 2.21, 12.68 1.68, 13.82 1.27 C14.96 0.85, 16.16 0.53, 17.35 0.32 C18.55 0.11, 19.78 0, 21 0 C22.22 0, 23.45 0.11, 24.65 0.32 C25.84 0.53, 27.04 0.85, 28.18 1.27 C29.32 1.68, 30.45 2.21, 31.5 2.81 C32.55 3.42, 33.57 4.13, 34.5 4.91 C35.43 5.69, 36.31 6.57, 37.09 7.5 C37.87 8.43, 38.58 9.45, 39.19 10.5 C39.79 11.55, 40.32 12.68, 40.73 13.82 C41.15 14.96, 41.47 16.16, 41.68 17.35 C41.89 18.55, 41.95 20.39, 42 21 C42.05 21.61, 42.05 20.39, 42 21" stroke="none" stroke-width="0" fill="#343a40"></path><path d="M42 21 C42 22.22, 41.89 23.45, 41.68 24.65 C41.47 25.84, 41.15 27.04, 40.73 28.18 C40.32 29.32, 39.79 30.45, 39.19 31.5 C38.58 32.55, 37.87 33.57, 37.09 34.5 C36.31 35.43, 35.43 36.31, 34.5 37.09 C33.57 37.87, 32.55 38.58, 31.5 39.19 C30.45 39.79, 29.32 40.32, 28.18 40.73 C27.04 41.15, 25.84 41.47, 24.65 41.68 C23.45 41.89, 22.22 42, 21 42 C19.78 42, 18.55 41.89, 17.35 41.68 C16.16 41.47, 14.96 41.15, 13.82 40.73 C12.68 40.32, 11.55 39.79, 10.5 39.19 C9.45 38.58, 8.43 37.87, 7.5 37.09 C6.57 36.31, 5.69 35.43, 4.91 34.5 C4.13 33.57, 3.42 32.55, 2.81 31.5 C2.21 30.45, 1.68 29.32, 1.27 28.18 C0.85 27.04, 0.53 25.84, 0.32 24.65 C0.11 23.45, 0 22.22, 0 21 C0 19.78, 0.11 18.55, 0.32 17.35 C0.53 16.16, 0.85 14.96, 1.27 13.82 C1.68 12.68, 2.21 11.55, 2.81 10.5 C3.42 9.45, 4.13 8.43, 4.91 7.5 C5.69 6.57, 6.57 5.69, 7.5 4.91 C8.43 4.13, 9.45 3.42, 10.5 2.81 C11.55 2.21, 12.68 1.68, 13.82 1.27 C14.96 0.85, 16.16 0.53, 17.35 0.32 C18.55 0.11, 19.78 0, 21 0 C22.22 0, 23.45 0.11, 24.65 0.32 C25.84 0.53, 27.04 0.85, 28.18 1.27 C29.32 1.68, 30.45 2.21, 31.5 2.81 C32.55 3.42, 33.57 4.13, 34.5 4.91 C35.43 5.69, 36.31 6.57, 37.09 7.5 C37.87 8.43, 38.58 9.45, 39.19 10.5 C39.79 11.55, 40.32 12.68, 40.73 13.82 C41.15 14.96, 41.47 16.16, 41.68 17.35 C41.89 18.55, 41.95 20.39, 42 21 C42.05 21.61, 42.05 20.39, 42 21" stroke="#1e1e1e" stroke-width="2" fill="none"></path></g></svg>