<svg version="1.1" xmlns="http://www.w3.org/2000/svg" viewBox="0 0 408 408" width="408" height="408">
  <!-- svg-source:excalidraw -->
  
  <defs>
    <style class="style-fonts">
      @font-face {
        font-family: "Virgil";
        src: url("https://excalidraw.com/Virgil.woff2");
      }
      @font-face {
        font-family: "Cascadia";
        src: url("https://excalidraw.com/Cascadia.woff2");
      }
    </style>
    
  </defs>
  <g stroke-linecap="round" transform="translate(10 10) rotate(0 194 194)"><path d="M0 0 L388 0 L388 388 L0 388" stroke="none" stroke-width="0" fill="#868e96"></path><path d="M0 0 C98.32 0, 196.64 0, 388 0 M0 0 C94.42 0, 188.84 0, 388 0 M388 0 C388 81.15, 388 162.31, 388 388 M388 0 C388 86.56, 388 173.11, 388 388 M388 388 C242.17 388, 96.34 388, 0 388 M388 388 C283.85 388, 179.7 388, 0 388 M0 388 C0 283.08, 0 178.17, 0 0 M0 388 C0 287.75, 0 187.5, 0 0" stroke="#1e1e1e" stroke-width="4" fill="none"></path></g><g stroke-linecap="round" transform="translate(26.510638297872333 26.510638297872333) rotate(0 177.4893617021276 177.4893617021276)"><path d="M0 0 L354.98 0 L354.98 354.98 L0 354.98" stroke="none" stroke-width="0" fill="#ced4da"></path><path d="M0 0 C103.13 0, 206.26 0, 354.98 0 M0 0 C75.58 0, 151.15 0, 354.98 0 M354.98 0 C354.98 91.57, 354.98 183.14, 354.98 354.98 M354.98 0 C354.98 127.18, 354.98 254.36, 354.98 354.98 M354.98 354.98 C220.35 354.98, 85.73 354.98, 0 354.98 M354.98 354.98 C270.12 354.98, 185.26 354.98, 0 354.98 M0 354.98 C0 246.62, 0 138.25, 0 0 M0 354.98 C0 237.3, 0 119.63, 0 0" stroke="#1e1e1e" stroke-width="4" fill="none"></path></g><g stroke-linecap="round" transform="translate(71.39893617021278 71.39893617021278) rotate(0 132.60106382978717 132.60106382978722)"><path d="M265.2 132.6 C265.2 136.25, 265.05 139.91, 264.75 143.55 C264.45 147.19, 263.99 150.83, 263.39 154.43 C262.79 158.03, 262.04 161.61, 261.14 165.15 C260.25 168.69, 259.2 172.2, 258.02 175.66 C256.83 179.11, 255.5 182.52, 254.03 185.87 C252.57 189.21, 250.96 192.5, 249.22 195.71 C247.48 198.92, 245.61 202.07, 243.61 205.13 C241.61 208.18, 239.48 211.17, 237.24 214.05 C235 216.93, 232.63 219.72, 230.16 222.41 C227.69 225.09, 225.09 227.69, 222.41 230.16 C219.72 232.63, 216.93 235, 214.05 237.24 C211.17 239.48, 208.18 241.61, 205.13 243.61 C202.07 245.61, 198.92 247.48, 195.71 249.22 C192.5 250.96, 189.21 252.57, 185.87 254.03 C182.52 255.5, 179.11 256.83, 175.66 258.02 C172.2 259.2, 168.69 260.25, 165.15 261.14 C161.61 262.04, 158.03 262.79, 154.43 263.39 C150.83 263.99, 147.19 264.45, 143.55 264.75 C139.91 265.05, 136.25 265.2, 132.6 265.2 C128.95 265.2, 125.29 265.05, 121.65 264.75 C118.01 264.45, 114.38 263.99, 110.78 263.39 C107.18 262.79, 103.59 262.04, 100.05 261.14 C96.51 260.25, 93 259.2, 89.55 258.02 C86.09 256.83, 82.68 255.5, 79.34 254.03 C75.99 252.57, 72.7 250.96, 69.49 249.22 C66.28 247.48, 63.13 245.61, 60.08 243.61 C57.02 241.61, 54.04 239.48, 51.16 237.24 C48.28 235, 45.48 232.63, 42.79 230.16 C40.11 227.69, 37.52 225.09, 35.04 222.41 C32.57 219.72, 30.2 216.93, 27.96 214.05 C25.72 211.17, 23.59 208.18, 21.59 205.13 C19.6 202.07, 17.72 198.92, 15.98 195.71 C14.24 192.5, 12.63 189.21, 11.17 185.87 C9.7 182.52, 8.37 179.11, 7.18 175.66 C6 172.2, 4.95 168.69, 4.06 165.15 C3.16 161.61, 2.41 158.03, 1.81 154.43 C1.21 150.83, 0.75 147.19, 0.45 143.55 C0.15 139.91, 0 136.25, 0 132.6 C0 128.95, 0.15 125.29, 0.45 121.65 C0.75 118.01, 1.21 114.38, 1.81 110.78 C2.41 107.18, 3.16 103.59, 4.06 100.05 C4.95 96.51, 6 93, 7.18 89.55 C8.37 86.09, 9.7 82.68, 11.17 79.34 C12.63 75.99, 14.24 72.7, 15.98 69.49 C17.72 66.28, 19.6 63.13, 21.59 60.08 C23.59 57.02, 25.72 54.04, 27.96 51.16 C30.2 48.28, 32.57 45.48, 35.04 42.79 C37.52 40.11, 40.11 37.52, 42.79 35.04 C45.48 32.57, 48.28 30.2, 51.16 27.96 C54.04 25.72, 57.02 23.59, 60.08 21.59 C63.13 19.6, 66.28 17.72, 69.49 15.98 C72.7 14.24, 75.99 12.63, 79.34 11.17 C82.68 9.7, 86.09 8.37, 89.55 7.18 C93 6, 96.51 4.95, 100.05 4.06 C103.59 3.16, 107.18 2.41, 110.78 1.81 C114.38 1.21, 118.01 0.75, 121.65 0.45 C125.29 0.15, 128.95 0, 132.6 0 C136.25 0, 139.91 0.15, 143.55 0.45 C147.19 0.75, 150.83 1.21, 154.43 1.81 C158.03 2.41, 161.61 3.16, 165.15 4.06 C168.69 4.95, 172.2 6, 175.66 7.18 C179.11 8.37, 182.52 9.7, 185.87 11.17 C189.21 12.63, 192.5 14.24, 195.71 15.98 C198.92 17.72, 202.07 19.6, 205.13 21.59 C208.18 23.59, 211.17 25.72, 214.05 27.96 C216.93 30.2, 219.72 32.57, 222.41 35.04 C225.09 37.52, 227.69 40.11, 230.16 42.79 C232.63 45.48, 235 48.28, 237.24 51.16 C239.48 54.04, 241.61 57.02, 243.61 60.08 C245.61 63.13, 247.48 66.28, 249.22 69.49 C250.96 72.7, 252.57 75.99, 254.03 79.34 C255.5 82.68, 256.83 86.09, 258.02 89.55 C259.2 93, 260.25 96.51, 261.14 100.05 C262.04 103.59, 262.79 107.18, 263.39 110.78 C263.99 114.38, 264.45 118.01, 264.75 121.65 C265.05 125.29, 265.2 128.95, 265.2 132.6" stroke="none" stroke-width="0" fill="#868e96"></path><path d="M265.2 132.6 C265.2 136.25, 265.05 139.91, 264.75 143.55 C264.45 147.19, 263.99 150.83, 263.39 154.43 C262.79 158.03, 262.04 161.61, 261.14 165.15 C260.25 168.69, 259.2 172.2, 258.02 175.66 C256.83 179.11, 255.5 182.52, 254.03 185.87 C252.57 189.21, 250.96 192.5, 249.22 195.71 C247.48 198.92, 245.61 202.07, 243.61 205.13 C241.61 208.18, 239.48 211.17, 237.24 214.05 C235 216.93, 232.63 219.72, 230.16 222.41 C227.69 225.09, 225.09 227.69, 222.41 230.16 C219.72 232.63, 216.93 235, 214.05 237.24 C211.17 239.48, 208.18 241.61, 205.13 243.61 C202.07 245.61, 198.92 247.48, 195.71 249.22 C192.5 250.96, 189.21 252.57, 185.87 254.03 C182.52 255.5, 179.11 256.83, 175.66 258.02 C172.2 259.2, 168.69 260.25, 165.15 261.14 C161.61 262.04, 158.03 262.79, 154.43 263.39 C150.83 263.99, 147.19 264.45, 143.55 264.75 C139.91 265.05, 136.25 265.2, 132.6 265.2 C128.95 265.2, 125.29 265.05, 121.65 264.75 C118.01 264.45, 114.38 263.99, 110.78 263.39 C107.18 262.79, 103.59 262.04, 100.05 261.14 C96.51 260.25, 93 259.2, 89.55 258.02 C86.09 256.83, 82.68 255.5, 79.34 254.03 C75.99 252.57, 72.7 250.96, 69.49 249.22 C66.28 247.48, 63.13 245.61, 60.08 243.61 C57.02 241.61, 54.04 239.48, 51.16 237.24 C48.28 235, 45.48 232.63, 42.79 230.16 C40.11 227.69, 37.52 225.09, 35.04 222.41 C32.57 219.72, 30.2 216.93, 27.96 214.05 C25.72 211.17, 23.59 208.18, 21.59 205.13 C19.6 202.07, 17.72 198.92, 15.98 195.71 C14.24 192.5, 12.63 189.21, 11.17 185.87 C9.7 182.52, 8.37 179.11, 7.18 175.66 C6 172.2, 4.95 168.69, 4.06 165.15 C3.16 161.61, 2.41 158.03, 1.81 154.43 C1.21 150.83, 0.75 147.19, 0.45 143.55 C0.15 139.91, 0 136.25, 0 132.6 C0 128.95, 0.15 125.29, 0.45 121.65 C0.75 118.01, 1.21 114.38, 1.81 110.78 C2.41 107.18, 3.16 103.59, 4.06 100.05 C4.95 96.51, 6 93, 7.18 89.55 C8.37 86.09, 9.7 82.68, 11.17 79.34 C12.63 75.99, 14.24 72.7, 15.98 69.49 C17.72 66.28, 19.6 63.13, 21.59 60.08 C23.59 57.02, 25.72 54.04, 27.96 51.16 C30.2 48.28, 32.57 45.48, 35.04 42.79 C37.52 40.11, 40.11 37.52, 42.79 35.04 C45.48 32.57, 48.28 30.2, 51.16 27.96 C54.04 25.72, 57.02 23.59, 60.08 21.59 C63.13 19.6, 66.28 17.72, 69.49 15.98 C72.7 14.24, 75.99 12.63, 79.34 11.17 C82.68 9.7, 86.09 8.37, 89.55 7.18 C93 6, 96.51 4.95, 100.05 4.06 C103.59 3.16, 107.18 2.41, 110.78 1.81 C114.38 1.21, 118.01 0.75, 121.65 0.45 C125.29 0.15, 128.95 0, 132.6 0 C136.25 0, 139.91 0.15, 143.55 0.45 C147.19 0.75, 150.83 1.21, 154.43 1.81 C158.03 2.41, 161.61 3.16, 165.15 4.06 C168.69 4.95, 172.2 6, 175.66 7.18 C179.11 8.37, 182.52 9.7, 185.87 11.17 C189.21 12.63, 192.5 14.24, 195.71 15.98 C198.92 17.72, 202.07 19.6, 205.13 21.59 C208.18 23.59, 211.17 25.72, 214.05 27.96 C216.93 30.2, 219.72 32.57, 222.41 35.04 C225.09 37.52, 227.69 40.11, 230.16 42.79 C232.63 45.48, 235 48.28, 237.24 51.16 C239.48 54.04, 241.61 57.02, 243.61 60.08 C245.61 63.13, 247.48 66.28, 249.22 69.49 C250.96 72.7, 252.57 75.99, 254.03 79.34 C255.5 82.68, 256.83 86.09, 258.02 89.55 C259.2 93, 260.25 96.51, 261.14 100.05 C262.04 103.59, 262.79 107.18, 263.39 110.78 C263.99 114.38, 264.45 118.01, 264.75 121.65 C265.05 125.29, 265.2 128.95, 265.2 132.6" stroke="#1e1e1e" stroke-width="4" fill="none"></path></g><g stroke-linecap="round" transform="translate(284.48936170212755 354.14361702127644) rotate(0 8.255319148936223 8.255319148936167)"><path d="M16.51 8.26 C16.51 8.73, 16.47 9.22, 16.39 9.69 C16.3 10.16, 16.18 10.63, 16.01 11.08 C15.85 11.53, 15.64 11.97, 15.4 12.38 C15.17 12.8, 14.89 13.2, 14.58 13.56 C14.27 13.93, 13.93 14.27, 13.56 14.58 C13.2 14.89, 12.8 15.17, 12.38 15.4 C11.97 15.64, 11.53 15.85, 11.08 16.01 C10.63 16.18, 10.16 16.3, 9.69 16.39 C9.22 16.47, 8.73 16.51, 8.26 16.51 C7.78 16.51, 7.29 16.47, 6.82 16.39 C6.35 16.3, 5.88 16.18, 5.43 16.01 C4.98 15.85, 4.54 15.64, 4.13 15.4 C3.71 15.17, 3.31 14.89, 2.95 14.58 C2.58 14.27, 2.24 13.93, 1.93 13.56 C1.62 13.2, 1.34 12.8, 1.11 12.38 C0.87 11.97, 0.66 11.53, 0.5 11.08 C0.33 10.63, 0.21 10.16, 0.13 9.69 C0.04 9.22, 0 8.73, 0 8.26 C0 7.78, 0.04 7.29, 0.13 6.82 C0.21 6.35, 0.33 5.88, 0.5 5.43 C0.66 4.98, 0.87 4.54, 1.11 4.13 C1.34 3.71, 1.62 3.31, 1.93 2.95 C2.24 2.58, 2.58 2.24, 2.95 1.93 C3.31 1.62, 3.71 1.34, 4.13 1.11 C4.54 0.87, 4.98 0.66, 5.43 0.5 C5.88 0.33, 6.35 0.21, 6.82 0.13 C7.29 0.04, 7.78 0, 8.26 0 C8.73 0, 9.22 0.04, 9.69 0.13 C10.16 0.21, 10.63 0.33, 11.08 0.5 C11.53 0.66, 11.97 0.87, 12.38 1.11 C12.8 1.34, 13.2 1.62, 13.56 1.93 C13.93 2.24, 14.27 2.58, 14.58 2.95 C14.89 3.31, 15.17 3.71, 15.4 4.13 C15.64 4.54, 15.85 4.98, 16.01 5.43 C16.18 5.88, 16.3 6.35, 16.39 6.82 C16.47 7.29, 16.49 8.02, 16.51 8.26 C16.53 8.49, 16.53 8.02, 16.51 8.26" stroke="#1e1e1e" stroke-width="2" fill="none"></path></g><g stroke-linecap="round" transform="translate(196.7765957446809 354.14361702127644) rotate(0 8.255319148936167 8.255319148936167)"><path d="M16.51 8.26 C16.51 8.73, 16.47 9.22, 16.39 9.69 C16.3 10.16, 16.18 10.63, 16.01 11.08 C15.85 11.53, 15.64 11.97, 15.4 12.38 C15.17 12.8, 14.89 13.2, 14.58 13.56 C14.27 13.93, 13.93 14.27, 13.56 14.58 C13.2 14.89, 12.8 15.17, 12.38 15.4 C11.97 15.64, 11.53 15.85, 11.08 16.01 C10.63 16.18, 10.16 16.3, 9.69 16.39 C9.22 16.47, 8.73 16.51, 8.26 16.51 C7.78 16.51, 7.29 16.47, 6.82 16.39 C6.35 16.3, 5.88 16.18, 5.43 16.01 C4.98 15.85, 4.54 15.64, 4.13 15.4 C3.71 15.17, 3.31 14.89, 2.95 14.58 C2.58 14.27, 2.24 13.93, 1.93 13.56 C1.62 13.2, 1.34 12.8, 1.11 12.38 C0.87 11.97, 0.66 11.53, 0.5 11.08 C0.33 10.63, 0.21 10.16, 0.13 9.69 C0.04 9.22, 0 8.73, 0 8.26 C0 7.78, 0.04 7.29, 0.13 6.82 C0.21 6.35, 0.33 5.88, 0.5 5.43 C0.66 4.98, 0.87 4.54, 1.11 4.13 C1.34 3.71, 1.62 3.31, 1.93 2.95 C2.24 2.58, 2.58 2.24, 2.95 1.93 C3.31 1.62, 3.71 1.34, 4.13 1.11 C4.54 0.87, 4.98 0.66, 5.43 0.5 C5.88 0.33, 6.35 0.21, 6.82 0.13 C7.29 0.04, 7.78 0, 8.26 0 C8.73 0, 9.22 0.04, 9.69 0.13 C10.16 0.21, 10.63 0.33, 11.08 0.5 C11.53 0.66, 11.97 0.87, 12.38 1.11 C12.8 1.34, 13.2 1.62, 13.56 1.93 C13.93 2.24, 14.27 2.58, 14.58 2.95 C14.89 3.31, 15.17 3.71, 15.4 4.13 C15.64 4.54, 15.85 4.98, 16.01 5.43 C16.18 5.88, 16.3 6.35, 16.39 6.82 C16.47 7.29, 16.49 8.02, 16.51 8.26 C16.53 8.49, 16.53 8.02, 16.51 8.26" stroke="#1e1e1e" stroke-width="2" fill="none"></path></g><g stroke-linecap="round" transform="translate(115.25531914893622 354.14361702127644) rotate(0 8.255319148936167 8.255319148936167)"><path d="M16.51 8.26 C16.51 8.73, 16.47 9.22, 16.39 9.69 C16.3 10.16, 16.18 10.63, 16.01 11.08 C15.85 11.53, 15.64 11.97, 15.4 12.38 C15.17 12.8, 14.89 13.2, 14.58 13.56 C14.27 13.93, 13.93 14.27, 13.56 14.58 C13.2 14.89, 12.8 15.17, 12.38 15.4 C11.97 15.64, 11.53 15.85, 11.08 16.01 C10.63 16.18, 10.16 16.3, 9.69 16.39 C9.22 16.47, 8.73 16.51, 8.26 16.51 C7.78 16.51, 7.29 16.47, 6.82 16.39 C6.35 16.3, 5.88 16.18, 5.43 16.01 C4.98 15.85, 4.54 15.64, 4.13 15.4 C3.71 15.17, 3.31 14.89, 2.95 14.58 C2.58 14.27, 2.24 13.93, 1.93 13.56 C1.62 13.2, 1.34 12.8, 1.11 12.38 C0.87 11.97, 0.66 11.53, 0.5 11.08 C0.33 10.63, 0.21 10.16, 0.13 9.69 C0.04 9.22, 0 8.73, 0 8.26 C0 7.78, 0.04 7.29, 0.13 6.82 C0.21 6.35, 0.33 5.88, 0.5 5.43 C0.66 4.98, 0.87 4.54, 1.11 4.13 C1.34 3.71, 1.62 3.31, 1.93 2.95 C2.24 2.58, 2.58 2.24, 2.95 1.93 C3.31 1.62, 3.71 1.34, 4.13 1.11 C4.54 0.87, 4.98 0.66, 5.43 0.5 C5.88 0.33, 6.35 0.21, 6.82 0.13 C7.29 0.04, 7.78 0, 8.26 0 C8.73 0, 9.22 0.04, 9.69 0.13 C10.16 0.21, 10.63 0.33, 11.08 0.5 C11.53 0.66, 11.97 0.87, 12.38 1.11 C12.8 1.34, 13.2 1.62, 13.56 1.93 C13.93 2.24, 14.27 2.58, 14.58 2.95 C14.89 3.31, 15.17 3.71, 15.4 4.13 C15.64 4.54, 15.85 4.98, 16.01 5.43 C16.18 5.88, 16.3 6.35, 16.39 6.82 C16.47 7.29, 16.49 8.02, 16.51 8.26 C16.53 8.49, 16.53 8.02, 16.51 8.26" stroke="#1e1e1e" stroke-width="2" fill="none"></path></g><g stroke-linecap="round" transform="translate(351.5319148936171 36.60372340425528) rotate(0 8.255319148936223 8.255319148936167)"><path d="M16.51 8.26 C16.51 8.73, 16.47 9.22, 16.39 9.69 C16.3 10.16, 16.18 10.63, 16.01 11.08 C15.85 11.53, 15.64 11.97, 15.4 12.38 C15.17 12.8, 14.89 13.2, 14.58 13.56 C14.27 13.93, 13.93 14.27, 13.56 14.58 C13.2 14.89, 12.8 15.17, 12.38 15.4 C11.97 15.64, 11.53 15.85, 11.08 16.01 C10.63 16.18, 10.16 16.3, 9.69 16.39 C9.22 16.47, 8.73 16.51, 8.26 16.51 C7.78 16.51, 7.29 16.47, 6.82 16.39 C6.35 16.3, 5.88 16.18, 5.43 16.01 C4.98 15.85, 4.54 15.64, 4.13 15.4 C3.71 15.17, 3.31 14.89, 2.95 14.58 C2.58 14.27, 2.24 13.93, 1.93 13.56 C1.62 13.2, 1.34 12.8, 1.11 12.38 C0.87 11.97, 0.66 11.53, 0.5 11.08 C0.33 10.63, 0.21 10.16, 0.13 9.69 C0.04 9.22, 0 8.73, 0 8.26 C0 7.78, 0.04 7.29, 0.13 6.82 C0.21 6.35, 0.33 5.88, 0.5 5.43 C0.66 4.98, 0.87 4.54, 1.11 4.13 C1.34 3.71, 1.62 3.31, 1.93 2.95 C2.24 2.58, 2.58 2.24, 2.95 1.93 C3.31 1.62, 3.71 1.34, 4.13 1.11 C4.54 0.87, 4.98 0.66, 5.43 0.5 C5.88 0.33, 6.35 0.21, 6.82 0.13 C7.29 0.04, 7.78 0, 8.26 0 C8.73 0, 9.22 0.04, 9.69 0.13 C10.16 0.21, 10.63 0.33, 11.08 0.5 C11.53 0.66, 11.97 0.87, 12.38 1.11 C12.8 1.34, 13.2 1.62, 13.56 1.93 C13.93 2.24, 14.27 2.58, 14.58 2.95 C14.89 3.31, 15.17 3.71, 15.4 4.13 C15.64 4.54, 15.85 4.98, 16.01 5.43 C16.18 5.88, 16.3 6.35, 16.39 6.82 C16.47 7.29, 16.49 8.02, 16.51 8.26 C16.53 8.49, 16.53 8.02, 16.51 8.26" stroke="#1e1e1e" stroke-width="2" fill="none"></path></g><g stroke-linecap="round" transform="translate(351.5319148936171 351.3377659574468) rotate(0 8.255319148936223 8.255319148936167)"><path d="M16.51 8.26 C16.51 8.73, 16.47 9.22, 16.39 9.69 C16.3 10.16, 16.18 10.63, 16.01 11.08 C15.85 11.53, 15.64 11.97, 15.4 12.38 C15.17 12.8, 14.89 13.2, 14.58 13.56 C14.27 13.93, 13.93 14.27, 13.56 14.58 C13.2 14.89, 12.8 15.17, 12.38 15.4 C11.97 15.64, 11.53 15.85, 11.08 16.01 C10.63 16.18, 10.16 16.3, 9.69 16.39 C9.22 16.47, 8.73 16.51, 8.26 16.51 C7.78 16.51, 7.29 16.47, 6.82 16.39 C6.35 16.3, 5.88 16.18, 5.43 16.01 C4.98 15.85, 4.54 15.64, 4.13 15.4 C3.71 15.17, 3.31 14.89, 2.95 14.58 C2.58 14.27, 2.24 13.93, 1.93 13.56 C1.62 13.2, 1.34 12.8, 1.11 12.38 C0.87 11.97, 0.66 11.53, 0.5 11.08 C0.33 10.63, 0.21 10.16, 0.13 9.69 C0.04 9.22, 0 8.73, 0 8.26 C0 7.78, 0.04 7.29, 0.13 6.82 C0.21 6.35, 0.33 5.88, 0.5 5.43 C0.66 4.98, 0.87 4.54, 1.11 4.13 C1.34 3.71, 1.62 3.31, 1.93 2.95 C2.24 2.58, 2.58 2.24, 2.95 1.93 C3.31 1.62, 3.71 1.34, 4.13 1.11 C4.54 0.87, 4.98 0.66, 5.43 0.5 C5.88 0.33, 6.35 0.21, 6.82 0.13 C7.29 0.04, 7.78 0, 8.26 0 C8.73 0, 9.22 0.04, 9.69 0.13 C10.16 0.21, 10.63 0.33, 11.08 0.5 C11.53 0.66, 11.97 0.87, 12.38 1.11 C12.8 1.34, 13.2 1.62, 13.56 1.93 C13.93 2.24, 14.27 2.58, 14.58 2.95 C14.89 3.31, 15.17 3.71, 15.4 4.13 C15.64 4.54, 15.85 4.98, 16.01 5.43 C16.18 5.88, 16.3 6.35, 16.39 6.82 C16.47 7.29, 16.49 8.02, 16.51 8.26 C16.53 8.49, 16.53 8.02, 16.51 8.26" stroke="#1e1e1e" stroke-width="2" fill="none"></path></g><g stroke-linecap="round" transform="translate(351.5319148936171 115.28723404255317) rotate(0 8.255319148936223 8.255319148936167)"><path d="M16.51 8.26 C16.51 8.73, 16.47 9.22, 16.39 9.69 C16.3 10.16, 16.18 10.63, 16.01 11.08 C15.85 11.53, 15.64 11.97, 15.4 12.38 C15.17 12.8, 14.89 13.2, 14.58 13.56 C14.27 13.93, 13.93 14.27, 13.56 14.58 C13.2 14.89, 12.8 15.17, 12.38 15.4 C11.97 15.64, 11.53 15.85, 11.08 16.01 C10.63 16.18, 10.16 16.3, 9.69 16.39 C9.22 16.47, 8.73 16.51, 8.26 16.51 C7.78 16.51, 7.29 16.47, 6.82 16.39 C6.35 16.3, 5.88 16.18, 5.43 16.01 C4.98 15.85, 4.54 15.64, 4.13 15.4 C3.71 15.17, 3.31 14.89, 2.95 14.58 C2.58 14.27, 2.24 13.93, 1.93 13.56 C1.62 13.2, 1.34 12.8, 1.11 12.38 C0.87 11.97, 0.66 11.53, 0.5 11.08 C0.33 10.63, 0.21 10.16, 0.13 9.69 C0.04 9.22, 0 8.73, 0 8.26 C0 7.78, 0.04 7.29, 0.13 6.82 C0.21 6.35, 0.33 5.88, 0.5 5.43 C0.66 4.98, 0.87 4.54, 1.11 4.13 C1.34 3.71, 1.62 3.31, 1.93 2.95 C2.24 2.58, 2.58 2.24, 2.95 1.93 C3.31 1.62, 3.71 1.34, 4.13 1.11 C4.54 0.87, 4.98 0.66, 5.43 0.5 C5.88 0.33, 6.35 0.21, 6.82 0.13 C7.29 0.04, 7.78 0, 8.26 0 C8.73 0, 9.22 0.04, 9.69 0.13 C10.16 0.21, 10.63 0.33, 11.08 0.5 C11.53 0.66, 11.97 0.87, 12.38 1.11 C12.8 1.34, 13.2 1.62, 13.56 1.93 C13.93 2.24, 14.27 2.58, 14.58 2.95 C14.89 3.31, 15.17 3.71, 15.4 4.13 C15.64 4.54, 15.85 4.98, 16.01 5.43 C16.18 5.88, 16.3 6.35, 16.39 6.82 C16.47 7.29, 16.49 8.02, 16.51 8.26 C16.53 8.49, 16.53 8.02, 16.51 8.26" stroke="#1e1e1e" stroke-width="2" fill="none"></path></g><g stroke-linecap="round" transform="translate(351.5319148936171 193.970744680851) rotate(0 8.255319148936223 8.255319148936167)"><path d="M16.51 8.26 C16.51 8.73, 16.47 9.22, 16.39 9.69 C16.3 10.16, 16.18 10.63, 16.01 11.08 C15.85 11.53, 15.64 11.97, 15.4 12.38 C15.17 12.8, 14.89 13.2, 14.58 13.56 C14.27 13.93, 13.93 14.27, 13.56 14.58 C13.2 14.89, 12.8 15.17, 12.38 15.4 C11.97 15.64, 11.53 15.85, 11.08 16.01 C10.63 16.18, 10.16 16.3, 9.69 16.39 C9.22 16.47, 8.73 16.51, 8.26 16.51 C7.78 16.51, 7.29 16.47, 6.82 16.39 C6.35 16.3, 5.88 16.18, 5.43 16.01 C4.98 15.85, 4.54 15.64, 4.13 15.4 C3.71 15.17, 3.31 14.89, 2.95 14.58 C2.58 14.27, 2.24 13.93, 1.93 13.56 C1.62 13.2, 1.34 12.8, 1.11 12.38 C0.87 11.97, 0.66 11.53, 0.5 11.08 C0.33 10.63, 0.21 10.16, 0.13 9.69 C0.04 9.22, 0 8.73, 0 8.26 C0 7.78, 0.04 7.29, 0.13 6.82 C0.21 6.35, 0.33 5.88, 0.5 5.43 C0.66 4.98, 0.87 4.54, 1.11 4.13 C1.34 3.71, 1.62 3.31, 1.93 2.95 C2.24 2.58, 2.58 2.24, 2.95 1.93 C3.31 1.62, 3.71 1.34, 4.13 1.11 C4.54 0.87, 4.98 0.66, 5.43 0.5 C5.88 0.33, 6.35 0.21, 6.82 0.13 C7.29 0.04, 7.78 0, 8.26 0 C8.73 0, 9.22 0.04, 9.69 0.13 C10.16 0.21, 10.63 0.33, 11.08 0.5 C11.53 0.66, 11.97 0.87, 12.38 1.11 C12.8 1.34, 13.2 1.62, 13.56 1.93 C13.93 2.24, 14.27 2.58, 14.58 2.95 C14.89 3.31, 15.17 3.71, 15.4 4.13 C15.64 4.54, 15.85 4.98, 16.01 5.43 C16.18 5.88, 16.3 6.35, 16.39 6.82 C16.47 7.29, 16.49 8.02, 16.51 8.26 C16.53 8.49, 16.53 8.02, 16.51 8.26" stroke="#1e1e1e" stroke-width="2" fill="none"></path></g><g stroke-linecap="round" transform="translate(351.5319148936171 272.6542553191489) rotate(0 8.255319148936223 8.255319148936167)"><path d="M16.51 8.26 C16.51 8.73, 16.47 9.22, 16.39 9.69 C16.3 10.16, 16.18 10.63, 16.01 11.08 C15.85 11.53, 15.64 11.97, 15.4 12.38 C15.17 12.8, 14.89 13.2, 14.58 13.56 C14.27 13.93, 13.93 14.27, 13.56 14.58 C13.2 14.89, 12.8 15.17, 12.38 15.4 C11.97 15.64, 11.53 15.85, 11.08 16.01 C10.63 16.18, 10.16 16.3, 9.69 16.39 C9.22 16.47, 8.73 16.51, 8.26 16.51 C7.78 16.51, 7.29 16.47, 6.82 16.39 C6.35 16.3, 5.88 16.18, 5.43 16.01 C4.98 15.85, 4.54 15.64, 4.13 15.4 C3.71 15.17, 3.31 14.89, 2.95 14.58 C2.58 14.27, 2.24 13.93, 1.93 13.56 C1.62 13.2, 1.34 12.8, 1.11 12.38 C0.87 11.97, 0.66 11.53, 0.5 11.08 C0.33 10.63, 0.21 10.16, 0.13 9.69 C0.04 9.22, 0 8.73, 0 8.26 C0 7.78, 0.04 7.29, 0.13 6.82 C0.21 6.35, 0.33 5.88, 0.5 5.43 C0.66 4.98, 0.87 4.54, 1.11 4.13 C1.34 3.71, 1.62 3.31, 1.93 2.95 C2.24 2.58, 2.58 2.24, 2.95 1.93 C3.31 1.62, 3.71 1.34, 4.13 1.11 C4.54 0.87, 4.98 0.66, 5.43 0.5 C5.88 0.33, 6.35 0.21, 6.82 0.13 C7.29 0.04, 7.78 0, 8.26 0 C8.73 0, 9.22 0.04, 9.69 0.13 C10.16 0.21, 10.63 0.33, 11.08 0.5 C11.53 0.66, 11.97 0.87, 12.38 1.11 C12.8 1.34, 13.2 1.62, 13.56 1.93 C13.93 2.24, 14.27 2.58, 14.58 2.95 C14.89 3.31, 15.17 3.71, 15.4 4.13 C15.64 4.54, 15.85 4.98, 16.01 5.43 C16.18 5.88, 16.3 6.35, 16.39 6.82 C16.47 7.29, 16.49 8.02, 16.51 8.26 C16.53 8.49, 16.53 8.02, 16.51 8.26" stroke="#1e1e1e" stroke-width="2" fill="none"></path></g><g stroke-linecap="round" transform="translate(40.95744680851067 37.60372340425528) rotate(0 8.255319148936167 8.255319148936167)"><path d="M16.51 8.26 C16.51 8.73, 16.47 9.22, 16.39 9.69 C16.3 10.16, 16.18 10.63, 16.01 11.08 C15.85 11.53, 15.64 11.97, 15.4 12.38 C15.17 12.8, 14.89 13.2, 14.58 13.56 C14.27 13.93, 13.93 14.27, 13.56 14.58 C13.2 14.89, 12.8 15.17, 12.38 15.4 C11.97 15.64, 11.53 15.85, 11.08 16.01 C10.63 16.18, 10.16 16.3, 9.69 16.39 C9.22 16.47, 8.73 16.51, 8.26 16.51 C7.78 16.51, 7.29 16.47, 6.82 16.39 C6.35 16.3, 5.88 16.18, 5.43 16.01 C4.98 15.85, 4.54 15.64, 4.13 15.4 C3.71 15.17, 3.31 14.89, 2.95 14.58 C2.58 14.27, 2.24 13.93, 1.93 13.56 C1.62 13.2, 1.34 12.8, 1.11 12.38 C0.87 11.97, 0.66 11.53, 0.5 11.08 C0.33 10.63, 0.21 10.16, 0.13 9.69 C0.04 9.22, 0 8.73, 0 8.26 C0 7.78, 0.04 7.29, 0.13 6.82 C0.21 6.35, 0.33 5.88, 0.5 5.43 C0.66 4.98, 0.87 4.54, 1.11 4.13 C1.34 3.71, 1.62 3.31, 1.93 2.95 C2.24 2.58, 2.58 2.24, 2.95 1.93 C3.31 1.62, 3.71 1.34, 4.13 1.11 C4.54 0.87, 4.98 0.66, 5.43 0.5 C5.88 0.33, 6.35 0.21, 6.82 0.13 C7.29 0.04, 7.78 0, 8.26 0 C8.73 0, 9.22 0.04, 9.69 0.13 C10.16 0.21, 10.63 0.33, 11.08 0.5 C11.53 0.66, 11.97 0.87, 12.38 1.11 C12.8 1.34, 13.2 1.62, 13.56 1.93 C13.93 2.24, 14.27 2.58, 14.58 2.95 C14.89 3.31, 15.17 3.71, 15.4 4.13 C15.64 4.54, 15.85 4.98, 16.01 5.43 C16.18 5.88, 16.3 6.35, 16.39 6.82 C16.47 7.29, 16.49 8.02, 16.51 8.26 C16.53 8.49, 16.53 8.02, 16.51 8.26" stroke="#1e1e1e" stroke-width="2" fill="none"></path></g><g stroke-linecap="round" transform="translate(40.95744680851067 352.3377659574468) rotate(0 8.255319148936167 8.255319148936167)"><path d="M16.51 8.26 C16.51 8.73, 16.47 9.22, 16.39 9.69 C16.3 10.16, 16.18 10.63, 16.01 11.08 C15.85 11.53, 15.64 11.97, 15.4 12.38 C15.17 12.8, 14.89 13.2, 14.58 13.56 C14.27 13.93, 13.93 14.27, 13.56 14.58 C13.2 14.89, 12.8 15.17, 12.38 15.4 C11.97 15.64, 11.53 15.85, 11.08 16.01 C10.63 16.18, 10.16 16.3, 9.69 16.39 C9.22 16.47, 8.73 16.51, 8.26 16.51 C7.78 16.51, 7.29 16.47, 6.82 16.39 C6.35 16.3, 5.88 16.18, 5.43 16.01 C4.98 15.85, 4.54 15.64, 4.13 15.4 C3.71 15.17, 3.31 14.89, 2.95 14.58 C2.58 14.27, 2.24 13.93, 1.93 13.56 C1.62 13.2, 1.34 12.8, 1.11 12.38 C0.87 11.97, 0.66 11.53, 0.5 11.08 C0.33 10.63, 0.21 10.16, 0.13 9.69 C0.04 9.22, 0 8.73, 0 8.26 C0 7.78, 0.04 7.29, 0.13 6.82 C0.21 6.35, 0.33 5.88, 0.5 5.43 C0.66 4.98, 0.87 4.54, 1.11 4.13 C1.34 3.71, 1.62 3.31, 1.93 2.95 C2.24 2.58, 2.58 2.24, 2.95 1.93 C3.31 1.62, 3.71 1.34, 4.13 1.11 C4.54 0.87, 4.98 0.66, 5.43 0.5 C5.88 0.33, 6.35 0.21, 6.82 0.13 C7.29 0.04, 7.78 0, 8.26 0 C8.73 0, 9.22 0.04, 9.69 0.13 C10.16 0.21, 10.63 0.33, 11.08 0.5 C11.53 0.66, 11.97 0.87, 12.38 1.11 C12.8 1.34, 13.2 1.62, 13.56 1.93 C13.93 2.24, 14.27 2.58, 14.58 2.95 C14.89 3.31, 15.17 3.71, 15.4 4.13 C15.64 4.54, 15.85 4.98, 16.01 5.43 C16.18 5.88, 16.3 6.35, 16.39 6.82 C16.47 7.29, 16.49 8.02, 16.51 8.26 C16.53 8.49, 16.53 8.02, 16.51 8.26" stroke="#1e1e1e" stroke-width="2" fill="none"></path></g><g stroke-linecap="round" transform="translate(40.95744680851067 116.28723404255317) rotate(0 8.255319148936167 8.255319148936167)"><path d="M16.51 8.26 C16.51 8.73, 16.47 9.22, 16.39 9.69 C16.3 10.16, 16.18 10.63, 16.01 11.08 C15.85 11.53, 15.64 11.97, 15.4 12.38 C15.17 12.8, 14.89 13.2, 14.58 13.56 C14.27 13.93, 13.93 14.27, 13.56 14.58 C13.2 14.89, 12.8 15.17, 12.38 15.4 C11.97 15.64, 11.53 15.85, 11.08 16.01 C10.63 16.18, 10.16 16.3, 9.69 16.39 C9.22 16.47, 8.73 16.51, 8.26 16.51 C7.78 16.51, 7.29 16.47, 6.82 16.39 C6.35 16.3, 5.88 16.18, 5.43 16.01 C4.98 15.85, 4.54 15.64, 4.13 15.4 C3.71 15.17, 3.31 14.89, 2.95 14.58 C2.58 14.27, 2.24 13.93, 1.93 13.56 C1.62 13.2, 1.34 12.8, 1.11 12.38 C0.87 11.97, 0.66 11.53, 0.5 11.08 C0.33 10.63, 0.21 10.16, 0.13 9.69 C0.04 9.22, 0 8.73, 0 8.26 C0 7.78, 0.04 7.29, 0.13 6.82 C0.21 6.35, 0.33 5.88, 0.5 5.43 C0.66 4.98, 0.87 4.54, 1.11 4.13 C1.34 3.71, 1.62 3.31, 1.93 2.95 C2.24 2.58, 2.58 2.24, 2.95 1.93 C3.31 1.62, 3.71 1.34, 4.13 1.11 C4.54 0.87, 4.98 0.66, 5.43 0.5 C5.88 0.33, 6.35 0.21, 6.82 0.13 C7.29 0.04, 7.78 0, 8.26 0 C8.73 0, 9.22 0.04, 9.69 0.13 C10.16 0.21, 10.63 0.33, 11.08 0.5 C11.53 0.66, 11.97 0.87, 12.38 1.11 C12.8 1.34, 13.2 1.62, 13.56 1.93 C13.93 2.24, 14.27 2.58, 14.58 2.95 C14.89 3.31, 15.17 3.71, 15.4 4.13 C15.64 4.54, 15.85 4.98, 16.01 5.43 C16.18 5.88, 16.3 6.35, 16.39 6.82 C16.47 7.29, 16.49 8.02, 16.51 8.26 C16.53 8.49, 16.53 8.02, 16.51 8.26" stroke="#1e1e1e" stroke-width="2" fill="none"></path></g><g stroke-linecap="round" transform="translate(40.95744680851067 194.970744680851) rotate(0 8.255319148936167 8.255319148936167)"><path d="M16.51 8.26 C16.51 8.73, 16.47 9.22, 16.39 9.69 C16.3 10.16, 16.18 10.63, 16.01 11.08 C15.85 11.53, 15.64 11.97, 15.4 12.38 C15.17 12.8, 14.89 13.2, 14.58 13.56 C14.27 13.93, 13.93 14.27, 13.56 14.58 C13.2 14.89, 12.8 15.17, 12.38 15.4 C11.97 15.64, 11.53 15.85, 11.08 16.01 C10.63 16.18, 10.16 16.3, 9.69 16.39 C9.22 16.47, 8.73 16.51, 8.26 16.51 C7.78 16.51, 7.29 16.47, 6.82 16.39 C6.35 16.3, 5.88 16.18, 5.43 16.01 C4.98 15.85, 4.54 15.64, 4.13 15.4 C3.71 15.17, 3.31 14.89, 2.95 14.58 C2.58 14.27, 2.24 13.93, 1.93 13.56 C1.62 13.2, 1.34 12.8, 1.11 12.38 C0.87 11.97, 0.66 11.53, 0.5 11.08 C0.33 10.63, 0.21 10.16, 0.13 9.69 C0.04 9.22, 0 8.73, 0 8.26 C0 7.78, 0.04 7.29, 0.13 6.82 C0.21 6.35, 0.33 5.88, 0.5 5.43 C0.66 4.98, 0.87 4.54, 1.11 4.13 C1.34 3.71, 1.62 3.31, 1.93 2.95 C2.24 2.58, 2.58 2.24, 2.95 1.93 C3.31 1.62, 3.71 1.34, 4.13 1.11 C4.54 0.87, 4.98 0.66, 5.43 0.5 C5.88 0.33, 6.35 0.21, 6.82 0.13 C7.29 0.04, 7.78 0, 8.26 0 C8.73 0, 9.22 0.04, 9.69 0.13 C10.16 0.21, 10.63 0.33, 11.08 0.5 C11.53 0.66, 11.97 0.87, 12.38 1.11 C12.8 1.34, 13.2 1.62, 13.56 1.93 C13.93 2.24, 14.27 2.58, 14.58 2.95 C14.89 3.31, 15.17 3.71, 15.4 4.13 C15.64 4.54, 15.85 4.98, 16.01 5.43 C16.18 5.88, 16.3 6.35, 16.39 6.82 C16.47 7.29, 16.49 8.02, 16.51 8.26 C16.53 8.49, 16.53 8.02, 16.51 8.26" stroke="#1e1e1e" stroke-width="2" fill="none"></path></g><g stroke-linecap="round" transform="translate(40.95744680851067 273.6542553191489) rotate(0 8.255319148936167 8.255319148936167)"><path d="M16.51 8.26 C16.51 8.73, 16.47 9.22, 16.39 9.69 C16.3 10.16, 16.18 10.63, 16.01 11.08 C15.85 11.53, 15.64 11.97, 15.4 12.38 C15.17 12.8, 14.89 13.2, 14.58 13.56 C14.27 13.93, 13.93 14.27, 13.56 14.58 C13.2 14.89, 12.8 15.17, 12.38 15.4 C11.97 15.64, 11.53 15.85, 11.08 16.01 C10.63 16.18, 10.16 16.3, 9.69 16.39 C9.22 16.47, 8.73 16.51, 8.26 16.51 C7.78 16.51, 7.29 16.47, 6.82 16.39 C6.35 16.3, 5.88 16.18, 5.43 16.01 C4.98 15.85, 4.54 15.64, 4.13 15.4 C3.71 15.17, 3.31 14.89, 2.95 14.58 C2.58 14.27, 2.24 13.93, 1.93 13.56 C1.62 13.2, 1.34 12.8, 1.11 12.38 C0.87 11.97, 0.66 11.53, 0.5 11.08 C0.33 10.63, 0.21 10.16, 0.13 9.69 C0.04 9.22, 0 8.73, 0 8.26 C0 7.78, 0.04 7.29, 0.13 6.82 C0.21 6.35, 0.33 5.88, 0.5 5.43 C0.66 4.98, 0.87 4.54, 1.11 4.13 C1.34 3.71, 1.62 3.31, 1.93 2.95 C2.24 2.58, 2.58 2.24, 2.95 1.93 C3.31 1.62, 3.71 1.34, 4.13 1.11 C4.54 0.87, 4.98 0.66, 5.43 0.5 C5.88 0.33, 6.35 0.21, 6.82 0.13 C7.29 0.04, 7.78 0, 8.26 0 C8.73 0, 9.22 0.04, 9.69 0.13 C10.16 0.21, 10.63 0.33, 11.08 0.5 C11.53 0.66, 11.97 0.87, 12.38 1.11 C12.8 1.34, 13.2 1.62, 13.56 1.93 C13.93 2.24, 14.27 2.58, 14.58 2.95 C14.89 3.31, 15.17 3.71, 15.4 4.13 C15.64 4.54, 15.85 4.98, 16.01 5.43 C16.18 5.88, 16.3 6.35, 16.39 6.82 C16.47 7.29, 16.49 8.02, 16.51 8.26 C16.53 8.49, 16.53 8.02, 16.51 8.26" stroke="#1e1e1e" stroke-width="2" fill="none"></path></g><g stroke-linecap="round" transform="translate(284.48936170212755 37.345744680851055) rotate(0 8.255319148936223 8.255319148936167)"><path d="M16.51 8.26 C16.51 8.73, 16.47 9.22, 16.39 9.69 C16.3 10.16, 16.18 10.63, 16.01 11.08 C15.85 11.53, 15.64 11.97, 15.4 12.38 C15.17 12.8, 14.89 13.2, 14.58 13.56 C14.27 13.93, 13.93 14.27, 13.56 14.58 C13.2 14.89, 12.8 15.17, 12.38 15.4 C11.97 15.64, 11.53 15.85, 11.08 16.01 C10.63 16.18, 10.16 16.3, 9.69 16.39 C9.22 16.47, 8.73 16.51, 8.26 16.51 C7.78 16.51, 7.29 16.47, 6.82 16.39 C6.35 16.3, 5.88 16.18, 5.43 16.01 C4.98 15.85, 4.54 15.64, 4.13 15.4 C3.71 15.17, 3.31 14.89, 2.95 14.58 C2.58 14.27, 2.24 13.93, 1.93 13.56 C1.62 13.2, 1.34 12.8, 1.11 12.38 C0.87 11.97, 0.66 11.53, 0.5 11.08 C0.33 10.63, 0.21 10.16, 0.13 9.69 C0.04 9.22, 0 8.73, 0 8.26 C0 7.78, 0.04 7.29, 0.13 6.82 C0.21 6.35, 0.33 5.88, 0.5 5.43 C0.66 4.98, 0.87 4.54, 1.11 4.13 C1.34 3.71, 1.62 3.31, 1.93 2.95 C2.24 2.58, 2.58 2.24, 2.95 1.93 C3.31 1.62, 3.71 1.34, 4.13 1.11 C4.54 0.87, 4.98 0.66, 5.43 0.5 C5.88 0.33, 6.35 0.21, 6.82 0.13 C7.29 0.04, 7.78 0, 8.26 0 C8.73 0, 9.22 0.04, 9.69 0.13 C10.16 0.21, 10.63 0.33, 11.08 0.5 C11.53 0.66, 11.97 0.87, 12.38 1.11 C12.8 1.34, 13.2 1.62, 13.56 1.93 C13.93 2.24, 14.27 2.58, 14.58 2.95 C14.89 3.31, 15.17 3.71, 15.4 4.13 C15.64 4.54, 15.85 4.98, 16.01 5.43 C16.18 5.88, 16.3 6.35, 16.39 6.82 C16.47 7.29, 16.49 8.02, 16.51 8.26 C16.53 8.49, 16.53 8.02, 16.51 8.26" stroke="#1e1e1e" stroke-width="2" fill="none"></path></g><g stroke-linecap="round" transform="translate(196.7765957446809 37.345744680851055) rotate(0 8.255319148936167 8.255319148936167)"><path d="M16.51 8.26 C16.51 8.73, 16.47 9.22, 16.39 9.69 C16.3 10.16, 16.18 10.63, 16.01 11.08 C15.85 11.53, 15.64 11.97, 15.4 12.38 C15.17 12.8, 14.89 13.2, 14.58 13.56 C14.27 13.93, 13.93 14.27, 13.56 14.58 C13.2 14.89, 12.8 15.17, 12.38 15.4 C11.97 15.64, 11.53 15.85, 11.08 16.01 C10.63 16.18, 10.16 16.3, 9.69 16.39 C9.22 16.47, 8.73 16.51, 8.26 16.51 C7.78 16.51, 7.29 16.47, 6.82 16.39 C6.35 16.3, 5.88 16.18, 5.43 16.01 C4.98 15.85, 4.54 15.64, 4.13 15.4 C3.71 15.17, 3.31 14.89, 2.95 14.58 C2.58 14.27, 2.24 13.93, 1.93 13.56 C1.62 13.2, 1.34 12.8, 1.11 12.38 C0.87 11.97, 0.66 11.53, 0.5 11.08 C0.33 10.63, 0.21 10.16, 0.13 9.69 C0.04 9.22, 0 8.73, 0 8.26 C0 7.78, 0.04 7.29, 0.13 6.82 C0.21 6.35, 0.33 5.88, 0.5 5.43 C0.66 4.98, 0.87 4.54, 1.11 4.13 C1.34 3.71, 1.62 3.31, 1.93 2.95 C2.24 2.58, 2.58 2.24, 2.95 1.93 C3.31 1.62, 3.71 1.34, 4.13 1.11 C4.54 0.87, 4.98 0.66, 5.43 0.5 C5.88 0.33, 6.35 0.21, 6.82 0.13 C7.29 0.04, 7.78 0, 8.26 0 C8.73 0, 9.22 0.04, 9.69 0.13 C10.16 0.21, 10.63 0.33, 11.08 0.5 C11.53 0.66, 11.97 0.87, 12.38 1.11 C12.8 1.34, 13.2 1.62, 13.56 1.93 C13.93 2.24, 14.27 2.58, 14.58 2.95 C14.89 3.31, 15.17 3.71, 15.4 4.13 C15.64 4.54, 15.85 4.98, 16.01 5.43 C16.18 5.88, 16.3 6.35, 16.39 6.82 C16.47 7.29, 16.49 8.02, 16.51 8.26 C16.53 8.49, 16.53 8.02, 16.51 8.26" stroke="#1e1e1e" stroke-width="2" fill="none"></path></g><g stroke-linecap="round" transform="translate(115.25531914893622 37.345744680851055) rotate(0 8.255319148936167 8.255319148936167)"><path d="M16.51 8.26 C16.51 8.73, 16.47 9.22, 16.39 9.69 C16.3 10.16, 16.18 10.63, 16.01 11.08 C15.85 11.53, 15.64 11.97, 15.4 12.38 C15.17 12.8, 14.89 13.2, 14.58 13.56 C14.27 13.93, 13.93 14.27, 13.56 14.58 C13.2 14.89, 12.8 15.17, 12.38 15.4 C11.97 15.64, 11.53 15.85, 11.08 16.01 C10.63 16.18, 10.16 16.3, 9.69 16.39 C9.22 16.47, 8.73 16.51, 8.26 16.51 C7.78 16.51, 7.29 16.47, 6.82 16.39 C6.35 16.3, 5.88 16.18, 5.43 16.01 C4.98 15.85, 4.54 15.64, 4.13 15.4 C3.71 15.17, 3.31 14.89, 2.95 14.58 C2.58 14.27, 2.24 13.93, 1.93 13.56 C1.62 13.2, 1.34 12.8, 1.11 12.38 C0.87 11.97, 0.66 11.53, 0.5 11.08 C0.33 10.63, 0.21 10.16, 0.13 9.69 C0.04 9.22, 0 8.73, 0 8.26 C0 7.78, 0.04 7.29, 0.13 6.82 C0.21 6.35, 0.33 5.88, 0.5 5.43 C0.66 4.98, 0.87 4.54, 1.11 4.13 C1.34 3.71, 1.62 3.31, 1.93 2.95 C2.24 2.58, 2.58 2.24, 2.95 1.93 C3.31 1.62, 3.71 1.34, 4.13 1.11 C4.54 0.87, 4.98 0.66, 5.43 0.5 C5.88 0.33, 6.35 0.21, 6.82 0.13 C7.29 0.04, 7.78 0, 8.26 0 C8.73 0, 9.22 0.04, 9.69 0.13 C10.16 0.21, 10.63 0.33, 11.08 0.5 C11.53 0.66, 11.97 0.87, 12.38 1.11 C12.8 1.34, 13.2 1.62, 13.56 1.93 C13.93 2.24, 14.27 2.58, 14.58 2.95 C14.89 3.31, 15.17 3.71, 15.4 4.13 C15.64 4.54, 15.85 4.98, 16.01 5.43 C16.18 5.88, 16.3 6.35, 16.39 6.82 C16.47 7.29, 16.49 8.02, 16.51 8.26 C16.53 8.49, 16.53 8.02, 16.51 8.26" stroke="#1e1e1e" stroke-width="2" fill="none"></path></g><g stroke-linecap="round" transform="translate(97.71276595744678 97.71276595744678) rotate(0 106.28723404255317 106.28723404255317)"><path d="M212.57 106.29 C212.57 109.56, 212.42 112.84, 212.12 116.09 C211.82 119.35, 211.37 122.6, 210.76 125.82 C210.16 129.03, 209.41 132.23, 208.52 135.37 C207.62 138.52, 206.58 141.63, 205.4 144.68 C204.22 147.73, 202.89 150.74, 201.43 153.66 C199.97 156.59, 198.38 159.46, 196.65 162.24 C194.93 165.02, 193.08 167.73, 191.11 170.34 C189.14 172.95, 187.04 175.48, 184.83 177.89 C182.63 180.31, 180.31 182.63, 177.89 184.83 C175.48 187.04, 172.95 189.14, 170.34 191.11 C167.73 193.08, 165.02 194.93, 162.24 196.65 C159.46 198.38, 156.59 199.97, 153.66 201.43 C150.74 202.89, 147.73 204.22, 144.68 205.4 C141.63 206.58, 138.52 207.62, 135.37 208.52 C132.23 209.41, 129.03 210.16, 125.82 210.76 C122.6 211.37, 119.35 211.82, 116.09 212.12 C112.84 212.42, 109.56 212.57, 106.29 212.57 C103.02 212.57, 99.74 212.42, 96.48 212.12 C93.23 211.82, 89.97 211.37, 86.76 210.76 C83.54 210.16, 80.34 209.41, 77.2 208.52 C74.06 207.62, 70.94 206.58, 67.89 205.4 C64.84 204.22, 61.84 202.89, 58.91 201.43 C55.98 199.97, 53.11 198.38, 50.33 196.65 C47.55 194.93, 44.84 193.08, 42.23 191.11 C39.63 189.14, 37.1 187.04, 34.68 184.83 C32.27 182.63, 29.94 180.31, 27.74 177.89 C25.54 175.48, 23.44 172.95, 21.47 170.34 C19.5 167.73, 17.64 165.02, 15.92 162.24 C14.2 159.46, 12.6 156.59, 11.14 153.66 C9.69 150.74, 8.36 147.73, 7.18 144.68 C6 141.63, 4.95 138.52, 4.06 135.37 C3.16 132.23, 2.41 129.03, 1.81 125.82 C1.21 122.6, 0.76 119.35, 0.45 116.09 C0.15 112.84, 0 109.56, 0 106.29 C0 103.02, 0.15 99.74, 0.45 96.48 C0.76 93.23, 1.21 89.97, 1.81 86.76 C2.41 83.54, 3.16 80.34, 4.06 77.2 C4.95 74.06, 6 70.94, 7.18 67.89 C8.36 64.84, 9.69 61.84, 11.14 58.91 C12.6 55.98, 14.2 53.11, 15.92 50.33 C17.64 47.55, 19.5 44.84, 21.47 42.23 C23.44 39.63, 25.54 37.1, 27.74 34.68 C29.94 32.27, 32.27 29.94, 34.68 27.74 C37.1 25.54, 39.63 23.44, 42.23 21.47 C44.84 19.5, 47.55 17.64, 50.33 15.92 C53.11 14.2, 55.98 12.6, 58.91 11.14 C61.84 9.69, 64.84 8.36, 67.89 7.18 C70.94 6, 74.06 4.95, 77.2 4.06 C80.34 3.16, 83.54 2.41, 86.76 1.81 C89.97 1.21, 93.23 0.76, 96.48 0.45 C99.74 0.15, 103.02 0, 106.29 0 C109.56 0, 112.84 0.15, 116.09 0.45 C119.35 0.76, 122.6 1.21, 125.82 1.81 C129.03 2.41, 132.23 3.16, 135.37 4.06 C138.52 4.95, 141.63 6, 144.68 7.18 C147.73 8.36, 150.74 9.69, 153.66 11.14 C156.59 12.6, 159.46 14.2, 162.24 15.92 C165.02 17.64, 167.73 19.5, 170.34 21.47 C172.95 23.44, 175.48 25.54, 177.89 27.74 C180.31 29.94, 182.63 32.27, 184.83 34.68 C187.04 37.1, 189.14 39.63, 191.11 42.23 C193.08 44.84, 194.93 47.55, 196.65 50.33 C198.38 53.11, 199.97 55.98, 201.43 58.91 C202.89 61.84, 204.22 64.84, 205.4 67.89 C206.58 70.94, 207.62 74.06, 208.52 77.2 C209.41 80.34, 210.16 83.54, 210.76 86.76 C211.37 89.97, 211.82 93.23, 212.12 96.48 C212.42 99.74, 212.5 104.65, 212.57 106.29 C212.65 107.92, 212.65 104.65, 212.57 106.29" stroke="none" stroke-width="0" fill="#e9ecef"></path><path d="M212.57 106.29 C212.57 109.56, 212.42 112.84, 212.12 116.09 C211.82 119.35, 211.37 122.6, 210.76 125.82 C210.16 129.03, 209.41 132.23, 208.52 135.37 C207.62 138.52, 206.58 141.63, 205.4 144.68 C204.22 147.73, 202.89 150.74, 201.43 153.66 C199.97 156.59, 198.38 159.46, 196.65 162.24 C194.93 165.02, 193.08 167.73, 191.11 170.34 C189.14 172.95, 187.04 175.48, 184.83 177.89 C182.63 180.31, 180.31 182.63, 177.89 184.83 C175.48 187.04, 172.95 189.14, 170.34 191.11 C167.73 193.08, 165.02 194.93, 162.24 196.65 C159.46 198.38, 156.59 199.97, 153.66 201.43 C150.74 202.89, 147.73 204.22, 144.68 205.4 C141.63 206.58, 138.52 207.62, 135.37 208.52 C132.23 209.41, 129.03 210.16, 125.82 210.76 C122.6 211.37, 119.35 211.82, 116.09 212.12 C112.84 212.42, 109.56 212.57, 106.29 212.57 C103.02 212.57, 99.74 212.42, 96.48 212.12 C93.23 211.82, 89.97 211.37, 86.76 210.76 C83.54 210.16, 80.34 209.41, 77.2 208.52 C74.06 207.62, 70.94 206.58, 67.89 205.4 C64.84 204.22, 61.84 202.89, 58.91 201.43 C55.98 199.97, 53.11 198.38, 50.33 196.65 C47.55 194.93, 44.84 193.08, 42.23 191.11 C39.63 189.14, 37.1 187.04, 34.68 184.83 C32.27 182.63, 29.94 180.31, 27.74 177.89 C25.54 175.48, 23.44 172.95, 21.47 170.34 C19.5 167.73, 17.64 165.02, 15.92 162.24 C14.2 159.46, 12.6 156.59, 11.14 153.66 C9.69 150.74, 8.36 147.73, 7.18 144.68 C6 141.63, 4.95 138.52, 4.06 135.37 C3.16 132.23, 2.41 129.03, 1.81 125.82 C1.21 122.6, 0.76 119.35, 0.45 116.09 C0.15 112.84, 0 109.56, 0 106.29 C0 103.02, 0.15 99.74, 0.45 96.48 C0.76 93.23, 1.21 89.97, 1.81 86.76 C2.41 83.54, 3.16 80.34, 4.06 77.2 C4.95 74.06, 6 70.94, 7.18 67.89 C8.36 64.84, 9.69 61.84, 11.14 58.91 C12.6 55.98, 14.2 53.11, 15.92 50.33 C17.64 47.55, 19.5 44.84, 21.47 42.23 C23.44 39.63, 25.54 37.1, 27.74 34.68 C29.94 32.27, 32.27 29.94, 34.68 27.74 C37.1 25.54, 39.63 23.44, 42.23 21.47 C44.84 19.5, 47.55 17.64, 50.33 15.92 C53.11 14.2, 55.98 12.6, 58.91 11.14 C61.84 9.69, 64.84 8.36, 67.89 7.18 C70.94 6, 74.06 4.95, 77.2 4.06 C80.34 3.16, 83.54 2.41, 86.76 1.81 C89.97 1.21, 93.23 0.76, 96.48 0.45 C99.74 0.15, 103.02 0, 106.29 0 C109.56 0, 112.84 0.15, 116.09 0.45 C119.35 0.76, 122.6 1.21, 125.82 1.81 C129.03 2.41, 132.23 3.16, 135.37 4.06 C138.52 4.95, 141.63 6, 144.68 7.18 C147.73 8.36, 150.74 9.69, 153.66 11.14 C156.59 12.6, 159.46 14.2, 162.24 15.92 C165.02 17.64, 167.73 19.5, 170.34 21.47 C172.95 23.44, 175.48 25.54, 177.89 27.74 C180.31 29.94, 182.63 32.27, 184.83 34.68 C187.04 37.1, 189.14 39.63, 191.11 42.23 C193.08 44.84, 194.93 47.55, 196.65 50.33 C198.38 53.11, 199.97 55.98, 201.43 58.91 C202.89 61.84, 204.22 64.84, 205.4 67.89 C206.58 70.94, 207.62 74.06, 208.52 77.2 C209.41 80.34, 210.16 83.54, 210.76 86.76 C211.37 89.97, 211.82 93.23, 212.12 96.48 C212.42 99.74, 212.5 104.65, 212.57 106.29 C212.65 107.92, 212.65 104.65, 212.57 106.29" stroke="#1e1e1e" stroke-width="2" fill="none"></path></g></svg>