<svg version="1.1" xmlns="http://www.w3.org/2000/svg" viewBox="0 0 95 95" width="95" height="95">
  <!-- svg-source:excalidraw -->
  
  <defs>
    <style class="style-fonts">
      @font-face {
        font-family: "Virgil";
        src: url("https://excalidraw.com/Virgil.woff2");
      }
      @font-face {
        font-family: "Cascadia";
        src: url("https://excalidraw.com/Cascadia.woff2");
      }
    </style>
    
  </defs>
  <g stroke-linecap="round" transform="translate(10 10) rotate(0 37.5 37.5)"><path d="M0 0 L75 0 L75 75 L0 75" stroke="none" stroke-width="0" fill="#868e96"></path><path d="M0 0 C24.77 0, 49.53 0, 75 0 M0 0 C24.71 0, 49.42 0, 75 0 M75 0 C75 19.61, 75 39.21, 75 75 M75 0 C75 20.99, 75 41.99, 75 75 M75 75 C49.83 75, 24.65 75, 0 75 M75 75 C45.68 75, 16.36 75, 0 75 M0 75 C0 50.89, 0 26.78, 0 0 M0 75 C0 58.52, 0 42.05, 0 0" stroke="#1e1e1e" stroke-width="1" fill="none"></path></g><g stroke-linecap="round" transform="translate(13.19148936170211 13.19148936170211) rotate(0 34.30851063829789 34.30851063829786)"><path d="M0 0 L68.62 0 L68.62 68.62 L0 68.62" stroke="none" stroke-width="0" fill="#ced4da"></path><path d="M0 0 C22.65 0, 45.3 0, 68.62 0 M0 0 C26.34 0, 52.67 0, 68.62 0 M68.62 0 C68.62 20.03, 68.62 40.05, 68.62 68.62 M68.62 0 C68.62 26.76, 68.62 53.52, 68.62 68.62 M68.62 68.62 C50.07 68.62, 31.53 68.62, 0 68.62 M68.62 68.62 C46.47 68.62, 24.33 68.62, 0 68.62 M0 68.62 C0 52.96, 0 37.3, 0 0 M0 68.62 C0 46.46, 0 24.3, 0 0" stroke="#1e1e1e" stroke-width="1" fill="none"></path></g><g stroke-linecap="round" transform="translate(21.868351063829778 21.868351063829778) rotate(0 25.631648936170222 25.631648936170222)"><path d="M51.26 25.63 C51.26 27.12, 51.13 28.62, 50.87 30.08 C50.62 31.54, 50.22 33, 49.72 34.4 C49.21 35.79, 48.57 37.16, 47.83 38.45 C47.09 39.73, 46.22 40.97, 45.27 42.11 C44.31 43.24, 43.24 44.31, 42.11 45.27 C40.97 46.22, 39.73 47.09, 38.45 47.83 C37.16 48.57, 35.79 49.21, 34.4 49.72 C33 50.22, 31.54 50.62, 30.08 50.87 C28.62 51.13, 27.12 51.26, 25.63 51.26 C24.15 51.26, 22.64 51.13, 21.18 50.87 C19.72 50.62, 18.26 50.22, 16.87 49.72 C15.47 49.21, 14.1 48.57, 12.82 47.83 C11.53 47.09, 10.29 46.22, 9.16 45.27 C8.02 44.31, 6.95 43.24, 6 42.11 C5.04 40.97, 4.18 39.73, 3.43 38.45 C2.69 37.16, 2.05 35.79, 1.55 34.4 C1.04 33, 0.65 31.54, 0.39 30.08 C0.13 28.62, 0 27.12, 0 25.63 C0 24.15, 0.13 22.64, 0.39 21.18 C0.65 19.72, 1.04 18.26, 1.55 16.87 C2.05 15.47, 2.69 14.1, 3.43 12.82 C4.18 11.53, 5.04 10.29, 6 9.16 C6.95 8.02, 8.02 6.95, 9.16 6 C10.29 5.04, 11.53 4.18, 12.82 3.43 C14.1 2.69, 15.47 2.05, 16.87 1.55 C18.26 1.04, 19.72 0.65, 21.18 0.39 C22.64 0.13, 24.15 0, 25.63 0 C27.12 0, 28.62 0.13, 30.08 0.39 C31.54 0.65, 33 1.04, 34.4 1.55 C35.79 2.05, 37.16 2.69, 38.45 3.43 C39.73 4.18, 40.97 5.04, 42.11 6 C43.24 6.95, 44.31 8.02, 45.27 9.16 C46.22 10.29, 47.09 11.53, 47.83 12.82 C48.57 14.1, 49.21 15.47, 49.72 16.87 C50.22 18.26, 50.62 19.72, 50.87 21.18 C51.13 22.64, 51.2 24.89, 51.26 25.63 C51.33 26.37, 51.33 24.89, 51.26 25.63" stroke="none" stroke-width="0" fill="#868e96"></path><path d="M51.26 25.63 C51.26 27.12, 51.13 28.62, 50.87 30.08 C50.62 31.54, 50.22 33, 49.72 34.4 C49.21 35.79, 48.57 37.16, 47.83 38.45 C47.09 39.73, 46.22 40.97, 45.27 42.11 C44.31 43.24, 43.24 44.31, 42.11 45.27 C40.97 46.22, 39.73 47.09, 38.45 47.83 C37.16 48.57, 35.79 49.21, 34.4 49.72 C33 50.22, 31.54 50.62, 30.08 50.87 C28.62 51.13, 27.12 51.26, 25.63 51.26 C24.15 51.26, 22.64 51.13, 21.18 50.87 C19.72 50.62, 18.26 50.22, 16.87 49.72 C15.47 49.21, 14.1 48.57, 12.82 47.83 C11.53 47.09, 10.29 46.22, 9.16 45.27 C8.02 44.31, 6.95 43.24, 6 42.11 C5.04 40.97, 4.18 39.73, 3.43 38.45 C2.69 37.16, 2.05 35.79, 1.55 34.4 C1.04 33, 0.65 31.54, 0.39 30.08 C0.13 28.62, 0 27.12, 0 25.63 C0 24.15, 0.13 22.64, 0.39 21.18 C0.65 19.72, 1.04 18.26, 1.55 16.87 C2.05 15.47, 2.69 14.1, 3.43 12.82 C4.18 11.53, 5.04 10.29, 6 9.16 C6.95 8.02, 8.02 6.95, 9.16 6 C10.29 5.04, 11.53 4.18, 12.82 3.43 C14.1 2.69, 15.47 2.05, 16.87 1.55 C18.26 1.04, 19.72 0.65, 21.18 0.39 C22.64 0.13, 24.15 0, 25.63 0 C27.12 0, 28.62 0.13, 30.08 0.39 C31.54 0.65, 33 1.04, 34.4 1.55 C35.79 2.05, 37.16 2.69, 38.45 3.43 C39.73 4.18, 40.97 5.04, 42.11 6 C43.24 6.95, 44.31 8.02, 45.27 9.16 C46.22 10.29, 47.09 11.53, 47.83 12.82 C48.57 14.1, 49.21 15.47, 49.72 16.87 C50.22 18.26, 50.62 19.72, 50.87 21.18 C51.13 22.64, 51.2 24.89, 51.26 25.63 C51.33 26.37, 51.33 24.89, 51.26 25.63" stroke="#1e1e1e" stroke-width="1" fill="none"></path></g><g stroke-linecap="round" transform="translate(63.05851063829789 76.52260638297867) rotate(0 1.5957446808510554 1.5957446808510554)"><path d="M3.19 1.6 C3.19 1.69, 3.18 1.78, 3.17 1.87 C3.15 1.96, 3.13 2.05, 3.1 2.14 C3.06 2.23, 3.02 2.31, 2.98 2.39 C2.93 2.47, 2.88 2.55, 2.82 2.62 C2.76 2.69, 2.69 2.76, 2.62 2.82 C2.55 2.88, 2.47 2.93, 2.39 2.98 C2.31 3.02, 2.23 3.06, 2.14 3.1 C2.05 3.13, 1.96 3.15, 1.87 3.17 C1.78 3.18, 1.69 3.19, 1.6 3.19 C1.5 3.19, 1.41 3.18, 1.32 3.17 C1.23 3.15, 1.14 3.13, 1.05 3.1 C0.96 3.06, 0.88 3.02, 0.8 2.98 C0.72 2.93, 0.64 2.88, 0.57 2.82 C0.5 2.76, 0.43 2.69, 0.37 2.62 C0.31 2.55, 0.26 2.47, 0.21 2.39 C0.17 2.31, 0.13 2.23, 0.1 2.14 C0.06 2.05, 0.04 1.96, 0.02 1.87 C0.01 1.78, 0 1.69, 0 1.6 C0 1.5, 0.01 1.41, 0.02 1.32 C0.04 1.23, 0.06 1.14, 0.1 1.05 C0.13 0.96, 0.17 0.88, 0.21 0.8 C0.26 0.72, 0.31 0.64, 0.37 0.57 C0.43 0.5, 0.5 0.43, 0.57 0.37 C0.64 0.31, 0.72 0.26, 0.8 0.21 C0.88 0.17, 0.96 0.13, 1.05 0.1 C1.14 0.06, 1.23 0.04, 1.32 0.02 C1.41 0.01, 1.5 0, 1.6 0 C1.69 0, 1.78 0.01, 1.87 0.02 C1.96 0.04, 2.05 0.06, 2.14 0.1 C2.23 0.13, 2.31 0.17, 2.39 0.21 C2.47 0.26, 2.55 0.31, 2.62 0.37 C2.69 0.43, 2.76 0.5, 2.82 0.57 C2.88 0.64, 2.93 0.72, 2.98 0.8 C3.02 0.88, 3.06 0.96, 3.1 1.05 C3.13 1.14, 3.15 1.23, 3.17 1.32 C3.18 1.41, 3.19 1.55, 3.19 1.6 C3.2 1.64, 3.2 1.55, 3.19 1.6" stroke="#1e1e1e" stroke-width="1" fill="none"></path></g><g stroke-linecap="round" transform="translate(46.10372340425545 76.52260638297867) rotate(0 1.5957446808510554 1.5957446808510554)"><path d="M3.19 1.6 C3.19 1.69, 3.18 1.78, 3.17 1.87 C3.15 1.96, 3.13 2.05, 3.1 2.14 C3.06 2.23, 3.02 2.31, 2.98 2.39 C2.93 2.47, 2.88 2.55, 2.82 2.62 C2.76 2.69, 2.69 2.76, 2.62 2.82 C2.55 2.88, 2.47 2.93, 2.39 2.98 C2.31 3.02, 2.23 3.06, 2.14 3.1 C2.05 3.13, 1.96 3.15, 1.87 3.17 C1.78 3.18, 1.69 3.19, 1.6 3.19 C1.5 3.19, 1.41 3.18, 1.32 3.17 C1.23 3.15, 1.14 3.13, 1.05 3.1 C0.96 3.06, 0.88 3.02, 0.8 2.98 C0.72 2.93, 0.64 2.88, 0.57 2.82 C0.5 2.76, 0.43 2.69, 0.37 2.62 C0.31 2.55, 0.26 2.47, 0.21 2.39 C0.17 2.31, 0.13 2.23, 0.1 2.14 C0.06 2.05, 0.04 1.96, 0.02 1.87 C0.01 1.78, 0 1.69, 0 1.6 C0 1.5, 0.01 1.41, 0.02 1.32 C0.04 1.23, 0.06 1.14, 0.1 1.05 C0.13 0.96, 0.17 0.88, 0.21 0.8 C0.26 0.72, 0.31 0.64, 0.37 0.57 C0.43 0.5, 0.5 0.43, 0.57 0.37 C0.64 0.31, 0.72 0.26, 0.8 0.21 C0.88 0.17, 0.96 0.13, 1.05 0.1 C1.14 0.06, 1.23 0.04, 1.32 0.02 C1.41 0.01, 1.5 0, 1.6 0 C1.69 0, 1.78 0.01, 1.87 0.02 C1.96 0.04, 2.05 0.06, 2.14 0.1 C2.23 0.13, 2.31 0.17, 2.39 0.21 C2.47 0.26, 2.55 0.31, 2.62 0.37 C2.69 0.43, 2.76 0.5, 2.82 0.57 C2.88 0.64, 2.93 0.72, 2.98 0.8 C3.02 0.88, 3.06 0.96, 3.1 1.05 C3.13 1.14, 3.15 1.23, 3.17 1.32 C3.18 1.41, 3.19 1.55, 3.19 1.6 C3.2 1.64, 3.2 1.55, 3.19 1.6" stroke="#1e1e1e" stroke-width="1" fill="none"></path></g><g stroke-linecap="round" transform="translate(30.345744680851112 76.52260638297867) rotate(0 1.5957446808510554 1.5957446808510554)"><path d="M3.19 1.6 C3.19 1.69, 3.18 1.78, 3.17 1.87 C3.15 1.96, 3.13 2.05, 3.1 2.14 C3.06 2.23, 3.02 2.31, 2.98 2.39 C2.93 2.47, 2.88 2.55, 2.82 2.62 C2.76 2.69, 2.69 2.76, 2.62 2.82 C2.55 2.88, 2.47 2.93, 2.39 2.98 C2.31 3.02, 2.23 3.06, 2.14 3.1 C2.05 3.13, 1.96 3.15, 1.87 3.17 C1.78 3.18, 1.69 3.19, 1.6 3.19 C1.5 3.19, 1.41 3.18, 1.32 3.17 C1.23 3.15, 1.14 3.13, 1.05 3.1 C0.96 3.06, 0.88 3.02, 0.8 2.98 C0.72 2.93, 0.64 2.88, 0.57 2.82 C0.5 2.76, 0.43 2.69, 0.37 2.62 C0.31 2.55, 0.26 2.47, 0.21 2.39 C0.17 2.31, 0.13 2.23, 0.1 2.14 C0.06 2.05, 0.04 1.96, 0.02 1.87 C0.01 1.78, 0 1.69, 0 1.6 C0 1.5, 0.01 1.41, 0.02 1.32 C0.04 1.23, 0.06 1.14, 0.1 1.05 C0.13 0.96, 0.17 0.88, 0.21 0.8 C0.26 0.72, 0.31 0.64, 0.37 0.57 C0.43 0.5, 0.5 0.43, 0.57 0.37 C0.64 0.31, 0.72 0.26, 0.8 0.21 C0.88 0.17, 0.96 0.13, 1.05 0.1 C1.14 0.06, 1.23 0.04, 1.32 0.02 C1.41 0.01, 1.5 0, 1.6 0 C1.69 0, 1.78 0.01, 1.87 0.02 C1.96 0.04, 2.05 0.06, 2.14 0.1 C2.23 0.13, 2.31 0.17, 2.39 0.21 C2.47 0.26, 2.55 0.31, 2.62 0.37 C2.69 0.43, 2.76 0.5, 2.82 0.57 C2.88 0.64, 2.93 0.72, 2.98 0.8 C3.02 0.88, 3.06 0.96, 3.1 1.05 C3.13 1.14, 3.15 1.23, 3.17 1.32 C3.18 1.41, 3.19 1.55, 3.19 1.6 C3.2 1.64, 3.2 1.55, 3.19 1.6" stroke="#1e1e1e" stroke-width="1" fill="none"></path></g><g stroke-linecap="round" transform="translate(76.01776705417865 15.142472307523576) rotate(0 1.5957446808510554 1.5957446808510554)"><path d="M3.19 1.6 C3.19 1.69, 3.18 1.78, 3.17 1.87 C3.15 1.96, 3.13 2.05, 3.1 2.14 C3.06 2.23, 3.02 2.31, 2.98 2.39 C2.93 2.47, 2.88 2.55, 2.82 2.62 C2.76 2.69, 2.69 2.76, 2.62 2.82 C2.55 2.88, 2.47 2.93, 2.39 2.98 C2.31 3.02, 2.23 3.06, 2.14 3.1 C2.05 3.13, 1.96 3.15, 1.87 3.17 C1.78 3.18, 1.69 3.19, 1.6 3.19 C1.5 3.19, 1.41 3.18, 1.32 3.17 C1.23 3.15, 1.14 3.13, 1.05 3.1 C0.96 3.06, 0.88 3.02, 0.8 2.98 C0.72 2.93, 0.64 2.88, 0.57 2.82 C0.5 2.76, 0.43 2.69, 0.37 2.62 C0.31 2.55, 0.26 2.47, 0.21 2.39 C0.17 2.31, 0.13 2.23, 0.1 2.14 C0.06 2.05, 0.04 1.96, 0.02 1.87 C0.01 1.78, 0 1.69, 0 1.6 C0 1.5, 0.01 1.41, 0.02 1.32 C0.04 1.23, 0.06 1.14, 0.1 1.05 C0.13 0.96, 0.17 0.88, 0.21 0.8 C0.26 0.72, 0.31 0.64, 0.37 0.57 C0.43 0.5, 0.5 0.43, 0.57 0.37 C0.64 0.31, 0.72 0.26, 0.8 0.21 C0.88 0.17, 0.96 0.13, 1.05 0.1 C1.14 0.06, 1.23 0.04, 1.32 0.02 C1.41 0.01, 1.5 0, 1.6 0 C1.69 0, 1.78 0.01, 1.87 0.02 C1.96 0.04, 2.05 0.06, 2.14 0.1 C2.23 0.13, 2.31 0.17, 2.39 0.21 C2.47 0.26, 2.55 0.31, 2.62 0.37 C2.69 0.43, 2.76 0.5, 2.82 0.57 C2.88 0.64, 2.93 0.72, 2.98 0.8 C3.02 0.88, 3.06 0.96, 3.1 1.05 C3.13 1.14, 3.15 1.23, 3.17 1.32 C3.18 1.41, 3.19 1.55, 3.19 1.6 C3.2 1.64, 3.2 1.55, 3.19 1.6" stroke="#1e1e1e" stroke-width="1" fill="none"></path></g><g stroke-linecap="round" transform="translate(76.01776705417865 75.98023826497041) rotate(0 1.5957446808510554 1.5957446808510554)"><path d="M3.19 1.6 C3.19 1.69, 3.18 1.78, 3.17 1.87 C3.15 1.96, 3.13 2.05, 3.1 2.14 C3.06 2.23, 3.02 2.31, 2.98 2.39 C2.93 2.47, 2.88 2.55, 2.82 2.62 C2.76 2.69, 2.69 2.76, 2.62 2.82 C2.55 2.88, 2.47 2.93, 2.39 2.98 C2.31 3.02, 2.23 3.06, 2.14 3.1 C2.05 3.13, 1.96 3.15, 1.87 3.17 C1.78 3.18, 1.69 3.19, 1.6 3.19 C1.5 3.19, 1.41 3.18, 1.32 3.17 C1.23 3.15, 1.14 3.13, 1.05 3.1 C0.96 3.06, 0.88 3.02, 0.8 2.98 C0.72 2.93, 0.64 2.88, 0.57 2.82 C0.5 2.76, 0.43 2.69, 0.37 2.62 C0.31 2.55, 0.26 2.47, 0.21 2.39 C0.17 2.31, 0.13 2.23, 0.1 2.14 C0.06 2.05, 0.04 1.96, 0.02 1.87 C0.01 1.78, 0 1.69, 0 1.6 C0 1.5, 0.01 1.41, 0.02 1.32 C0.04 1.23, 0.06 1.14, 0.1 1.05 C0.13 0.96, 0.17 0.88, 0.21 0.8 C0.26 0.72, 0.31 0.64, 0.37 0.57 C0.43 0.5, 0.5 0.43, 0.57 0.37 C0.64 0.31, 0.72 0.26, 0.8 0.21 C0.88 0.17, 0.96 0.13, 1.05 0.1 C1.14 0.06, 1.23 0.04, 1.32 0.02 C1.41 0.01, 1.5 0, 1.6 0 C1.69 0, 1.78 0.01, 1.87 0.02 C1.96 0.04, 2.05 0.06, 2.14 0.1 C2.23 0.13, 2.31 0.17, 2.39 0.21 C2.47 0.26, 2.55 0.31, 2.62 0.37 C2.69 0.43, 2.76 0.5, 2.82 0.57 C2.88 0.64, 2.93 0.72, 2.98 0.8 C3.02 0.88, 3.06 0.96, 3.1 1.05 C3.13 1.14, 3.15 1.23, 3.17 1.32 C3.18 1.41, 3.19 1.55, 3.19 1.6 C3.2 1.64, 3.2 1.55, 3.19 1.6" stroke="#1e1e1e" stroke-width="1" fill="none"></path></g><g stroke-linecap="round" transform="translate(76.01776705417865 30.3519137968853) rotate(0 1.5957446808510554 1.5957446808510554)"><path d="M3.19 1.6 C3.19 1.69, 3.18 1.78, 3.17 1.87 C3.15 1.96, 3.13 2.05, 3.1 2.14 C3.06 2.23, 3.02 2.31, 2.98 2.39 C2.93 2.47, 2.88 2.55, 2.82 2.62 C2.76 2.69, 2.69 2.76, 2.62 2.82 C2.55 2.88, 2.47 2.93, 2.39 2.98 C2.31 3.02, 2.23 3.06, 2.14 3.1 C2.05 3.13, 1.96 3.15, 1.87 3.17 C1.78 3.18, 1.69 3.19, 1.6 3.19 C1.5 3.19, 1.41 3.18, 1.32 3.17 C1.23 3.15, 1.14 3.13, 1.05 3.1 C0.96 3.06, 0.88 3.02, 0.8 2.98 C0.72 2.93, 0.64 2.88, 0.57 2.82 C0.5 2.76, 0.43 2.69, 0.37 2.62 C0.31 2.55, 0.26 2.47, 0.21 2.39 C0.17 2.31, 0.13 2.23, 0.1 2.14 C0.06 2.05, 0.04 1.96, 0.02 1.87 C0.01 1.78, 0 1.69, 0 1.6 C0 1.5, 0.01 1.41, 0.02 1.32 C0.04 1.23, 0.06 1.14, 0.1 1.05 C0.13 0.96, 0.17 0.88, 0.21 0.8 C0.26 0.72, 0.31 0.64, 0.37 0.57 C0.43 0.5, 0.5 0.43, 0.57 0.37 C0.64 0.31, 0.72 0.26, 0.8 0.21 C0.88 0.17, 0.96 0.13, 1.05 0.1 C1.14 0.06, 1.23 0.04, 1.32 0.02 C1.41 0.01, 1.5 0, 1.6 0 C1.69 0, 1.78 0.01, 1.87 0.02 C1.96 0.04, 2.05 0.06, 2.14 0.1 C2.23 0.13, 2.31 0.17, 2.39 0.21 C2.47 0.26, 2.55 0.31, 2.62 0.37 C2.69 0.43, 2.76 0.5, 2.82 0.57 C2.88 0.64, 2.93 0.72, 2.98 0.8 C3.02 0.88, 3.06 0.96, 3.1 1.05 C3.13 1.14, 3.15 1.23, 3.17 1.32 C3.18 1.41, 3.19 1.55, 3.19 1.6 C3.2 1.64, 3.2 1.55, 3.19 1.6" stroke="#1e1e1e" stroke-width="1" fill="none"></path></g><g stroke-linecap="round" transform="translate(76.01776705417865 45.561355286246965) rotate(0 1.5957446808510554 1.5957446808510554)"><path d="M3.19 1.6 C3.19 1.69, 3.18 1.78, 3.17 1.87 C3.15 1.96, 3.13 2.05, 3.1 2.14 C3.06 2.23, 3.02 2.31, 2.98 2.39 C2.93 2.47, 2.88 2.55, 2.82 2.62 C2.76 2.69, 2.69 2.76, 2.62 2.82 C2.55 2.88, 2.47 2.93, 2.39 2.98 C2.31 3.02, 2.23 3.06, 2.14 3.1 C2.05 3.13, 1.96 3.15, 1.87 3.17 C1.78 3.18, 1.69 3.19, 1.6 3.19 C1.5 3.19, 1.41 3.18, 1.32 3.17 C1.23 3.15, 1.14 3.13, 1.05 3.1 C0.96 3.06, 0.88 3.02, 0.8 2.98 C0.72 2.93, 0.64 2.88, 0.57 2.82 C0.5 2.76, 0.43 2.69, 0.37 2.62 C0.31 2.55, 0.26 2.47, 0.21 2.39 C0.17 2.31, 0.13 2.23, 0.1 2.14 C0.06 2.05, 0.04 1.96, 0.02 1.87 C0.01 1.78, 0 1.69, 0 1.6 C0 1.5, 0.01 1.41, 0.02 1.32 C0.04 1.23, 0.06 1.14, 0.1 1.05 C0.13 0.96, 0.17 0.88, 0.21 0.8 C0.26 0.72, 0.31 0.64, 0.37 0.57 C0.43 0.5, 0.5 0.43, 0.57 0.37 C0.64 0.31, 0.72 0.26, 0.8 0.21 C0.88 0.17, 0.96 0.13, 1.05 0.1 C1.14 0.06, 1.23 0.04, 1.32 0.02 C1.41 0.01, 1.5 0, 1.6 0 C1.69 0, 1.78 0.01, 1.87 0.02 C1.96 0.04, 2.05 0.06, 2.14 0.1 C2.23 0.13, 2.31 0.17, 2.39 0.21 C2.47 0.26, 2.55 0.31, 2.62 0.37 C2.69 0.43, 2.76 0.5, 2.82 0.57 C2.88 0.64, 2.93 0.72, 2.98 0.8 C3.02 0.88, 3.06 0.96, 3.1 1.05 C3.13 1.14, 3.15 1.23, 3.17 1.32 C3.18 1.41, 3.19 1.55, 3.19 1.6 C3.2 1.64, 3.2 1.55, 3.19 1.6" stroke="#1e1e1e" stroke-width="1" fill="none"></path></g><g stroke-linecap="round" transform="translate(76.01776705417865 60.77079677560863) rotate(0 1.5957446808510554 1.5957446808510554)"><path d="M3.19 1.6 C3.19 1.69, 3.18 1.78, 3.17 1.87 C3.15 1.96, 3.13 2.05, 3.1 2.14 C3.06 2.23, 3.02 2.31, 2.98 2.39 C2.93 2.47, 2.88 2.55, 2.82 2.62 C2.76 2.69, 2.69 2.76, 2.62 2.82 C2.55 2.88, 2.47 2.93, 2.39 2.98 C2.31 3.02, 2.23 3.06, 2.14 3.1 C2.05 3.13, 1.96 3.15, 1.87 3.17 C1.78 3.18, 1.69 3.19, 1.6 3.19 C1.5 3.19, 1.41 3.18, 1.32 3.17 C1.23 3.15, 1.14 3.13, 1.05 3.1 C0.96 3.06, 0.88 3.02, 0.8 2.98 C0.72 2.93, 0.64 2.88, 0.57 2.82 C0.5 2.76, 0.43 2.69, 0.37 2.62 C0.31 2.55, 0.26 2.47, 0.21 2.39 C0.17 2.31, 0.13 2.23, 0.1 2.14 C0.06 2.05, 0.04 1.96, 0.02 1.87 C0.01 1.78, 0 1.69, 0 1.6 C0 1.5, 0.01 1.41, 0.02 1.32 C0.04 1.23, 0.06 1.14, 0.1 1.05 C0.13 0.96, 0.17 0.88, 0.21 0.8 C0.26 0.72, 0.31 0.64, 0.37 0.57 C0.43 0.5, 0.5 0.43, 0.57 0.37 C0.64 0.31, 0.72 0.26, 0.8 0.21 C0.88 0.17, 0.96 0.13, 1.05 0.1 C1.14 0.06, 1.23 0.04, 1.32 0.02 C1.41 0.01, 1.5 0, 1.6 0 C1.69 0, 1.78 0.01, 1.87 0.02 C1.96 0.04, 2.05 0.06, 2.14 0.1 C2.23 0.13, 2.31 0.17, 2.39 0.21 C2.47 0.26, 2.55 0.31, 2.62 0.37 C2.69 0.43, 2.76 0.5, 2.82 0.57 C2.88 0.64, 2.93 0.72, 2.98 0.8 C3.02 0.88, 3.06 0.96, 3.1 1.05 C3.13 1.14, 3.15 1.23, 3.17 1.32 C3.18 1.41, 3.19 1.55, 3.19 1.6 C3.2 1.64, 3.2 1.55, 3.19 1.6" stroke="#1e1e1e" stroke-width="1" fill="none"></path></g><g stroke-linecap="round" transform="translate(15.984042553191557 15.335771276595722) rotate(0 1.5957446808510554 1.5957446808510554)"><path d="M3.19 1.6 C3.19 1.69, 3.18 1.78, 3.17 1.87 C3.15 1.96, 3.13 2.05, 3.1 2.14 C3.06 2.23, 3.02 2.31, 2.98 2.39 C2.93 2.47, 2.88 2.55, 2.82 2.62 C2.76 2.69, 2.69 2.76, 2.62 2.82 C2.55 2.88, 2.47 2.93, 2.39 2.98 C2.31 3.02, 2.23 3.06, 2.14 3.1 C2.05 3.13, 1.96 3.15, 1.87 3.17 C1.78 3.18, 1.69 3.19, 1.6 3.19 C1.5 3.19, 1.41 3.18, 1.32 3.17 C1.23 3.15, 1.14 3.13, 1.05 3.1 C0.96 3.06, 0.88 3.02, 0.8 2.98 C0.72 2.93, 0.64 2.88, 0.57 2.82 C0.5 2.76, 0.43 2.69, 0.37 2.62 C0.31 2.55, 0.26 2.47, 0.21 2.39 C0.17 2.31, 0.13 2.23, 0.1 2.14 C0.06 2.05, 0.04 1.96, 0.02 1.87 C0.01 1.78, 0 1.69, 0 1.6 C0 1.5, 0.01 1.41, 0.02 1.32 C0.04 1.23, 0.06 1.14, 0.1 1.05 C0.13 0.96, 0.17 0.88, 0.21 0.8 C0.26 0.72, 0.31 0.64, 0.37 0.57 C0.43 0.5, 0.5 0.43, 0.57 0.37 C0.64 0.31, 0.72 0.26, 0.8 0.21 C0.88 0.17, 0.96 0.13, 1.05 0.1 C1.14 0.06, 1.23 0.04, 1.32 0.02 C1.41 0.01, 1.5 0, 1.6 0 C1.69 0, 1.78 0.01, 1.87 0.02 C1.96 0.04, 2.05 0.06, 2.14 0.1 C2.23 0.13, 2.31 0.17, 2.39 0.21 C2.47 0.26, 2.55 0.31, 2.62 0.37 C2.69 0.43, 2.76 0.5, 2.82 0.57 C2.88 0.64, 2.93 0.72, 2.98 0.8 C3.02 0.88, 3.06 0.96, 3.1 1.05 C3.13 1.14, 3.15 1.23, 3.17 1.32 C3.18 1.41, 3.19 1.55, 3.19 1.6 C3.2 1.64, 3.2 1.55, 3.19 1.6" stroke="#1e1e1e" stroke-width="1" fill="none"></path></g><g stroke-linecap="round" transform="translate(15.984042553191557 76.17353723404256) rotate(0 1.5957446808510554 1.5957446808510554)"><path d="M3.19 1.6 C3.19 1.69, 3.18 1.78, 3.17 1.87 C3.15 1.96, 3.13 2.05, 3.1 2.14 C3.06 2.23, 3.02 2.31, 2.98 2.39 C2.93 2.47, 2.88 2.55, 2.82 2.62 C2.76 2.69, 2.69 2.76, 2.62 2.82 C2.55 2.88, 2.47 2.93, 2.39 2.98 C2.31 3.02, 2.23 3.06, 2.14 3.1 C2.05 3.13, 1.96 3.15, 1.87 3.17 C1.78 3.18, 1.69 3.19, 1.6 3.19 C1.5 3.19, 1.41 3.18, 1.32 3.17 C1.23 3.15, 1.14 3.13, 1.05 3.1 C0.96 3.06, 0.88 3.02, 0.8 2.98 C0.72 2.93, 0.64 2.88, 0.57 2.82 C0.5 2.76, 0.43 2.69, 0.37 2.62 C0.31 2.55, 0.26 2.47, 0.21 2.39 C0.17 2.31, 0.13 2.23, 0.1 2.14 C0.06 2.05, 0.04 1.96, 0.02 1.87 C0.01 1.78, 0 1.69, 0 1.6 C0 1.5, 0.01 1.41, 0.02 1.32 C0.04 1.23, 0.06 1.14, 0.1 1.05 C0.13 0.96, 0.17 0.88, 0.21 0.8 C0.26 0.72, 0.31 0.64, 0.37 0.57 C0.43 0.5, 0.5 0.43, 0.57 0.37 C0.64 0.31, 0.72 0.26, 0.8 0.21 C0.88 0.17, 0.96 0.13, 1.05 0.1 C1.14 0.06, 1.23 0.04, 1.32 0.02 C1.41 0.01, 1.5 0, 1.6 0 C1.69 0, 1.78 0.01, 1.87 0.02 C1.96 0.04, 2.05 0.06, 2.14 0.1 C2.23 0.13, 2.31 0.17, 2.39 0.21 C2.47 0.26, 2.55 0.31, 2.62 0.37 C2.69 0.43, 2.76 0.5, 2.82 0.57 C2.88 0.64, 2.93 0.72, 2.98 0.8 C3.02 0.88, 3.06 0.96, 3.1 1.05 C3.13 1.14, 3.15 1.23, 3.17 1.32 C3.18 1.41, 3.19 1.55, 3.19 1.6 C3.2 1.64, 3.2 1.55, 3.19 1.6" stroke="#1e1e1e" stroke-width="1" fill="none"></path></g><g stroke-linecap="round" transform="translate(15.984042553191557 30.545212765957444) rotate(0 1.5957446808510554 1.5957446808510554)"><path d="M3.19 1.6 C3.19 1.69, 3.18 1.78, 3.17 1.87 C3.15 1.96, 3.13 2.05, 3.1 2.14 C3.06 2.23, 3.02 2.31, 2.98 2.39 C2.93 2.47, 2.88 2.55, 2.82 2.62 C2.76 2.69, 2.69 2.76, 2.62 2.82 C2.55 2.88, 2.47 2.93, 2.39 2.98 C2.31 3.02, 2.23 3.06, 2.14 3.1 C2.05 3.13, 1.96 3.15, 1.87 3.17 C1.78 3.18, 1.69 3.19, 1.6 3.19 C1.5 3.19, 1.41 3.18, 1.32 3.17 C1.23 3.15, 1.14 3.13, 1.05 3.1 C0.96 3.06, 0.88 3.02, 0.8 2.98 C0.72 2.93, 0.64 2.88, 0.57 2.82 C0.5 2.76, 0.43 2.69, 0.37 2.62 C0.31 2.55, 0.26 2.47, 0.21 2.39 C0.17 2.31, 0.13 2.23, 0.1 2.14 C0.06 2.05, 0.04 1.96, 0.02 1.87 C0.01 1.78, 0 1.69, 0 1.6 C0 1.5, 0.01 1.41, 0.02 1.32 C0.04 1.23, 0.06 1.14, 0.1 1.05 C0.13 0.96, 0.17 0.88, 0.21 0.8 C0.26 0.72, 0.31 0.64, 0.37 0.57 C0.43 0.5, 0.5 0.43, 0.57 0.37 C0.64 0.31, 0.72 0.26, 0.8 0.21 C0.88 0.17, 0.96 0.13, 1.05 0.1 C1.14 0.06, 1.23 0.04, 1.32 0.02 C1.41 0.01, 1.5 0, 1.6 0 C1.69 0, 1.78 0.01, 1.87 0.02 C1.96 0.04, 2.05 0.06, 2.14 0.1 C2.23 0.13, 2.31 0.17, 2.39 0.21 C2.47 0.26, 2.55 0.31, 2.62 0.37 C2.69 0.43, 2.76 0.5, 2.82 0.57 C2.88 0.64, 2.93 0.72, 2.98 0.8 C3.02 0.88, 3.06 0.96, 3.1 1.05 C3.13 1.14, 3.15 1.23, 3.17 1.32 C3.18 1.41, 3.19 1.55, 3.19 1.6 C3.2 1.64, 3.2 1.55, 3.19 1.6" stroke="#1e1e1e" stroke-width="1" fill="none"></path></g><g stroke-linecap="round" transform="translate(15.984042553191557 45.75465425531911) rotate(0 1.5957446808510554 1.5957446808510554)"><path d="M3.19 1.6 C3.19 1.69, 3.18 1.78, 3.17 1.87 C3.15 1.96, 3.13 2.05, 3.1 2.14 C3.06 2.23, 3.02 2.31, 2.98 2.39 C2.93 2.47, 2.88 2.55, 2.82 2.62 C2.76 2.69, 2.69 2.76, 2.62 2.82 C2.55 2.88, 2.47 2.93, 2.39 2.98 C2.31 3.02, 2.23 3.06, 2.14 3.1 C2.05 3.13, 1.96 3.15, 1.87 3.17 C1.78 3.18, 1.69 3.19, 1.6 3.19 C1.5 3.19, 1.41 3.18, 1.32 3.17 C1.23 3.15, 1.14 3.13, 1.05 3.1 C0.96 3.06, 0.88 3.02, 0.8 2.98 C0.72 2.93, 0.64 2.88, 0.57 2.82 C0.5 2.76, 0.43 2.69, 0.37 2.62 C0.31 2.55, 0.26 2.47, 0.21 2.39 C0.17 2.31, 0.13 2.23, 0.1 2.14 C0.06 2.05, 0.04 1.96, 0.02 1.87 C0.01 1.78, 0 1.69, 0 1.6 C0 1.5, 0.01 1.41, 0.02 1.32 C0.04 1.23, 0.06 1.14, 0.1 1.05 C0.13 0.96, 0.17 0.88, 0.21 0.8 C0.26 0.72, 0.31 0.64, 0.37 0.57 C0.43 0.5, 0.5 0.43, 0.57 0.37 C0.64 0.31, 0.72 0.26, 0.8 0.21 C0.88 0.17, 0.96 0.13, 1.05 0.1 C1.14 0.06, 1.23 0.04, 1.32 0.02 C1.41 0.01, 1.5 0, 1.6 0 C1.69 0, 1.78 0.01, 1.87 0.02 C1.96 0.04, 2.05 0.06, 2.14 0.1 C2.23 0.13, 2.31 0.17, 2.39 0.21 C2.47 0.26, 2.55 0.31, 2.62 0.37 C2.69 0.43, 2.76 0.5, 2.82 0.57 C2.88 0.64, 2.93 0.72, 2.98 0.8 C3.02 0.88, 3.06 0.96, 3.1 1.05 C3.13 1.14, 3.15 1.23, 3.17 1.32 C3.18 1.41, 3.19 1.55, 3.19 1.6 C3.2 1.64, 3.2 1.55, 3.19 1.6" stroke="#1e1e1e" stroke-width="1" fill="none"></path></g><g stroke-linecap="round" transform="translate(15.984042553191557 60.96409574468083) rotate(0 1.5957446808510554 1.5957446808510554)"><path d="M3.19 1.6 C3.19 1.69, 3.18 1.78, 3.17 1.87 C3.15 1.96, 3.13 2.05, 3.1 2.14 C3.06 2.23, 3.02 2.31, 2.98 2.39 C2.93 2.47, 2.88 2.55, 2.82 2.62 C2.76 2.69, 2.69 2.76, 2.62 2.82 C2.55 2.88, 2.47 2.93, 2.39 2.98 C2.31 3.02, 2.23 3.06, 2.14 3.1 C2.05 3.13, 1.96 3.15, 1.87 3.17 C1.78 3.18, 1.69 3.19, 1.6 3.19 C1.5 3.19, 1.41 3.18, 1.32 3.17 C1.23 3.15, 1.14 3.13, 1.05 3.1 C0.96 3.06, 0.88 3.02, 0.8 2.98 C0.72 2.93, 0.64 2.88, 0.57 2.82 C0.5 2.76, 0.43 2.69, 0.37 2.62 C0.31 2.55, 0.26 2.47, 0.21 2.39 C0.17 2.31, 0.13 2.23, 0.1 2.14 C0.06 2.05, 0.04 1.96, 0.02 1.87 C0.01 1.78, 0 1.69, 0 1.6 C0 1.5, 0.01 1.41, 0.02 1.32 C0.04 1.23, 0.06 1.14, 0.1 1.05 C0.13 0.96, 0.17 0.88, 0.21 0.8 C0.26 0.72, 0.31 0.64, 0.37 0.57 C0.43 0.5, 0.5 0.43, 0.57 0.37 C0.64 0.31, 0.72 0.26, 0.8 0.21 C0.88 0.17, 0.96 0.13, 1.05 0.1 C1.14 0.06, 1.23 0.04, 1.32 0.02 C1.41 0.01, 1.5 0, 1.6 0 C1.69 0, 1.78 0.01, 1.87 0.02 C1.96 0.04, 2.05 0.06, 2.14 0.1 C2.23 0.13, 2.31 0.17, 2.39 0.21 C2.47 0.26, 2.55 0.31, 2.62 0.37 C2.69 0.43, 2.76 0.5, 2.82 0.57 C2.88 0.64, 2.93 0.72, 2.98 0.8 C3.02 0.88, 3.06 0.96, 3.1 1.05 C3.13 1.14, 3.15 1.23, 3.17 1.32 C3.18 1.41, 3.19 1.55, 3.19 1.6 C3.2 1.64, 3.2 1.55, 3.19 1.6" stroke="#1e1e1e" stroke-width="1" fill="none"></path></g><g stroke-linecap="round" transform="translate(63.05851063829789 15.28590425531911) rotate(0 1.5957446808510554 1.5957446808510554)"><path d="M3.19 1.6 C3.19 1.69, 3.18 1.78, 3.17 1.87 C3.15 1.96, 3.13 2.05, 3.1 2.14 C3.06 2.23, 3.02 2.31, 2.98 2.39 C2.93 2.47, 2.88 2.55, 2.82 2.62 C2.76 2.69, 2.69 2.76, 2.62 2.82 C2.55 2.88, 2.47 2.93, 2.39 2.98 C2.31 3.02, 2.23 3.06, 2.14 3.1 C2.05 3.13, 1.96 3.15, 1.87 3.17 C1.78 3.18, 1.69 3.19, 1.6 3.19 C1.5 3.19, 1.41 3.18, 1.32 3.17 C1.23 3.15, 1.14 3.13, 1.05 3.1 C0.96 3.06, 0.88 3.02, 0.8 2.98 C0.72 2.93, 0.64 2.88, 0.57 2.82 C0.5 2.76, 0.43 2.69, 0.37 2.62 C0.31 2.55, 0.26 2.47, 0.21 2.39 C0.17 2.31, 0.13 2.23, 0.1 2.14 C0.06 2.05, 0.04 1.96, 0.02 1.87 C0.01 1.78, 0 1.69, 0 1.6 C0 1.5, 0.01 1.41, 0.02 1.32 C0.04 1.23, 0.06 1.14, 0.1 1.05 C0.13 0.96, 0.17 0.88, 0.21 0.8 C0.26 0.72, 0.31 0.64, 0.37 0.57 C0.43 0.5, 0.5 0.43, 0.57 0.37 C0.64 0.31, 0.72 0.26, 0.8 0.21 C0.88 0.17, 0.96 0.13, 1.05 0.1 C1.14 0.06, 1.23 0.04, 1.32 0.02 C1.41 0.01, 1.5 0, 1.6 0 C1.69 0, 1.78 0.01, 1.87 0.02 C1.96 0.04, 2.05 0.06, 2.14 0.1 C2.23 0.13, 2.31 0.17, 2.39 0.21 C2.47 0.26, 2.55 0.31, 2.62 0.37 C2.69 0.43, 2.76 0.5, 2.82 0.57 C2.88 0.64, 2.93 0.72, 2.98 0.8 C3.02 0.88, 3.06 0.96, 3.1 1.05 C3.13 1.14, 3.15 1.23, 3.17 1.32 C3.18 1.41, 3.19 1.55, 3.19 1.6 C3.2 1.64, 3.2 1.55, 3.19 1.6" stroke="#1e1e1e" stroke-width="1" fill="none"></path></g><g stroke-linecap="round" transform="translate(46.10372340425545 15.28590425531911) rotate(0 1.5957446808510554 1.5957446808510554)"><path d="M3.19 1.6 C3.19 1.69, 3.18 1.78, 3.17 1.87 C3.15 1.96, 3.13 2.05, 3.1 2.14 C3.06 2.23, 3.02 2.31, 2.98 2.39 C2.93 2.47, 2.88 2.55, 2.82 2.62 C2.76 2.69, 2.69 2.76, 2.62 2.82 C2.55 2.88, 2.47 2.93, 2.39 2.98 C2.31 3.02, 2.23 3.06, 2.14 3.1 C2.05 3.13, 1.96 3.15, 1.87 3.17 C1.78 3.18, 1.69 3.19, 1.6 3.19 C1.5 3.19, 1.41 3.18, 1.32 3.17 C1.23 3.15, 1.14 3.13, 1.05 3.1 C0.96 3.06, 0.88 3.02, 0.8 2.98 C0.72 2.93, 0.64 2.88, 0.57 2.82 C0.5 2.76, 0.43 2.69, 0.37 2.62 C0.31 2.55, 0.26 2.47, 0.21 2.39 C0.17 2.31, 0.13 2.23, 0.1 2.14 C0.06 2.05, 0.04 1.96, 0.02 1.87 C0.01 1.78, 0 1.69, 0 1.6 C0 1.5, 0.01 1.41, 0.02 1.32 C0.04 1.23, 0.06 1.14, 0.1 1.05 C0.13 0.96, 0.17 0.88, 0.21 0.8 C0.26 0.72, 0.31 0.64, 0.37 0.57 C0.43 0.5, 0.5 0.43, 0.57 0.37 C0.64 0.31, 0.72 0.26, 0.8 0.21 C0.88 0.17, 0.96 0.13, 1.05 0.1 C1.14 0.06, 1.23 0.04, 1.32 0.02 C1.41 0.01, 1.5 0, 1.6 0 C1.69 0, 1.78 0.01, 1.87 0.02 C1.96 0.04, 2.05 0.06, 2.14 0.1 C2.23 0.13, 2.31 0.17, 2.39 0.21 C2.47 0.26, 2.55 0.31, 2.62 0.37 C2.69 0.43, 2.76 0.5, 2.82 0.57 C2.88 0.64, 2.93 0.72, 2.98 0.8 C3.02 0.88, 3.06 0.96, 3.1 1.05 C3.13 1.14, 3.15 1.23, 3.17 1.32 C3.18 1.41, 3.19 1.55, 3.19 1.6 C3.2 1.64, 3.2 1.55, 3.19 1.6" stroke="#1e1e1e" stroke-width="1" fill="none"></path></g><g stroke-linecap="round" transform="translate(30.345744680851112 15.28590425531911) rotate(0 1.5957446808510554 1.5957446808510554)"><path d="M3.19 1.6 C3.19 1.69, 3.18 1.78, 3.17 1.87 C3.15 1.96, 3.13 2.05, 3.1 2.14 C3.06 2.23, 3.02 2.31, 2.98 2.39 C2.93 2.47, 2.88 2.55, 2.82 2.62 C2.76 2.69, 2.69 2.76, 2.62 2.82 C2.55 2.88, 2.47 2.93, 2.39 2.98 C2.31 3.02, 2.23 3.06, 2.14 3.1 C2.05 3.13, 1.96 3.15, 1.87 3.17 C1.78 3.18, 1.69 3.19, 1.6 3.19 C1.5 3.19, 1.41 3.18, 1.32 3.17 C1.23 3.15, 1.14 3.13, 1.05 3.1 C0.96 3.06, 0.88 3.02, 0.8 2.98 C0.72 2.93, 0.64 2.88, 0.57 2.82 C0.5 2.76, 0.43 2.69, 0.37 2.62 C0.31 2.55, 0.26 2.47, 0.21 2.39 C0.17 2.31, 0.13 2.23, 0.1 2.14 C0.06 2.05, 0.04 1.96, 0.02 1.87 C0.01 1.78, 0 1.69, 0 1.6 C0 1.5, 0.01 1.41, 0.02 1.32 C0.04 1.23, 0.06 1.14, 0.1 1.05 C0.13 0.96, 0.17 0.88, 0.21 0.8 C0.26 0.72, 0.31 0.64, 0.37 0.57 C0.43 0.5, 0.5 0.43, 0.57 0.37 C0.64 0.31, 0.72 0.26, 0.8 0.21 C0.88 0.17, 0.96 0.13, 1.05 0.1 C1.14 0.06, 1.23 0.04, 1.32 0.02 C1.41 0.01, 1.5 0, 1.6 0 C1.69 0, 1.78 0.01, 1.87 0.02 C1.96 0.04, 2.05 0.06, 2.14 0.1 C2.23 0.13, 2.31 0.17, 2.39 0.21 C2.47 0.26, 2.55 0.31, 2.62 0.37 C2.69 0.43, 2.76 0.5, 2.82 0.57 C2.88 0.64, 2.93 0.72, 2.98 0.8 C3.02 0.88, 3.06 0.96, 3.1 1.05 C3.13 1.14, 3.15 1.23, 3.17 1.32 C3.18 1.41, 3.19 1.55, 3.19 1.6 C3.2 1.64, 3.2 1.55, 3.19 1.6" stroke="#1e1e1e" stroke-width="1" fill="none"></path></g><g stroke-linecap="round" transform="translate(26.954787234042556 26.954787234042556) rotate(0 20.545212765957444 20.545212765957444)"><path d="M41.09 20.55 C41.09 21.73, 40.98 22.94, 40.78 24.11 C40.57 25.28, 40.26 26.45, 39.85 27.57 C39.44 28.69, 38.93 29.79, 38.34 30.82 C37.74 31.85, 37.05 32.84, 36.28 33.75 C35.52 34.66, 34.66 35.52, 33.75 36.28 C32.84 37.05, 31.85 37.74, 30.82 38.34 C29.79 38.93, 28.69 39.44, 27.57 39.85 C26.45 40.26, 25.28 40.57, 24.11 40.78 C22.94 40.98, 21.73 41.09, 20.55 41.09 C19.36 41.09, 18.15 40.98, 16.98 40.78 C15.81 40.57, 14.64 40.26, 13.52 39.85 C12.4 39.44, 11.3 38.93, 10.27 38.34 C9.24 37.74, 8.25 37.05, 7.34 36.28 C6.43 35.52, 5.57 34.66, 4.81 33.75 C4.04 32.84, 3.35 31.85, 2.75 30.82 C2.16 29.79, 1.65 28.69, 1.24 27.57 C0.83 26.45, 0.52 25.28, 0.31 24.11 C0.11 22.94, 0 21.73, 0 20.55 C0 19.36, 0.11 18.15, 0.31 16.98 C0.52 15.81, 0.83 14.64, 1.24 13.52 C1.65 12.4, 2.16 11.3, 2.75 10.27 C3.35 9.24, 4.04 8.25, 4.81 7.34 C5.57 6.43, 6.43 5.57, 7.34 4.81 C8.25 4.04, 9.24 3.35, 10.27 2.75 C11.3 2.16, 12.4 1.65, 13.52 1.24 C14.64 0.83, 15.81 0.52, 16.98 0.31 C18.15 0.11, 19.36 0, 20.55 0 C21.73 0, 22.94 0.11, 24.11 0.31 C25.28 0.52, 26.45 0.83, 27.57 1.24 C28.69 1.65, 29.79 2.16, 30.82 2.75 C31.85 3.35, 32.84 4.04, 33.75 4.81 C34.66 5.57, 35.52 6.43, 36.28 7.34 C37.05 8.25, 37.74 9.24, 38.34 10.27 C38.93 11.3, 39.44 12.4, 39.85 13.52 C40.26 14.64, 40.57 15.81, 40.78 16.98 C40.98 18.15, 41.04 19.95, 41.09 20.55 C41.14 21.14, 41.14 19.95, 41.09 20.55" stroke="none" stroke-width="0" fill="#e9ecef"></path><path d="M41.09 20.55 C41.09 21.73, 40.98 22.94, 40.78 24.11 C40.57 25.28, 40.26 26.45, 39.85 27.57 C39.44 28.69, 38.93 29.79, 38.34 30.82 C37.74 31.85, 37.05 32.84, 36.28 33.75 C35.52 34.66, 34.66 35.52, 33.75 36.28 C32.84 37.05, 31.85 37.74, 30.82 38.34 C29.79 38.93, 28.69 39.44, 27.57 39.85 C26.45 40.26, 25.28 40.57, 24.11 40.78 C22.94 40.98, 21.73 41.09, 20.55 41.09 C19.36 41.09, 18.15 40.98, 16.98 40.78 C15.81 40.57, 14.64 40.26, 13.52 39.85 C12.4 39.44, 11.3 38.93, 10.27 38.34 C9.24 37.74, 8.25 37.05, 7.34 36.28 C6.43 35.52, 5.57 34.66, 4.81 33.75 C4.04 32.84, 3.35 31.85, 2.75 30.82 C2.16 29.79, 1.65 28.69, 1.24 27.57 C0.83 26.45, 0.52 25.28, 0.31 24.11 C0.11 22.94, 0 21.73, 0 20.55 C0 19.36, 0.11 18.15, 0.31 16.98 C0.52 15.81, 0.83 14.64, 1.24 13.52 C1.65 12.4, 2.16 11.3, 2.75 10.27 C3.35 9.24, 4.04 8.25, 4.81 7.34 C5.57 6.43, 6.43 5.57, 7.34 4.81 C8.25 4.04, 9.24 3.35, 10.27 2.75 C11.3 2.16, 12.4 1.65, 13.52 1.24 C14.64 0.83, 15.81 0.52, 16.98 0.31 C18.15 0.11, 19.36 0, 20.55 0 C21.73 0, 22.94 0.11, 24.11 0.31 C25.28 0.52, 26.45 0.83, 27.57 1.24 C28.69 1.65, 29.79 2.16, 30.82 2.75 C31.85 3.35, 32.84 4.04, 33.75 4.81 C34.66 5.57, 35.52 6.43, 36.28 7.34 C37.05 8.25, 37.74 9.24, 38.34 10.27 C38.93 11.3, 39.44 12.4, 39.85 13.52 C40.26 14.64, 40.57 15.81, 40.78 16.98 C40.98 18.15, 41.04 19.95, 41.09 20.55 C41.14 21.14, 41.14 19.95, 41.09 20.55" stroke="#1e1e1e" stroke-width="1" fill="none"></path></g><g stroke-linecap="round" transform="translate(32.495444681377194 32.495444681377194) rotate(179.98425399949974 15.004555318622806 15.004555318622806)"><path d="M30.01 15 C30.01 15.87, 29.93 16.75, 29.78 17.61 C29.63 18.47, 29.4 19.32, 29.1 20.14 C28.81 20.95, 28.43 21.75, 28 22.51 C27.56 23.26, 27.06 23.98, 26.5 24.65 C25.94 25.31, 25.31 25.94, 24.65 26.5 C23.98 27.06, 23.26 27.56, 22.51 28 C21.75 28.43, 20.95 28.81, 20.14 29.1 C19.32 29.4, 18.47 29.63, 17.61 29.78 C16.75 29.93, 15.87 30.01, 15 30.01 C14.14 30.01, 13.25 29.93, 12.4 29.78 C11.54 29.63, 10.69 29.4, 9.87 29.1 C9.06 28.81, 8.25 28.43, 7.5 28 C6.75 27.56, 6.03 27.06, 5.36 26.5 C4.69 25.94, 4.07 25.31, 3.51 24.65 C2.95 23.98, 2.44 23.26, 2.01 22.51 C1.58 21.75, 1.2 20.95, 0.9 20.14 C0.61 19.32, 0.38 18.47, 0.23 17.61 C0.08 16.75, 0 15.87, 0 15 C0 14.14, 0.08 13.25, 0.23 12.4 C0.38 11.54, 0.61 10.69, 0.9 9.87 C1.2 9.06, 1.58 8.25, 2.01 7.5 C2.44 6.75, 2.95 6.03, 3.51 5.36 C4.07 4.69, 4.69 4.07, 5.36 3.51 C6.03 2.95, 6.75 2.44, 7.5 2.01 C8.25 1.58, 9.06 1.2, 9.87 0.9 C10.69 0.61, 11.54 0.38, 12.4 0.23 C13.25 0.08, 14.14 0, 15 0 C15.87 0, 16.75 0.08, 17.61 0.23 C18.47 0.38, 19.32 0.61, 20.14 0.9 C20.95 1.2, 21.75 1.58, 22.51 2.01 C23.26 2.44, 23.98 2.95, 24.65 3.51 C25.31 4.07, 25.94 4.69, 26.5 5.36 C27.06 6.03, 27.56 6.75, 28 7.5 C28.43 8.25, 28.81 9.06, 29.1 9.87 C29.4 10.69, 29.63 11.54, 29.78 12.4 C29.93 13.25, 29.97 14.57, 30.01 15 C30.05 15.44, 30.05 14.57, 30.01 15" stroke="none" stroke-width="0" fill="#ced4da"></path><path d="M30.01 15 C30.01 15.87, 29.93 16.75, 29.78 17.61 C29.63 18.47, 29.4 19.32, 29.1 20.14 C28.81 20.95, 28.43 21.75, 28 22.51 C27.56 23.26, 27.06 23.98, 26.5 24.65 C25.94 25.31, 25.31 25.94, 24.65 26.5 C23.98 27.06, 23.26 27.56, 22.51 28 C21.75 28.43, 20.95 28.81, 20.14 29.1 C19.32 29.4, 18.47 29.63, 17.61 29.78 C16.75 29.93, 15.87 30.01, 15 30.01 C14.14 30.01, 13.25 29.93, 12.4 29.78 C11.54 29.63, 10.69 29.4, 9.87 29.1 C9.06 28.81, 8.25 28.43, 7.5 28 C6.75 27.56, 6.03 27.06, 5.36 26.5 C4.69 25.94, 4.07 25.31, 3.51 24.65 C2.95 23.98, 2.44 23.26, 2.01 22.51 C1.58 21.75, 1.2 20.95, 0.9 20.14 C0.61 19.32, 0.38 18.47, 0.23 17.61 C0.08 16.75, 0 15.87, 0 15 C0 14.14, 0.08 13.25, 0.23 12.4 C0.38 11.54, 0.61 10.69, 0.9 9.87 C1.2 9.06, 1.58 8.25, 2.01 7.5 C2.44 6.75, 2.95 6.03, 3.51 5.36 C4.07 4.69, 4.69 4.07, 5.36 3.51 C6.03 2.95, 6.75 2.44, 7.5 2.01 C8.25 1.58, 9.06 1.2, 9.87 0.9 C10.69 0.61, 11.54 0.38, 12.4 0.23 C13.25 0.08, 14.14 0, 15 0 C15.87 0, 16.75 0.08, 17.61 0.23 C18.47 0.38, 19.32 0.61, 20.14 0.9 C20.95 1.2, 21.75 1.58, 22.51 2.01 C23.26 2.44, 23.98 2.95, 24.65 3.51 C25.31 4.07, 25.94 4.69, 26.5 5.36 C27.06 6.03, 27.56 6.75, 28 7.5 C28.43 8.25, 28.81 9.06, 29.1 9.87 C29.4 10.69, 29.63 11.54, 29.78 12.4 C29.93 13.25, 29.97 14.57, 30.01 15 C30.05 15.44, 30.05 14.57, 30.01 15" stroke="#1e1e1e" stroke-width="1" fill="none"></path></g><g stroke-linecap="round" transform="translate(45.810745427704774 18.782672270980186) rotate(179.98425399949974 1.6892545722952832 28.717327729019843)"><path d="M0.84 0 L3.17 0.21 L3.38 0.84 L3.38 56.59 L2.53 57.43 L0.21 57.22 L0 56.59 L0 0.84 L0.84 0" stroke="none" stroke-width="0" fill="#868e96"></path><path d="M0.84 0 M0.84 0 C1.49 0, 2.13 0, 2.53 0 M0.84 0 C1.35 0, 1.86 0, 2.53 0 M2.53 0 C3.1 0, 3.38 0.28, 3.38 0.84 M2.53 0 C3.1 0, 3.38 0.28, 3.38 0.84 M3.38 0.84 C3.38 18.21, 3.38 35.57, 3.38 56.59 M3.38 0.84 C3.38 22.11, 3.38 43.37, 3.38 56.59 M3.38 56.59 C3.38 57.15, 3.1 57.43, 2.53 57.43 M3.38 56.59 C3.38 57.15, 3.1 57.43, 2.53 57.43 M2.53 57.43 C2.04 57.43, 1.54 57.43, 0.84 57.43 M2.53 57.43 C1.87 57.43, 1.2 57.43, 0.84 57.43 M0.84 57.43 C0.28 57.43, 0 57.15, 0 56.59 M0.84 57.43 C0.28 57.43, 0 57.15, 0 56.59 M0 56.59 C0 44.33, 0 32.07, 0 0.84 M0 56.59 C0 37.42, 0 18.24, 0 0.84 M0 0.84 C0 0.28, 0.28 0, 0.84 0 M0 0.84 C0 0.28, 0.28 0, 0.84 0" stroke="#1e1e1e" stroke-width="1" fill="none"></path></g><g stroke-linecap="round" transform="translate(45.810745427704774 18.782672270980186) rotate(269.98425399949963 1.6892545722952832 28.717327729019843)"><path d="M0.84 0 L3.17 0.21 L3.38 0.84 L3.38 56.59 L2.53 57.43 L0.21 57.22 L0 56.59 L0 0.84 L0.84 0" stroke="none" stroke-width="0" fill="#868e96"></path><path d="M0.84 0 M0.84 0 C1.24 0, 1.65 0, 2.53 0 M0.84 0 C1.21 0, 1.57 0, 2.53 0 M2.53 0 C3.1 0, 3.38 0.28, 3.38 0.84 M2.53 0 C3.1 0, 3.38 0.28, 3.38 0.84 M3.38 0.84 C3.38 12.58, 3.38 24.31, 3.38 56.59 M3.38 0.84 C3.38 15.56, 3.38 30.27, 3.38 56.59 M3.38 56.59 C3.38 57.15, 3.1 57.43, 2.53 57.43 M3.38 56.59 C3.38 57.15, 3.1 57.43, 2.53 57.43 M2.53 57.43 C1.99 57.43, 1.45 57.43, 0.84 57.43 M2.53 57.43 C1.93 57.43, 1.32 57.43, 0.84 57.43 M0.84 57.43 C0.28 57.43, 0 57.15, 0 56.59 M0.84 57.43 C0.28 57.43, 0 57.15, 0 56.59 M0 56.59 C0 44.79, 0 32.99, 0 0.84 M0 56.59 C0 40.34, 0 24.09, 0 0.84 M0 0.84 C0 0.28, 0.28 0, 0.84 0 M0 0.84 C0 0.28, 0.28 0, 0.84 0" stroke="#1e1e1e" stroke-width="1" fill="none"></path></g><g stroke-linecap="round" transform="translate(45.810745427704774 18.782672270980186) rotate(224.98425399949977 1.6892545722952832 28.717327729019843)"><path d="M0.84 0 L3.17 0.21 L3.38 0.84 L3.38 56.59 L2.53 57.43 L0.21 57.22 L0 56.59 L0 0.84 L0.84 0" stroke="none" stroke-width="0" fill="#868e96"></path><path d="M0.84 0 M0.84 0 C1.23 0, 1.61 0, 2.53 0 M0.84 0 C1.44 0, 2.03 0, 2.53 0 M2.53 0 C3.1 0, 3.38 0.28, 3.38 0.84 M2.53 0 C3.1 0, 3.38 0.28, 3.38 0.84 M3.38 0.84 C3.38 14.68, 3.38 28.51, 3.38 56.59 M3.38 0.84 C3.38 17.38, 3.38 33.92, 3.38 56.59 M3.38 56.59 C3.38 57.15, 3.1 57.43, 2.53 57.43 M3.38 56.59 C3.38 57.15, 3.1 57.43, 2.53 57.43 M2.53 57.43 C1.89 57.43, 1.24 57.43, 0.84 57.43 M2.53 57.43 C1.97 57.43, 1.41 57.43, 0.84 57.43 M0.84 57.43 C0.28 57.43, 0 57.15, 0 56.59 M0.84 57.43 C0.28 57.43, 0 57.15, 0 56.59 M0 56.59 C0 44.45, 0 32.31, 0 0.84 M0 56.59 C0 37.07, 0 17.54, 0 0.84 M0 0.84 C0 0.28, 0.28 0, 0.84 0 M0 0.84 C0 0.28, 0.28 0, 0.84 0" stroke="#1e1e1e" stroke-width="1" fill="none"></path></g><g stroke-linecap="round" transform="translate(45.810745427704774 18.782672270980186) rotate(314.9842539994997 1.6892545722952832 28.717327729019843)"><path d="M0.84 0 L3.17 0.21 L3.38 0.84 L3.38 56.59 L2.53 57.43 L0.21 57.22 L0 56.59 L0 0.84 L0.84 0" stroke="none" stroke-width="0" fill="#868e96"></path><path d="M0.84 0 M0.84 0 C1.4 0, 1.95 0, 2.53 0 M0.84 0 C1.43 0, 2.02 0, 2.53 0 M2.53 0 C3.1 0, 3.38 0.28, 3.38 0.84 M2.53 0 C3.1 0, 3.38 0.28, 3.38 0.84 M3.38 0.84 C3.38 20.89, 3.38 40.94, 3.38 56.59 M3.38 0.84 C3.38 13.62, 3.38 26.39, 3.38 56.59 M3.38 56.59 C3.38 57.15, 3.1 57.43, 2.53 57.43 M3.38 56.59 C3.38 57.15, 3.1 57.43, 2.53 57.43 M2.53 57.43 C1.98 57.43, 1.43 57.43, 0.84 57.43 M2.53 57.43 C1.99 57.43, 1.44 57.43, 0.84 57.43 M0.84 57.43 C0.28 57.43, 0 57.15, 0 56.59 M0.84 57.43 C0.28 57.43, 0 57.15, 0 56.59 M0 56.59 C0 38.33, 0 20.07, 0 0.84 M0 56.59 C0 37.28, 0 17.97, 0 0.84 M0 0.84 C0 0.28, 0.28 0, 0.84 0 M0 0.84 C0 0.28, 0.28 0, 0.84 0" stroke="#1e1e1e" stroke-width="1" fill="none"></path></g><g stroke-linecap="round" transform="translate(36.271425490037245 36.271425490037245) rotate(179.98425399949974 11.228574509962755 11.228574509962755)"><path d="M22.46 11.23 C22.46 11.88, 22.4 12.54, 22.29 13.18 C22.17 13.82, 22 14.46, 21.78 15.07 C21.56 15.68, 21.28 16.28, 20.95 16.84 C20.63 17.41, 20.25 17.95, 19.83 18.45 C19.41 18.94, 18.94 19.41, 18.45 19.83 C17.95 20.25, 17.41 20.63, 16.84 20.95 C16.28 21.28, 15.68 21.56, 15.07 21.78 C14.46 22, 13.82 22.17, 13.18 22.29 C12.54 22.4, 11.88 22.46, 11.23 22.46 C10.58 22.46, 9.92 22.4, 9.28 22.29 C8.64 22.17, 8 22, 7.39 21.78 C6.78 21.56, 6.18 21.28, 5.61 20.95 C5.05 20.63, 4.51 20.25, 4.01 19.83 C3.51 19.41, 3.04 18.94, 2.63 18.45 C2.21 17.95, 1.83 17.41, 1.5 16.84 C1.18 16.28, 0.9 15.68, 0.68 15.07 C0.45 14.46, 0.28 13.82, 0.17 13.18 C0.06 12.54, 0 11.88, 0 11.23 C0 10.58, 0.06 9.92, 0.17 9.28 C0.28 8.64, 0.45 8, 0.68 7.39 C0.9 6.78, 1.18 6.18, 1.5 5.61 C1.83 5.05, 2.21 4.51, 2.63 4.01 C3.04 3.51, 3.51 3.04, 4.01 2.63 C4.51 2.21, 5.05 1.83, 5.61 1.5 C6.18 1.18, 6.78 0.9, 7.39 0.68 C8 0.45, 8.64 0.28, 9.28 0.17 C9.92 0.06, 10.58 0, 11.23 0 C11.88 0, 12.54 0.06, 13.18 0.17 C13.82 0.28, 14.46 0.45, 15.07 0.68 C15.68 0.9, 16.28 1.18, 16.84 1.5 C17.41 1.83, 17.95 2.21, 18.45 2.63 C18.94 3.04, 19.41 3.51, 19.83 4.01 C20.25 4.51, 20.63 5.05, 20.95 5.61 C21.28 6.18, 21.56 6.78, 21.78 7.39 C22 8, 22.17 8.64, 22.29 9.28 C22.4 9.92, 22.43 10.9, 22.46 11.23 C22.49 11.55, 22.49 10.9, 22.46 11.23" stroke="none" stroke-width="0" fill="#868e96"></path><path d="M22.46 11.23 C22.46 11.88, 22.4 12.54, 22.29 13.18 C22.17 13.82, 22 14.46, 21.78 15.07 C21.56 15.68, 21.28 16.28, 20.95 16.84 C20.63 17.41, 20.25 17.95, 19.83 18.45 C19.41 18.94, 18.94 19.41, 18.45 19.83 C17.95 20.25, 17.41 20.63, 16.84 20.95 C16.28 21.28, 15.68 21.56, 15.07 21.78 C14.46 22, 13.82 22.17, 13.18 22.29 C12.54 22.4, 11.88 22.46, 11.23 22.46 C10.58 22.46, 9.92 22.4, 9.28 22.29 C8.64 22.17, 8 22, 7.39 21.78 C6.78 21.56, 6.18 21.28, 5.61 20.95 C5.05 20.63, 4.51 20.25, 4.01 19.83 C3.51 19.41, 3.04 18.94, 2.63 18.45 C2.21 17.95, 1.83 17.41, 1.5 16.84 C1.18 16.28, 0.9 15.68, 0.68 15.07 C0.45 14.46, 0.28 13.82, 0.17 13.18 C0.06 12.54, 0 11.88, 0 11.23 C0 10.58, 0.06 9.92, 0.17 9.28 C0.28 8.64, 0.45 8, 0.68 7.39 C0.9 6.78, 1.18 6.18, 1.5 5.61 C1.83 5.05, 2.21 4.51, 2.63 4.01 C3.04 3.51, 3.51 3.04, 4.01 2.63 C4.51 2.21, 5.05 1.83, 5.61 1.5 C6.18 1.18, 6.78 0.9, 7.39 0.68 C8 0.45, 8.64 0.28, 9.28 0.17 C9.92 0.06, 10.58 0, 11.23 0 C11.88 0, 12.54 0.06, 13.18 0.17 C13.82 0.28, 14.46 0.45, 15.07 0.68 C15.68 0.9, 16.28 1.18, 16.84 1.5 C17.41 1.83, 17.95 2.21, 18.45 2.63 C18.94 3.04, 19.41 3.51, 19.83 4.01 C20.25 4.51, 20.63 5.05, 20.95 5.61 C21.28 6.18, 21.56 6.78, 21.78 7.39 C22 8, 22.17 8.64, 22.29 9.28 C22.4 9.92, 22.43 10.9, 22.46 11.23 C22.49 11.55, 22.49 10.9, 22.46 11.23" stroke="#1e1e1e" stroke-width="1" fill="none"></path></g><g stroke-linecap="round" transform="translate(43.32654752727046 43.32654752727052) rotate(179.98425399949974 4.173452472729537 4.173452472729537)"><path d="M8.35 4.17 C8.35 4.42, 8.33 4.66, 8.28 4.9 C8.24 5.14, 8.18 5.37, 8.1 5.6 C8.01 5.83, 7.91 6.05, 7.79 6.26 C7.67 6.47, 7.53 6.67, 7.37 6.86 C7.22 7.04, 7.04 7.22, 6.86 7.37 C6.67 7.53, 6.47 7.67, 6.26 7.79 C6.05 7.91, 5.83 8.01, 5.6 8.1 C5.37 8.18, 5.14 8.24, 4.9 8.28 C4.66 8.33, 4.42 8.35, 4.17 8.35 C3.93 8.35, 3.69 8.33, 3.45 8.28 C3.21 8.24, 2.97 8.18, 2.75 8.1 C2.52 8.01, 2.3 7.91, 2.09 7.79 C1.88 7.67, 1.68 7.53, 1.49 7.37 C1.31 7.22, 1.13 7.04, 0.98 6.86 C0.82 6.67, 0.68 6.47, 0.56 6.26 C0.44 6.05, 0.33 5.83, 0.25 5.6 C0.17 5.37, 0.11 5.14, 0.06 4.9 C0.02 4.66, 0 4.42, 0 4.17 C0 3.93, 0.02 3.69, 0.06 3.45 C0.11 3.21, 0.17 2.97, 0.25 2.75 C0.33 2.52, 0.44 2.3, 0.56 2.09 C0.68 1.88, 0.82 1.68, 0.98 1.49 C1.13 1.31, 1.31 1.13, 1.49 0.98 C1.68 0.82, 1.88 0.68, 2.09 0.56 C2.3 0.44, 2.52 0.33, 2.75 0.25 C2.97 0.17, 3.21 0.11, 3.45 0.06 C3.69 0.02, 3.93 0, 4.17 0 C4.42 0, 4.66 0.02, 4.9 0.06 C5.14 0.11, 5.37 0.17, 5.6 0.25 C5.83 0.33, 6.05 0.44, 6.26 0.56 C6.47 0.68, 6.67 0.82, 6.86 0.98 C7.04 1.13, 7.22 1.31, 7.37 1.49 C7.53 1.68, 7.67 1.88, 7.79 2.09 C7.91 2.3, 8.01 2.52, 8.1 2.75 C8.18 2.97, 8.24 3.21, 8.28 3.45 C8.33 3.69, 8.34 4.05, 8.35 4.17 C8.36 4.29, 8.36 4.05, 8.35 4.17" stroke="none" stroke-width="0" fill="#343a40"></path><path d="M8.35 4.17 C8.35 4.42, 8.33 4.66, 8.28 4.9 C8.24 5.14, 8.18 5.37, 8.1 5.6 C8.01 5.83, 7.91 6.05, 7.79 6.26 C7.67 6.47, 7.53 6.67, 7.37 6.86 C7.22 7.04, 7.04 7.22, 6.86 7.37 C6.67 7.53, 6.47 7.67, 6.26 7.79 C6.05 7.91, 5.83 8.01, 5.6 8.1 C5.37 8.18, 5.14 8.24, 4.9 8.28 C4.66 8.33, 4.42 8.35, 4.17 8.35 C3.93 8.35, 3.69 8.33, 3.45 8.28 C3.21 8.24, 2.97 8.18, 2.75 8.1 C2.52 8.01, 2.3 7.91, 2.09 7.79 C1.88 7.67, 1.68 7.53, 1.49 7.37 C1.31 7.22, 1.13 7.04, 0.98 6.86 C0.82 6.67, 0.68 6.47, 0.56 6.26 C0.44 6.05, 0.33 5.83, 0.25 5.6 C0.17 5.37, 0.11 5.14, 0.06 4.9 C0.02 4.66, 0 4.42, 0 4.17 C0 3.93, 0.02 3.69, 0.06 3.45 C0.11 3.21, 0.17 2.97, 0.25 2.75 C0.33 2.52, 0.44 2.3, 0.56 2.09 C0.68 1.88, 0.82 1.68, 0.98 1.49 C1.13 1.31, 1.31 1.13, 1.49 0.98 C1.68 0.82, 1.88 0.68, 2.09 0.56 C2.3 0.44, 2.52 0.33, 2.75 0.25 C2.97 0.17, 3.21 0.11, 3.45 0.06 C3.69 0.02, 3.93 0, 4.17 0 C4.42 0, 4.66 0.02, 4.9 0.06 C5.14 0.11, 5.37 0.17, 5.6 0.25 C5.83 0.33, 6.05 0.44, 6.26 0.56 C6.47 0.68, 6.67 0.82, 6.86 0.98 C7.04 1.13, 7.22 1.31, 7.37 1.49 C7.53 1.68, 7.67 1.88, 7.79 2.09 C7.91 2.3, 8.01 2.52, 8.1 2.75 C8.18 2.97, 8.24 3.21, 8.28 3.45 C8.33 3.69, 8.34 4.05, 8.35 4.17 C8.36 4.29, 8.36 4.05, 8.35 4.17" stroke="#1e1e1e" stroke-width="1" fill="none"></path></g></svg>